solid OpenSCAD_Model
  facet normal 0 1 0
    outer loop
      vertex -12 40 5
      vertex -12 40 15
      vertex -8 40 15
    endloop
  endfacet
  facet normal 0.928477 2.27584e-007 -0.371391
    outer loop
      vertex -8 40 15
      vertex -12 36.1093 5
      vertex -12 40 5
    endloop
  endfacet
  facet normal 0.928477 0 -0.371391
    outer loop
      vertex -12 36.1093 5
      vertex -8 40 15
      vertex -12 36 5
    endloop
  endfacet
  facet normal -1 0 0
    outer loop
      vertex -12 36 15
      vertex -12 36.1093 5
      vertex -12 36 5
    endloop
  endfacet
  facet normal -1 0 0
    outer loop
      vertex -12 36.1093 5
      vertex -12 36 15
      vertex -12 36.3279 15
    endloop
  endfacet
  facet normal 0.928477 0 -0.371391
    outer loop
      vertex -8 36 15
      vertex -12 36 5
      vertex -8 40 15
    endloop
  endfacet
  facet normal 0 -1 0
    outer loop
      vertex -12 36 15
      vertex -12 36 5
      vertex -8 36 15
    endloop
  endfacet
  facet normal 0 0 1
    outer loop
      vertex -12 36.3279 15
      vertex -8 40 15
      vertex -12 40 15
    endloop
  endfacet
  facet normal 0 0 1
    outer loop
      vertex -8 40 15
      vertex -12 36.3279 15
      vertex -8 36 15
    endloop
  endfacet
  facet normal 0 0 1
    outer loop
      vertex -8 36 15
      vertex -12 36.3279 15
      vertex -12 36 15
    endloop
  endfacet
  facet normal 0 1 0
    outer loop
      vertex -12 40 35
      vertex -12 40 45
      vertex -8 40 45
    endloop
  endfacet
  facet normal 0.928477 4.37946e-007 -0.371391
    outer loop
      vertex -8 40 45
      vertex -12 36.765 35
      vertex -12 40 35
    endloop
  endfacet
  facet normal 0.928477 0 -0.371391
    outer loop
      vertex -12 36.765 35
      vertex -8 40 45
      vertex -12 36 35
    endloop
  endfacet
  facet normal -1 0 0
    outer loop
      vertex -12 36 45
      vertex -12 36.765 35
      vertex -12 36 35
    endloop
  endfacet
  facet normal -1 0 0
    outer loop
      vertex -12 36.765 35
      vertex -12 36 45
      vertex -12 36.9836 45
    endloop
  endfacet
  facet normal 0.928477 0 -0.371391
    outer loop
      vertex -8 36 45
      vertex -12 36 35
      vertex -8 40 45
    endloop
  endfacet
  facet normal 0 -1 0
    outer loop
      vertex -12 36 45
      vertex -12 36 35
      vertex -8 36 45
    endloop
  endfacet
  facet normal 0 0 1
    outer loop
      vertex -12 36.9836 45
      vertex -8 40 45
      vertex -12 40 45
    endloop
  endfacet
  facet normal 0 0 1
    outer loop
      vertex -8 40 45
      vertex -12 36.9836 45
      vertex -8 36 45
    endloop
  endfacet
  facet normal 0 0 1
    outer loop
      vertex -8 36 45
      vertex -12 36.9836 45
      vertex -12 36 45
    endloop
  endfacet
  facet normal 0 1 0
    outer loop
      vertex -12 40 65
      vertex -12 40 75
      vertex -8 40 75
    endloop
  endfacet
  facet normal 0.928477 0 -0.371391
    outer loop
      vertex -8 40 75
      vertex -12 37.4208 65
      vertex -12 40 65
    endloop
  endfacet
  facet normal 0.928477 0 -0.371391
    outer loop
      vertex -12 37.4208 65
      vertex -8 40 75
      vertex -12 36 65
    endloop
  endfacet
  facet normal -1 0 0
    outer loop
      vertex -12 36 75
      vertex -12 37.4208 65
      vertex -12 36 65
    endloop
  endfacet
  facet normal -1 0 0
    outer loop
      vertex -12 37.4208 65
      vertex -12 36 75
      vertex -12 37.6393 75
    endloop
  endfacet
  facet normal 0.928477 0 -0.371391
    outer loop
      vertex -8 36 75
      vertex -12 36 65
      vertex -8 40 75
    endloop
  endfacet
  facet normal 0 0 1
    outer loop
      vertex -12 37.6393 75
      vertex -8 40 75
      vertex -12 40 75
    endloop
  endfacet
  facet normal 0 0 1
    outer loop
      vertex -8 40 75
      vertex -12 37.6393 75
      vertex -8 36 75
    endloop
  endfacet
  facet normal 0 0 1
    outer loop
      vertex -8 36 75
      vertex -12 37.6393 75
      vertex -12 36 75
    endloop
  endfacet
  facet normal 0 -1 0
    outer loop
      vertex -12 36 75
      vertex -12 36 65
      vertex -8 36 75
    endloop
  endfacet
  facet normal 0 1 0
    outer loop
      vertex -12 40 95
      vertex -12 40 105
      vertex -8 40 105
    endloop
  endfacet
  facet normal 0.928477 0 -0.371391
    outer loop
      vertex -8 40 105
      vertex -12 38.0765 95
      vertex -12 40 95
    endloop
  endfacet
  facet normal 0.928477 4.26422e-007 -0.371391
    outer loop
      vertex -12 38.0765 95
      vertex -8 40 105
      vertex -12 36 95
    endloop
  endfacet
  facet normal -1 -4.5927e-007 -0
    outer loop
      vertex -12 36 105
      vertex -12 38.0765 95
      vertex -12 36 95
    endloop
  endfacet
  facet normal -1 -4.1553e-007 9.08273e-009
    outer loop
      vertex -12 38.0765 95
      vertex -12 36 105
      vertex -12 38.2951 105
    endloop
  endfacet
  facet normal 0.928477 0 -0.371391
    outer loop
      vertex -8 36 105
      vertex -12 36 95
      vertex -8 40 105
    endloop
  endfacet
  facet normal -0 0 1
    outer loop
      vertex -12 38.2951 105
      vertex -8 36 105
      vertex -8 40 105
    endloop
  endfacet
  facet normal 0 0 1
    outer loop
      vertex -12 38.2951 105
      vertex -8 40 105
      vertex -12 40 105
    endloop
  endfacet
  facet normal 0 0 1
    outer loop
      vertex -8 36 105
      vertex -12 38.2951 105
      vertex -12 36 105
    endloop
  endfacet
  facet normal 0 -1 0
    outer loop
      vertex -12 36 105
      vertex -12 36 95
      vertex -8 36 105
    endloop
  endfacet
  facet normal 0 1 0
    outer loop
      vertex -12 40 125
      vertex -12 40 135
      vertex -8 40 135
    endloop
  endfacet
  facet normal 0.928477 0 -0.371391
    outer loop
      vertex -8 40 135
      vertex -12 38.7322 125
      vertex -12 40 125
    endloop
  endfacet
  facet normal 0.928477 3.2408e-007 -0.371391
    outer loop
      vertex -12 38.7322 125
      vertex -8 40 135
      vertex -12 36 125
    endloop
  endfacet
  facet normal -1 -3.49045e-007 -0
    outer loop
      vertex -12 36 135
      vertex -12 38.7322 125
      vertex -12 36 125
    endloop
  endfacet
  facet normal -1 -3.23189e-007 7.06435e-009
    outer loop
      vertex -12 38.7322 125
      vertex -12 36 135
      vertex -12 38.9508 135
    endloop
  endfacet
  facet normal 0.928477 0 -0.371391
    outer loop
      vertex -8 36 135
      vertex -12 36 125
      vertex -8 40 135
    endloop
  endfacet
  facet normal 0 -1 0
    outer loop
      vertex -12 36 135
      vertex -12 36 125
      vertex -8 36 135
    endloop
  endfacet
  facet normal -0 0 1
    outer loop
      vertex -12 38.9508 135
      vertex -8 36 135
      vertex -8 40 135
    endloop
  endfacet
  facet normal 0 0 1
    outer loop
      vertex -12 38.9508 135
      vertex -8 40 135
      vertex -12 40 135
    endloop
  endfacet
  facet normal 0 0 1
    outer loop
      vertex -8 36 135
      vertex -12 38.9508 135
      vertex -12 36 135
    endloop
  endfacet
  facet normal 0 1 0
    outer loop
      vertex -12 40 155
      vertex -12 40 165
      vertex -8 40 165
    endloop
  endfacet
  facet normal 0.928477 0 -0.371391
    outer loop
      vertex -8 40 165
      vertex -12 39.388 155
      vertex -12 40 155
    endloop
  endfacet
  facet normal 0.928477 2.61355e-007 -0.371391
    outer loop
      vertex -12 39.388 155
      vertex -8 40 165
      vertex -12 36 155
    endloop
  endfacet
  facet normal -1 -2.81488e-007 -0
    outer loop
      vertex -12 36 165
      vertex -12 39.388 155
      vertex -12 36 155
    endloop
  endfacet
  facet normal -1 -2.64428e-007 5.77982e-009
    outer loop
      vertex -12 39.388 155
      vertex -12 36 165
      vertex -12 39.6066 165
    endloop
  endfacet
  facet normal 0.928477 0 -0.371391
    outer loop
      vertex -8 36 165
      vertex -12 36 155
      vertex -8 40 165
    endloop
  endfacet
  facet normal 0 -1 0
    outer loop
      vertex -12 36 165
      vertex -12 36 155
      vertex -8 36 165
    endloop
  endfacet
  facet normal -0 0 1
    outer loop
      vertex -12 39.6066 165
      vertex -8 36 165
      vertex -8 40 165
    endloop
  endfacet
  facet normal 0 0 1
    outer loop
      vertex -12 39.6066 165
      vertex -8 40 165
      vertex -12 40 165
    endloop
  endfacet
  facet normal 0 0 1
    outer loop
      vertex -8 36 165
      vertex -12 39.6066 165
      vertex -12 36 165
    endloop
  endfacet
  facet normal 0 0 1
    outer loop
      vertex -12 40 183
      vertex -21.5 36 183
      vertex -12 36 183
    endloop
  endfacet
  facet normal 0 0 1
    outer loop
      vertex -33.5 36 183
      vertex -21.5 36 183
      vertex -33.5 40 183
    endloop
  endfacet
  facet normal -0 0 1
    outer loop
      vertex -33.5 40 183
      vertex -21.5 36 183
      vertex -12 40 183
    endloop
  endfacet
  facet normal -0 0 1
    outer loop
      vertex -21.5 32 183
      vertex -4 30 183
      vertex -4 32 183
    endloop
  endfacet
  facet normal 0 0 1
    outer loop
      vertex -21.5 36 183
      vertex -33.5 36 183
      vertex -21.5 32 183
    endloop
  endfacet
  facet normal 0 0 1
    outer loop
      vertex -40 30 183
      vertex -33.5 36 183
      vertex -40 36 183
    endloop
  endfacet
  facet normal 0 0 1
    outer loop
      vertex -21.5 32 183
      vertex -40 30 183
      vertex -4 30 183
    endloop
  endfacet
  facet normal 0 0 1
    outer loop
      vertex -33.5 36 183
      vertex -40 30 183
      vertex -21.5 32 183
    endloop
  endfacet
  facet normal -0 0 1
    outer loop
      vertex -42 54 183
      vertex -40 36 183
      vertex -40 54 183
    endloop
  endfacet
  facet normal 0 0 1
    outer loop
      vertex -40 36 183
      vertex -42 32 183
      vertex -40 30 183
    endloop
  endfacet
  facet normal 0 0 1
    outer loop
      vertex -40 30 183
      vertex -42 32 183
      vertex -40.209 30.011 183
    endloop
  endfacet
  facet normal 0 0 1
    outer loop
      vertex -40.209 30.011 183
      vertex -42 32 183
      vertex -40.4158 30.0437 183
    endloop
  endfacet
  facet normal 0 0 1
    outer loop
      vertex -40.4158 30.0437 183
      vertex -42 32 183
      vertex -40.618 30.0979 183
    endloop
  endfacet
  facet normal 0 0 1
    outer loop
      vertex -40.618 30.0979 183
      vertex -42 32 183
      vertex -40.8135 30.1729 183
    endloop
  endfacet
  facet normal 0 0 1
    outer loop
      vertex -40.8135 30.1729 183
      vertex -42 32 183
      vertex -41 30.2679 183
    endloop
  endfacet
  facet normal 0 0 1
    outer loop
      vertex -41 30.2679 183
      vertex -42 32 183
      vertex -41.1756 30.382 183
    endloop
  endfacet
  facet normal 0 0 1
    outer loop
      vertex -41.1756 30.382 183
      vertex -42 32 183
      vertex -41.3383 30.5137 183
    endloop
  endfacet
  facet normal 0 0 1
    outer loop
      vertex -41.3383 30.5137 183
      vertex -42 32 183
      vertex -41.4863 30.6617 183
    endloop
  endfacet
  facet normal 0 0 1
    outer loop
      vertex -41.4863 30.6617 183
      vertex -42 32 183
      vertex -41.618 30.8244 183
    endloop
  endfacet
  facet normal 0 0 1
    outer loop
      vertex -41.618 30.8244 183
      vertex -42 32 183
      vertex -41.732 31 183
    endloop
  endfacet
  facet normal 0 0 1
    outer loop
      vertex -41.732 31 183
      vertex -42 32 183
      vertex -41.8271 31.1865 183
    endloop
  endfacet
  facet normal 0 0 1
    outer loop
      vertex -41.8271 31.1865 183
      vertex -42 32 183
      vertex -41.9021 31.382 183
    endloop
  endfacet
  facet normal 0 0 1
    outer loop
      vertex -41.9021 31.382 183
      vertex -42 32 183
      vertex -41.9563 31.5842 183
    endloop
  endfacet
  facet normal 0 0 1
    outer loop
      vertex -40 36 183
      vertex -42 54 183
      vertex -42 32 183
    endloop
  endfacet
  facet normal 0 0 1
    outer loop
      vertex -41.9563 31.5842 183
      vertex -42 32 183
      vertex -41.989 31.7909 183
    endloop
  endfacet
  facet normal 0 0 -1
    outer loop
      vertex -4 30 0
      vertex -21.5 32 0
      vertex -4 32 0
    endloop
  endfacet
  facet normal 0 0 -1
    outer loop
      vertex -21.5 32 0
      vertex -33.5 36 0
      vertex -21.5 36 0
    endloop
  endfacet
  facet normal 0 0 -1
    outer loop
      vertex -40 30 0
      vertex -21.5 32 0
      vertex -4 30 0
    endloop
  endfacet
  facet normal 0 0 -1
    outer loop
      vertex -40 30 0
      vertex -33.5 36 0
      vertex -21.5 32 0
    endloop
  endfacet
  facet normal 0 0 -1
    outer loop
      vertex -40 30 0
      vertex -40 36 0
      vertex -33.5 36 0
    endloop
  endfacet
  facet normal 0 0 -1
    outer loop
      vertex -42 32 0
      vertex -40 36 0
      vertex -40 30 0
    endloop
  endfacet
  facet normal 0 0 -1
    outer loop
      vertex -42 32 0
      vertex -40 30 0
      vertex -40.209 30.011 0
    endloop
  endfacet
  facet normal 0 0 -1
    outer loop
      vertex -42 32 0
      vertex -40.209 30.011 0
      vertex -40.4158 30.0437 0
    endloop
  endfacet
  facet normal 0 0 -1
    outer loop
      vertex -42 32 0
      vertex -40.4158 30.0437 0
      vertex -40.618 30.0979 0
    endloop
  endfacet
  facet normal 0 0 -1
    outer loop
      vertex -42 32 0
      vertex -40.618 30.0979 0
      vertex -40.8135 30.1729 0
    endloop
  endfacet
  facet normal 0 0 -1
    outer loop
      vertex -42 32 0
      vertex -40.8135 30.1729 0
      vertex -41 30.2679 0
    endloop
  endfacet
  facet normal 0 0 -1
    outer loop
      vertex -42 32 0
      vertex -41 30.2679 0
      vertex -41.1756 30.382 0
    endloop
  endfacet
  facet normal 0 0 -1
    outer loop
      vertex -42 32 0
      vertex -41.1756 30.382 0
      vertex -41.3383 30.5137 0
    endloop
  endfacet
  facet normal 0 0 -1
    outer loop
      vertex -42 32 0
      vertex -41.3383 30.5137 0
      vertex -41.4863 30.6617 0
    endloop
  endfacet
  facet normal 0 0 -1
    outer loop
      vertex -42 32 0
      vertex -41.4863 30.6617 0
      vertex -41.618 30.8244 0
    endloop
  endfacet
  facet normal 0 0 -1
    outer loop
      vertex -42 32 0
      vertex -41.618 30.8244 0
      vertex -41.732 31 0
    endloop
  endfacet
  facet normal 0 0 -1
    outer loop
      vertex -42 32 0
      vertex -41.732 31 0
      vertex -41.8271 31.1865 0
    endloop
  endfacet
  facet normal 0 0 -1
    outer loop
      vertex -42 32 0
      vertex -41.8271 31.1865 0
      vertex -41.9021 31.382 0
    endloop
  endfacet
  facet normal 0 0 -1
    outer loop
      vertex -42 32 0
      vertex -41.9021 31.382 0
      vertex -41.9563 31.5842 0
    endloop
  endfacet
  facet normal 0 0 -1
    outer loop
      vertex -42 32 0
      vertex -41.9563 31.5842 0
      vertex -41.989 31.7909 0
    endloop
  endfacet
  facet normal 0 0 -1
    outer loop
      vertex -42 43.25 0
      vertex -40 36 0
      vertex -42 32 0
    endloop
  endfacet
  facet normal 0 0 -1
    outer loop
      vertex -40 36 0
      vertex -42 43.25 0
      vertex -40 43.25 0
    endloop
  endfacet
  facet normal 0 0 -1
    outer loop
      vertex -21.5 36 0
      vertex -12 40 0
      vertex -12 36 0
    endloop
  endfacet
  facet normal 0 0 -1
    outer loop
      vertex -33.5 40 0
      vertex -21.5 36 0
      vertex -33.5 36 0
    endloop
  endfacet
  facet normal 0 0 -1
    outer loop
      vertex -21.5 36 0
      vertex -33.5 40 0
      vertex -12 40 0
    endloop
  endfacet
  facet normal 0 0 -1
    outer loop
      vertex -42 46.75 0
      vertex -40 54 0
      vertex -40 46.75 0
    endloop
  endfacet
  facet normal -0 0 -1
    outer loop
      vertex -40 54 0
      vertex -42 46.75 0
      vertex -42 54 0
    endloop
  endfacet
  facet normal -0.156415 -0.987691 0
    outer loop
      vertex -40.4158 30.0437 0
      vertex -40.209 30.011 183
      vertex -40.4158 30.0437 183
    endloop
  endfacet
  facet normal -0.156415 -0.987691 -0
    outer loop
      vertex -40.209 30.011 183
      vertex -40.4158 30.0437 0
      vertex -40.209 30.011 0
    endloop
  endfacet
  facet normal -0.258828 -0.965923 0
    outer loop
      vertex -40.618 30.0979 0
      vertex -40.4158 30.0437 183
      vertex -40.618 30.0979 183
    endloop
  endfacet
  facet normal -0.258828 -0.965923 -0
    outer loop
      vertex -40.4158 30.0437 183
      vertex -40.618 30.0979 0
      vertex -40.4158 30.0437 0
    endloop
  endfacet
  facet normal -0.358334 -0.933593 0
    outer loop
      vertex -40.8135 30.1729 0
      vertex -40.618 30.0979 183
      vertex -40.8135 30.1729 183
    endloop
  endfacet
  facet normal -0.358334 -0.933593 -0
    outer loop
      vertex -40.618 30.0979 183
      vertex -40.8135 30.1729 0
      vertex -40.618 30.0979 0
    endloop
  endfacet
  facet normal -0.453993 -0.891005 0
    outer loop
      vertex -41 30.2679 0
      vertex -40.8135 30.1729 183
      vertex -41 30.2679 183
    endloop
  endfacet
  facet normal -0.453993 -0.891005 -0
    outer loop
      vertex -40.8135 30.1729 183
      vertex -41 30.2679 0
      vertex -40.8135 30.1729 0
    endloop
  endfacet
  facet normal -0.544635 -0.838673 0
    outer loop
      vertex -41.1756 30.382 0
      vertex -41 30.2679 183
      vertex -41.1756 30.382 183
    endloop
  endfacet
  facet normal -0.544635 -0.838673 -0
    outer loop
      vertex -41 30.2679 183
      vertex -41.1756 30.382 0
      vertex -41 30.2679 0
    endloop
  endfacet
  facet normal -0.629324 -0.777143 0
    outer loop
      vertex -41.3383 30.5137 0
      vertex -41.1756 30.382 183
      vertex -41.3383 30.5137 183
    endloop
  endfacet
  facet normal -0.629324 -0.777143 -0
    outer loop
      vertex -41.1756 30.382 183
      vertex -41.3383 30.5137 0
      vertex -41.1756 30.382 0
    endloop
  endfacet
  facet normal -0.707107 -0.707107 0
    outer loop
      vertex -41.3383 30.5137 0
      vertex -41.4863 30.6617 183
      vertex -41.4863 30.6617 0
    endloop
  endfacet
  facet normal -0.707107 -0.707107 0
    outer loop
      vertex -41.4863 30.6617 183
      vertex -41.3383 30.5137 0
      vertex -41.3383 30.5137 183
    endloop
  endfacet
  facet normal -0.777143 -0.629324 0
    outer loop
      vertex -41.4863 30.6617 0
      vertex -41.618 30.8244 183
      vertex -41.618 30.8244 0
    endloop
  endfacet
  facet normal -0.777143 -0.629324 0
    outer loop
      vertex -41.618 30.8244 183
      vertex -41.4863 30.6617 0
      vertex -41.4863 30.6617 183
    endloop
  endfacet
  facet normal -0.838695 -0.544601 0
    outer loop
      vertex -41.618 30.8244 0
      vertex -41.732 31 183
      vertex -41.732 31 0
    endloop
  endfacet
  facet normal -0.838695 -0.544601 0
    outer loop
      vertex -41.732 31 183
      vertex -41.618 30.8244 0
      vertex -41.618 30.8244 183
    endloop
  endfacet
  facet normal -0.89099 -0.454023 0
    outer loop
      vertex -41.732 31 0
      vertex -41.8271 31.1865 183
      vertex -41.8271 31.1865 0
    endloop
  endfacet
  facet normal -0.89099 -0.454023 0
    outer loop
      vertex -41.8271 31.1865 183
      vertex -41.732 31 0
      vertex -41.732 31 183
    endloop
  endfacet
  facet normal -0.933593 -0.358334 0
    outer loop
      vertex -41.8271 31.1865 0
      vertex -41.9021 31.382 183
      vertex -41.9021 31.382 0
    endloop
  endfacet
  facet normal -0.933593 -0.358334 0
    outer loop
      vertex -41.9021 31.382 183
      vertex -41.8271 31.1865 0
      vertex -41.8271 31.1865 183
    endloop
  endfacet
  facet normal -0.965923 -0.258828 0
    outer loop
      vertex -41.9021 31.382 0
      vertex -41.9563 31.5842 183
      vertex -41.9563 31.5842 0
    endloop
  endfacet
  facet normal -0.965923 -0.258828 0
    outer loop
      vertex -41.9563 31.5842 183
      vertex -41.9021 31.382 0
      vertex -41.9021 31.382 183
    endloop
  endfacet
  facet normal -0.987691 -0.156415 0
    outer loop
      vertex -41.9563 31.5842 0
      vertex -41.989 31.7909 183
      vertex -41.989 31.7909 0
    endloop
  endfacet
  facet normal -0.987691 -0.156415 0
    outer loop
      vertex -41.989 31.7909 183
      vertex -41.9563 31.5842 0
      vertex -41.9563 31.5842 183
    endloop
  endfacet
  facet normal -0.998626 -0.0524058 0
    outer loop
      vertex -41.989 31.7909 0
      vertex -42 32 183
      vertex -42 32 0
    endloop
  endfacet
  facet normal -0.998626 -0.0524058 0
    outer loop
      vertex -42 32 183
      vertex -41.989 31.7909 0
      vertex -41.989 31.7909 183
    endloop
  endfacet
  facet normal -1 0 0
    outer loop
      vertex -42 46.4158 1.02862
      vertex -42 54 0
      vertex -42 46.6643 0.540779
    endloop
  endfacet
  facet normal -1 0 0
    outer loop
      vertex -42 54 0
      vertex -42 46.6643 121.459
      vertex -42 46.75 122
    endloop
  endfacet
  facet normal -1 0 0
    outer loop
      vertex -42 46.0286 1.41578
      vertex -42 54 0
      vertex -42 46.4158 1.02862
    endloop
  endfacet
  facet normal -1 0 0
    outer loop
      vertex -42 54 0
      vertex -42 46.4158 120.971
      vertex -42 46.6643 121.459
    endloop
  endfacet
  facet normal -1 0 0
    outer loop
      vertex -42 45.5408 1.66435
      vertex -42 54 0
      vertex -42 46.0286 1.41578
    endloop
  endfacet
  facet normal -1 0 0
    outer loop
      vertex -42 54 0
      vertex -42 46.0286 120.584
      vertex -42 46.4158 120.971
    endloop
  endfacet
  facet normal -1 0 0
    outer loop
      vertex -42 45.5408 120.336
      vertex -42 54 0
      vertex -42 45.5408 1.66435
    endloop
  endfacet
  facet normal -1 0 0
    outer loop
      vertex -42 54 0
      vertex -42 45.5408 120.336
      vertex -42 46.0286 120.584
    endloop
  endfacet
  facet normal -1 0 0
    outer loop
      vertex -42 45 1.75
      vertex -42 45.5408 120.336
      vertex -42 45.5408 1.66435
    endloop
  endfacet
  facet normal -1 0 0
    outer loop
      vertex -42 45 1.75
      vertex -42 45 120.25
      vertex -42 45.5408 120.336
    endloop
  endfacet
  facet normal -1 0 0
    outer loop
      vertex -42 44.4592 1.66435
      vertex -42 45 120.25
      vertex -42 45 1.75
    endloop
  endfacet
  facet normal -1 0 0
    outer loop
      vertex -42 44.4592 1.66435
      vertex -42 44.4592 120.336
      vertex -42 45 120.25
    endloop
  endfacet
  facet normal -1 0 0
    outer loop
      vertex -42 32 0
      vertex -42 44.4592 1.66435
      vertex -42 43.9714 1.41578
    endloop
  endfacet
  facet normal -1 -0 0
    outer loop
      vertex -42 44.4592 1.66435
      vertex -42 32 0
      vertex -42 44.4592 120.336
    endloop
  endfacet
  facet normal -1 0 0
    outer loop
      vertex -42 32 0
      vertex -42 43.9714 1.41578
      vertex -42 43.5842 1.02862
    endloop
  endfacet
  facet normal -1 -0 0
    outer loop
      vertex -42 44.4592 120.336
      vertex -42 32 0
      vertex -42 43.9714 120.584
    endloop
  endfacet
  facet normal -1 0 0
    outer loop
      vertex -42 32 0
      vertex -42 43.5842 1.02862
      vertex -42 43.3357 0.540779
    endloop
  endfacet
  facet normal -1 -0 0
    outer loop
      vertex -42 43.9714 120.584
      vertex -42 32 0
      vertex -42 43.5842 120.971
    endloop
  endfacet
  facet normal -1 0 0
    outer loop
      vertex -42 32 0
      vertex -42 43.3357 0.540779
      vertex -42 43.25 0
    endloop
  endfacet
  facet normal -1 -0 0
    outer loop
      vertex -42 43.5842 120.971
      vertex -42 32 0
      vertex -42 43.3357 121.459
    endloop
  endfacet
  facet normal -1 -0 0
    outer loop
      vertex -42 43.3357 121.459
      vertex -42 32 0
      vertex -42 43.25 122
    endloop
  endfacet
  facet normal -1 0 0
    outer loop
      vertex -42 46.6643 0.540779
      vertex -42 54 0
      vertex -42 46.75 0
    endloop
  endfacet
  facet normal -1 0 0
    outer loop
      vertex -42 54 0
      vertex -42 46.75 122
      vertex -42 54 183
    endloop
  endfacet
  facet normal -1 0 0
    outer loop
      vertex -42 46.6643 122.541
      vertex -42 54 183
      vertex -42 46.75 122
    endloop
  endfacet
  facet normal -1 0 0
    outer loop
      vertex -42 46.4158 123.029
      vertex -42 54 183
      vertex -42 46.6643 122.541
    endloop
  endfacet
  facet normal -1 0 0
    outer loop
      vertex -42 46.0286 123.416
      vertex -42 54 183
      vertex -42 46.4158 123.029
    endloop
  endfacet
  facet normal -1 0 0
    outer loop
      vertex -42 45.5408 123.664
      vertex -42 54 183
      vertex -42 46.0286 123.416
    endloop
  endfacet
  facet normal -1 0 0
    outer loop
      vertex -42 45 123.75
      vertex -42 54 183
      vertex -42 45.5408 123.664
    endloop
  endfacet
  facet normal -1 0 0
    outer loop
      vertex -42 32 183
      vertex -42 45 123.75
      vertex -42 44.4592 123.664
    endloop
  endfacet
  facet normal -1 0 0
    outer loop
      vertex -42 32 183
      vertex -42 44.4592 123.664
      vertex -42 43.9714 123.416
    endloop
  endfacet
  facet normal -1 0 0
    outer loop
      vertex -42 32 183
      vertex -42 43.9714 123.416
      vertex -42 43.5842 123.029
    endloop
  endfacet
  facet normal -1 0 0
    outer loop
      vertex -42 32 183
      vertex -42 43.5842 123.029
      vertex -42 43.3357 122.541
    endloop
  endfacet
  facet normal -1 0 0
    outer loop
      vertex -42 45 123.75
      vertex -42 32 183
      vertex -42 54 183
    endloop
  endfacet
  facet normal -1 0 0
    outer loop
      vertex -42 43.25 122
      vertex -42 32 183
      vertex -42 43.3357 122.541
    endloop
  endfacet
  facet normal -1 0 0
    outer loop
      vertex -42 32 183
      vertex -42 43.25 122
      vertex -42 32 0
    endloop
  endfacet
  facet normal 0 1 -0
    outer loop
      vertex -40 54 0
      vertex -42 54 183
      vertex -40 54 183
    endloop
  endfacet
  facet normal 0 1 0
    outer loop
      vertex -42 54 183
      vertex -40 54 0
      vertex -42 54 0
    endloop
  endfacet
  facet normal 1 0 0
    outer loop
      vertex -40 54 183
      vertex -40 46.75 122
      vertex -40 54 0
    endloop
  endfacet
  facet normal 1 0 0
    outer loop
      vertex -40 54 183
      vertex -40 46.6643 122.541
      vertex -40 46.75 122
    endloop
  endfacet
  facet normal 1 0 0
    outer loop
      vertex -40 54 183
      vertex -40 46.4158 123.029
      vertex -40 46.6643 122.541
    endloop
  endfacet
  facet normal 1 0 0
    outer loop
      vertex -40 54 183
      vertex -40 46.0286 123.416
      vertex -40 46.4158 123.029
    endloop
  endfacet
  facet normal 1 0 0
    outer loop
      vertex -40 54 183
      vertex -40 45.5408 123.664
      vertex -40 46.0286 123.416
    endloop
  endfacet
  facet normal 1 0 0
    outer loop
      vertex -40 54 183
      vertex -40 45 123.75
      vertex -40 45.5408 123.664
    endloop
  endfacet
  facet normal 1 -0 0
    outer loop
      vertex -40 36 183
      vertex -40 45 123.75
      vertex -40 54 183
    endloop
  endfacet
  facet normal 1 0 0
    outer loop
      vertex -40 45 123.75
      vertex -40 36 183
      vertex -40 44.4592 123.664
    endloop
  endfacet
  facet normal 1 0 0
    outer loop
      vertex -40 44.4592 123.664
      vertex -40 36 183
      vertex -40 43.9714 123.416
    endloop
  endfacet
  facet normal 1 0 0
    outer loop
      vertex -40 43.9714 123.416
      vertex -40 36 183
      vertex -40 43.5842 123.029
    endloop
  endfacet
  facet normal 1 0 0
    outer loop
      vertex -40 43.5842 123.029
      vertex -40 36 183
      vertex -40 43.3357 122.541
    endloop
  endfacet
  facet normal 1 0 0
    outer loop
      vertex -40 36 183
      vertex -40 43.25 122
      vertex -40 43.3357 122.541
    endloop
  endfacet
  facet normal 1 0 0
    outer loop
      vertex -40 36 0
      vertex -40 43.25 122
      vertex -40 36 183
    endloop
  endfacet
  facet normal 1 0 0
    outer loop
      vertex -40 43.25 122
      vertex -40 36 0
      vertex -40 43.25 0
    endloop
  endfacet
  facet normal 1 -0 0
    outer loop
      vertex -40 46.6643 121.459
      vertex -40 54 0
      vertex -40 46.75 122
    endloop
  endfacet
  facet normal 1 -0 0
    outer loop
      vertex -40 46.4158 120.971
      vertex -40 54 0
      vertex -40 46.6643 121.459
    endloop
  endfacet
  facet normal 1 0 0
    outer loop
      vertex -40 54 0
      vertex -40 46.6643 0.540779
      vertex -40 46.75 0
    endloop
  endfacet
  facet normal 1 -0 0
    outer loop
      vertex -40 46.0286 120.584
      vertex -40 54 0
      vertex -40 46.4158 120.971
    endloop
  endfacet
  facet normal 1 0 0
    outer loop
      vertex -40 54 0
      vertex -40 46.4158 1.02862
      vertex -40 46.6643 0.540779
    endloop
  endfacet
  facet normal 1 -0 0
    outer loop
      vertex -40 45.5408 120.336
      vertex -40 54 0
      vertex -40 46.0286 120.584
    endloop
  endfacet
  facet normal 1 0 0
    outer loop
      vertex -40 54 0
      vertex -40 46.0286 1.41578
      vertex -40 46.4158 1.02862
    endloop
  endfacet
  facet normal 1 -0 0
    outer loop
      vertex -40 45.5408 1.66435
      vertex -40 54 0
      vertex -40 45.5408 120.336
    endloop
  endfacet
  facet normal 1 0 0
    outer loop
      vertex -40 54 0
      vertex -40 45.5408 1.66435
      vertex -40 46.0286 1.41578
    endloop
  endfacet
  facet normal 1 -0 0
    outer loop
      vertex -40 45 120.25
      vertex -40 45.5408 1.66435
      vertex -40 45.5408 120.336
    endloop
  endfacet
  facet normal 1 0 0
    outer loop
      vertex -40 45 120.25
      vertex -40 45 1.75
      vertex -40 45.5408 1.66435
    endloop
  endfacet
  facet normal 1 0 0
    outer loop
      vertex -40 44.4592 120.336
      vertex -40 45 1.75
      vertex -40 45 120.25
    endloop
  endfacet
  facet normal 1 0 0
    outer loop
      vertex -40 44.4592 120.336
      vertex -40 44.4592 1.66435
      vertex -40 45 1.75
    endloop
  endfacet
  facet normal 1 0 0
    outer loop
      vertex -40 43.9714 120.584
      vertex -40 44.4592 1.66435
      vertex -40 44.4592 120.336
    endloop
  endfacet
  facet normal 1 0 0
    outer loop
      vertex -40 43.9714 120.584
      vertex -40 43.9714 1.41578
      vertex -40 44.4592 1.66435
    endloop
  endfacet
  facet normal 1 0 0
    outer loop
      vertex -40 43.5842 120.971
      vertex -40 43.9714 1.41578
      vertex -40 43.9714 120.584
    endloop
  endfacet
  facet normal 1 0 0
    outer loop
      vertex -40 43.5842 120.971
      vertex -40 43.5842 1.02862
      vertex -40 43.9714 1.41578
    endloop
  endfacet
  facet normal 1 0 0
    outer loop
      vertex -40 43.3357 121.459
      vertex -40 43.5842 1.02862
      vertex -40 43.5842 120.971
    endloop
  endfacet
  facet normal 1 0 0
    outer loop
      vertex -40 43.3357 121.459
      vertex -40 43.3357 0.540779
      vertex -40 43.5842 1.02862
    endloop
  endfacet
  facet normal 1 0 0
    outer loop
      vertex -40 43.25 122
      vertex -40 43.3357 0.540779
      vertex -40 43.3357 121.459
    endloop
  endfacet
  facet normal 1 0 0
    outer loop
      vertex -40 43.3357 0.540779
      vertex -40 43.25 122
      vertex -40 43.25 0
    endloop
  endfacet
  facet normal 0 1 -0
    outer loop
      vertex -33.5 36 0
      vertex -40 36 183
      vertex -33.5 36 183
    endloop
  endfacet
  facet normal 0 1 0
    outer loop
      vertex -40 36 183
      vertex -33.5 36 0
      vertex -40 36 0
    endloop
  endfacet
  facet normal -1 0 0
    outer loop
      vertex -33.5 36 0
      vertex -33.5 40 183
      vertex -33.5 40 0
    endloop
  endfacet
  facet normal -1 -0 0
    outer loop
      vertex -33.5 40 183
      vertex -33.5 36 0
      vertex -33.5 36 183
    endloop
  endfacet
  facet normal 0 1 -0
    outer loop
      vertex -12 40 165
      vertex -33.5 40 183
      vertex -12 40 183
    endloop
  endfacet
  facet normal 0 1 -0
    outer loop
      vertex -12 40 135
      vertex -33.5 40 183
      vertex -12 40 165
    endloop
  endfacet
  facet normal 0 1 -0
    outer loop
      vertex -12 40 105
      vertex -33.5 40 183
      vertex -12 40 135
    endloop
  endfacet
  facet normal 0 1 0
    outer loop
      vertex -33.5 40 0
      vertex -12 40 105
      vertex -12 40 75
    endloop
  endfacet
  facet normal 0 1 0
    outer loop
      vertex -33.5 40 0
      vertex -12 40 75
      vertex -12 40 45
    endloop
  endfacet
  facet normal 0 1 0
    outer loop
      vertex -33.5 40 0
      vertex -12 40 45
      vertex -12 40 15
    endloop
  endfacet
  facet normal 0 1 0
    outer loop
      vertex -33.5 40 0
      vertex -12 40 15
      vertex -12 40 0
    endloop
  endfacet
  facet normal 0 1 0
    outer loop
      vertex -12 40 105
      vertex -33.5 40 0
      vertex -33.5 40 183
    endloop
  endfacet
  facet normal 1 0 0
    outer loop
      vertex -12 40 183
      vertex -12 39.6066 165
      vertex -12 40 165
    endloop
  endfacet
  facet normal 1 0 0
    outer loop
      vertex -12 36 183
      vertex -12 39.388 155
      vertex -12 39.6066 165
    endloop
  endfacet
  facet normal 1 0 0
    outer loop
      vertex -12 39.388 155
      vertex -12 36 183
      vertex -12 38.9508 135
    endloop
  endfacet
  facet normal 1 0 0
    outer loop
      vertex -12 36 183
      vertex -12 38.2951 105
      vertex -12 38.7322 125
    endloop
  endfacet
  facet normal 1 0 0
    outer loop
      vertex -12 38.9508 135
      vertex -12 36 183
      vertex -12 38.7322 125
    endloop
  endfacet
  facet normal 1 1.04904e-006 2.47539e-008
    outer loop
      vertex -12 36 183
      vertex -12 37.6393 75
      vertex -12 38.0765 95
    endloop
  endfacet
  facet normal 1 -2.38419e-007 5.21133e-009
    outer loop
      vertex -12 37.6393 75
      vertex -12 36 183
      vertex -12 37.4208 65
    endloop
  endfacet
  facet normal 1 -2.38419e-007 5.21133e-009
    outer loop
      vertex -12 37.4208 65
      vertex -12 36 183
      vertex -12 36.9836 45
    endloop
  endfacet
  facet normal 1 0 0
    outer loop
      vertex -12 36.765 35
      vertex -12 36.1093 5
      vertex -12 36.3279 15
    endloop
  endfacet
  facet normal 1 -2.38416e-007 5.21135e-009
    outer loop
      vertex -12 36.9836 45
      vertex -12 36 183
      vertex -12 36.765 35
    endloop
  endfacet
  facet normal 1 -2.38418e-007 5.21134e-009
    outer loop
      vertex -12 36.765 35
      vertex -12 36 183
      vertex -12 36.1093 5
    endloop
  endfacet
  facet normal 1 0 0
    outer loop
      vertex -12 38.2951 105
      vertex -12 36 183
      vertex -12 38.0765 95
    endloop
  endfacet
  facet normal 1 -0 0
    outer loop
      vertex -12 36 183
      vertex -12 39.6066 165
      vertex -12 40 183
    endloop
  endfacet
  facet normal 1 -0 0
    outer loop
      vertex -12 39.388 155
      vertex -12 40 135
      vertex -12 40 155
    endloop
  endfacet
  facet normal 1 0 0
    outer loop
      vertex -12 40 135
      vertex -12 39.388 155
      vertex -12 38.9508 135
    endloop
  endfacet
  facet normal 1 -0 0
    outer loop
      vertex -12 38.7322 125
      vertex -12 40 105
      vertex -12 40 125
    endloop
  endfacet
  facet normal 1 0 0
    outer loop
      vertex -12 40 105
      vertex -12 38.7322 125
      vertex -12 38.2951 105
    endloop
  endfacet
  facet normal 1 -0 4.76837e-008
    outer loop
      vertex -12 38.0765 95
      vertex -12 40 75
      vertex -12 40 95
    endloop
  endfacet
  facet normal 1 0 4.76837e-008
    outer loop
      vertex -12 40 75
      vertex -12 38.0765 95
      vertex -12 37.6393 75
    endloop
  endfacet
  facet normal 1 -0 0
    outer loop
      vertex -12 37.4208 65
      vertex -12 40 45
      vertex -12 40 65
    endloop
  endfacet
  facet normal 1 0 0
    outer loop
      vertex -12 40 45
      vertex -12 37.4208 65
      vertex -12 36.9836 45
    endloop
  endfacet
  facet normal 1 -0 0
    outer loop
      vertex -12 36.765 35
      vertex -12 40 15
      vertex -12 40 35
    endloop
  endfacet
  facet normal 1 0 0
    outer loop
      vertex -12 40 15
      vertex -12 36.765 35
      vertex -12 36.3279 15
    endloop
  endfacet
  facet normal 1 -0 0
    outer loop
      vertex -12 36.1093 5
      vertex -12 40 0
      vertex -12 40 5
    endloop
  endfacet
  facet normal 1 0 0
    outer loop
      vertex -12 36.1093 5
      vertex -12 36 0
      vertex -12 40 0
    endloop
  endfacet
  facet normal 1 -2.38424e-007 5.21134e-009
    outer loop
      vertex -12 36 0
      vertex -12 36.1093 5
      vertex -12 36 183
    endloop
  endfacet
  facet normal 0 0 0
    outer loop
      vertex -12 40 5
      vertex -12 40 0
      vertex -12 40 15
    endloop
  endfacet
  facet normal 0 0 0
    outer loop
      vertex -12 40 35
      vertex -12 40 15
      vertex -12 40 45
    endloop
  endfacet
  facet normal 0 0 0
    outer loop
      vertex -12 40 65
      vertex -12 40 45
      vertex -12 40 75
    endloop
  endfacet
  facet normal 0 -1 0
    outer loop
      vertex -12 40 95
      vertex -12 40 75
      vertex -12 40 105
    endloop
  endfacet
  facet normal 0 0 0
    outer loop
      vertex -12 40 165
      vertex -12 40 155
      vertex -12 40 135
    endloop
  endfacet
  facet normal 0 0 0
    outer loop
      vertex -12 40 105
      vertex -12 40 135
      vertex -12 40 125
    endloop
  endfacet
  facet normal 0 -1 0
    outer loop
      vertex -21.5 36 0
      vertex -12 36 183
      vertex -21.5 36 183
    endloop
  endfacet
  facet normal 0 -1 -0
    outer loop
      vertex -12 36 183
      vertex -21.5 36 0
      vertex -12 36 0
    endloop
  endfacet
  facet normal 1 -0 0
    outer loop
      vertex -21.5 32 183
      vertex -21.5 36 0
      vertex -21.5 36 183
    endloop
  endfacet
  facet normal 1 0 0
    outer loop
      vertex -21.5 36 0
      vertex -21.5 32 183
      vertex -21.5 32 0
    endloop
  endfacet
  facet normal 0 1 0
    outer loop
      vertex -4 32 0
      vertex -21.5 32 183
      vertex -4 32 183
    endloop
  endfacet
  facet normal 0 1 0
    outer loop
      vertex -21.5 32 183
      vertex -4 32 0
      vertex -21.5 32 0
    endloop
  endfacet
  facet normal 1 -0 5.21134e-009
    outer loop
      vertex -4 30 183
      vertex -4 32 0
      vertex -4 32 183
    endloop
  endfacet
  facet normal 1 0 5.21134e-009
    outer loop
      vertex -4 32 0
      vertex -4 30 183
      vertex -4 30 0
    endloop
  endfacet
  facet normal 0 -1 0
    outer loop
      vertex -40 30 0
      vertex -4 30 183
      vertex -40 30 183
    endloop
  endfacet
  facet normal 0 -1 -0
    outer loop
      vertex -4 30 183
      vertex -40 30 0
      vertex -4 30 0
    endloop
  endfacet
  facet normal -0.0523369 -0.998629 0
    outer loop
      vertex -40.209 30.011 0
      vertex -40 30 183
      vertex -40.209 30.011 183
    endloop
  endfacet
  facet normal -0.0523369 -0.998629 -0
    outer loop
      vertex -40 30 183
      vertex -40.209 30.011 0
      vertex -40 30 0
    endloop
  endfacet
  facet normal 0 -0.156435 -0.987688
    outer loop
      vertex -42 45 1.75
      vertex -40 45.5408 1.66435
      vertex -40 45 1.75
    endloop
  endfacet
  facet normal -0 -0.156435 -0.987688
    outer loop
      vertex -40 45.5408 1.66435
      vertex -42 45 1.75
      vertex -42 45.5408 1.66435
    endloop
  endfacet
  facet normal 0 0.987688 -0.156435
    outer loop
      vertex -40 43.25 0
      vertex -42 43.3357 0.540779
      vertex -40 43.3357 0.540779
    endloop
  endfacet
  facet normal 0 0.987688 -0.156435
    outer loop
      vertex -42 43.3357 0.540779
      vertex -40 43.25 0
      vertex -42 43.25 0
    endloop
  endfacet
  facet normal 0 0.45399 -0.891007
    outer loop
      vertex -42 43.9714 1.41578
      vertex -40 44.4592 1.66435
      vertex -40 43.9714 1.41578
    endloop
  endfacet
  facet normal 0 0.45399 -0.891007
    outer loop
      vertex -40 44.4592 1.66435
      vertex -42 43.9714 1.41578
      vertex -42 44.4592 1.66435
    endloop
  endfacet
  facet normal 0 -0.891006 -0.453991
    outer loop
      vertex -42 46.6643 0.540779
      vertex -40 46.4158 1.02862
      vertex -42 46.4158 1.02862
    endloop
  endfacet
  facet normal 0 -0.891006 -0.453991
    outer loop
      vertex -40 46.4158 1.02862
      vertex -42 46.6643 0.540779
      vertex -40 46.6643 0.540779
    endloop
  endfacet
  facet normal 0 -0.707109 -0.707105
    outer loop
      vertex -42 46.4158 1.02862
      vertex -40 46.0286 1.41578
      vertex -42 46.0286 1.41578
    endloop
  endfacet
  facet normal 0 -0.707109 -0.707105
    outer loop
      vertex -40 46.0286 1.41578
      vertex -42 46.4158 1.02862
      vertex -40 46.4158 1.02862
    endloop
  endfacet
  facet normal 0 -0.987688 -0.156435
    outer loop
      vertex -42 46.75 0
      vertex -40 46.6643 0.540779
      vertex -42 46.6643 0.540779
    endloop
  endfacet
  facet normal 0 -0.987688 -0.156435
    outer loop
      vertex -40 46.6643 0.540779
      vertex -42 46.75 0
      vertex -40 46.75 0
    endloop
  endfacet
  facet normal 0 0.707109 -0.707105
    outer loop
      vertex -40 43.5842 1.02862
      vertex -42 43.9714 1.41578
      vertex -40 43.9714 1.41578
    endloop
  endfacet
  facet normal 0 0.707109 -0.707105
    outer loop
      vertex -42 43.9714 1.41578
      vertex -40 43.5842 1.02862
      vertex -42 43.5842 1.02862
    endloop
  endfacet
  facet normal 0 0.156435 -0.987688
    outer loop
      vertex -42 44.4592 1.66435
      vertex -40 45 1.75
      vertex -40 44.4592 1.66435
    endloop
  endfacet
  facet normal 0 0.156435 -0.987688
    outer loop
      vertex -40 45 1.75
      vertex -42 44.4592 1.66435
      vertex -42 45 1.75
    endloop
  endfacet
  facet normal 0 -0.45399 -0.891007
    outer loop
      vertex -42 45.5408 1.66435
      vertex -40 46.0286 1.41578
      vertex -40 45.5408 1.66435
    endloop
  endfacet
  facet normal -0 -0.45399 -0.891007
    outer loop
      vertex -40 46.0286 1.41578
      vertex -42 45.5408 1.66435
      vertex -42 46.0286 1.41578
    endloop
  endfacet
  facet normal 0 0.891006 -0.453991
    outer loop
      vertex -40 43.3357 0.540779
      vertex -42 43.5842 1.02862
      vertex -40 43.5842 1.02862
    endloop
  endfacet
  facet normal 0 0.891006 -0.453991
    outer loop
      vertex -42 43.5842 1.02862
      vertex -40 43.3357 0.540779
      vertex -42 43.3357 0.540779
    endloop
  endfacet
  facet normal 0 -0.156428 0.987689
    outer loop
      vertex -42 45.5408 120.336
      vertex -40 45 120.25
      vertex -40 45.5408 120.336
    endloop
  endfacet
  facet normal 0 -0.156428 0.987689
    outer loop
      vertex -40 45 120.25
      vertex -42 45.5408 120.336
      vertex -42 45 120.25
    endloop
  endfacet
  facet normal 0 -0.156428 -0.987689
    outer loop
      vertex -42 45 123.75
      vertex -40 45.5408 123.664
      vertex -40 45 123.75
    endloop
  endfacet
  facet normal -0 -0.156428 -0.987689
    outer loop
      vertex -40 45.5408 123.664
      vertex -42 45 123.75
      vertex -42 45.5408 123.664
    endloop
  endfacet
  facet normal 0 0.987688 -0.156435
    outer loop
      vertex -40 43.25 122
      vertex -42 43.3357 122.541
      vertex -40 43.3357 122.541
    endloop
  endfacet
  facet normal 0 0.987688 -0.156435
    outer loop
      vertex -42 43.3357 122.541
      vertex -40 43.25 122
      vertex -42 43.25 122
    endloop
  endfacet
  facet normal 0 0.453995 -0.891004
    outer loop
      vertex -42 43.9714 123.416
      vertex -40 44.4592 123.664
      vertex -40 43.9714 123.416
    endloop
  endfacet
  facet normal 0 0.453995 -0.891004
    outer loop
      vertex -40 44.4592 123.664
      vertex -42 43.9714 123.416
      vertex -42 44.4592 123.664
    endloop
  endfacet
  facet normal 0 -0.453995 0.891004
    outer loop
      vertex -42 46.0286 120.584
      vertex -40 45.5408 120.336
      vertex -40 46.0286 120.584
    endloop
  endfacet
  facet normal 0 -0.453995 0.891004
    outer loop
      vertex -40 45.5408 120.336
      vertex -42 46.0286 120.584
      vertex -42 45.5408 120.336
    endloop
  endfacet
  facet normal 0 -0.891007 0.45399
    outer loop
      vertex -42 46.4158 120.971
      vertex -40 46.6643 121.459
      vertex -42 46.6643 121.459
    endloop
  endfacet
  facet normal 0 -0.891007 0.45399
    outer loop
      vertex -40 46.6643 121.459
      vertex -42 46.4158 120.971
      vertex -40 46.4158 120.971
    endloop
  endfacet
  facet normal 0 -0.891007 -0.45399
    outer loop
      vertex -42 46.6643 122.541
      vertex -40 46.4158 123.029
      vertex -42 46.4158 123.029
    endloop
  endfacet
  facet normal 0 -0.891007 -0.45399
    outer loop
      vertex -40 46.4158 123.029
      vertex -42 46.6643 122.541
      vertex -40 46.6643 122.541
    endloop
  endfacet
  facet normal 0 -0.707107 -0.707107
    outer loop
      vertex -42 46.4158 123.029
      vertex -40 46.0286 123.416
      vertex -42 46.0286 123.416
    endloop
  endfacet
  facet normal 0 -0.707107 -0.707107
    outer loop
      vertex -40 46.0286 123.416
      vertex -42 46.4158 123.029
      vertex -40 46.4158 123.029
    endloop
  endfacet
  facet normal 0 -0.987688 -0.156435
    outer loop
      vertex -42 46.75 122
      vertex -40 46.6643 122.541
      vertex -42 46.6643 122.541
    endloop
  endfacet
  facet normal 0 -0.987688 -0.156435
    outer loop
      vertex -40 46.6643 122.541
      vertex -42 46.75 122
      vertex -40 46.75 122
    endloop
  endfacet
  facet normal 0 0.987688 0.156435
    outer loop
      vertex -40 43.3357 121.459
      vertex -42 43.25 122
      vertex -40 43.25 122
    endloop
  endfacet
  facet normal 0 0.987688 0.156435
    outer loop
      vertex -42 43.25 122
      vertex -40 43.3357 121.459
      vertex -42 43.3357 121.459
    endloop
  endfacet
  facet normal -0 0.453995 0.891004
    outer loop
      vertex -42 44.4592 120.336
      vertex -40 43.9714 120.584
      vertex -40 44.4592 120.336
    endloop
  endfacet
  facet normal 0 0.453995 0.891004
    outer loop
      vertex -40 43.9714 120.584
      vertex -42 44.4592 120.336
      vertex -42 43.9714 120.584
    endloop
  endfacet
  facet normal 0 0.707107 -0.707107
    outer loop
      vertex -40 43.5842 123.029
      vertex -42 43.9714 123.416
      vertex -40 43.9714 123.416
    endloop
  endfacet
  facet normal 0 0.707107 -0.707107
    outer loop
      vertex -42 43.9714 123.416
      vertex -40 43.5842 123.029
      vertex -42 43.5842 123.029
    endloop
  endfacet
  facet normal 0 0.156428 -0.987689
    outer loop
      vertex -42 44.4592 123.664
      vertex -40 45 123.75
      vertex -40 44.4592 123.664
    endloop
  endfacet
  facet normal 0 0.156428 -0.987689
    outer loop
      vertex -40 45 123.75
      vertex -42 44.4592 123.664
      vertex -42 45 123.75
    endloop
  endfacet
  facet normal 0 -0.707107 0.707107
    outer loop
      vertex -42 46.0286 120.584
      vertex -40 46.4158 120.971
      vertex -42 46.4158 120.971
    endloop
  endfacet
  facet normal 0 -0.707107 0.707107
    outer loop
      vertex -40 46.4158 120.971
      vertex -42 46.0286 120.584
      vertex -40 46.0286 120.584
    endloop
  endfacet
  facet normal 0 -0.987688 0.156435
    outer loop
      vertex -42 46.6643 121.459
      vertex -40 46.75 122
      vertex -42 46.75 122
    endloop
  endfacet
  facet normal 0 -0.987688 0.156435
    outer loop
      vertex -40 46.75 122
      vertex -42 46.6643 121.459
      vertex -40 46.6643 121.459
    endloop
  endfacet
  facet normal 0 -0.453995 -0.891004
    outer loop
      vertex -42 45.5408 123.664
      vertex -40 46.0286 123.416
      vertex -40 45.5408 123.664
    endloop
  endfacet
  facet normal -0 -0.453995 -0.891004
    outer loop
      vertex -40 46.0286 123.416
      vertex -42 45.5408 123.664
      vertex -42 46.0286 123.416
    endloop
  endfacet
  facet normal -0 0.156428 0.987689
    outer loop
      vertex -42 45 120.25
      vertex -40 44.4592 120.336
      vertex -40 45 120.25
    endloop
  endfacet
  facet normal 0 0.156428 0.987689
    outer loop
      vertex -40 44.4592 120.336
      vertex -42 45 120.25
      vertex -42 44.4592 120.336
    endloop
  endfacet
  facet normal 0 0.891007 0.45399
    outer loop
      vertex -40 43.5842 120.971
      vertex -42 43.3357 121.459
      vertex -40 43.3357 121.459
    endloop
  endfacet
  facet normal 0 0.891007 0.45399
    outer loop
      vertex -42 43.3357 121.459
      vertex -40 43.5842 120.971
      vertex -42 43.5842 120.971
    endloop
  endfacet
  facet normal 0 0.891007 -0.45399
    outer loop
      vertex -40 43.3357 122.541
      vertex -42 43.5842 123.029
      vertex -40 43.5842 123.029
    endloop
  endfacet
  facet normal 0 0.891007 -0.45399
    outer loop
      vertex -42 43.5842 123.029
      vertex -40 43.3357 122.541
      vertex -42 43.3357 122.541
    endloop
  endfacet
  facet normal 0 0.707107 0.707107
    outer loop
      vertex -40 43.9714 120.584
      vertex -42 43.5842 120.971
      vertex -40 43.5842 120.971
    endloop
  endfacet
  facet normal 0 0.707107 0.707107
    outer loop
      vertex -42 43.5842 120.971
      vertex -40 43.9714 120.584
      vertex -42 43.9714 120.584
    endloop
  endfacet
endsolid OpenSCAD_Model
