solid OpenSCAD_Model
  facet normal 0 1 -9.53674e-008
    outer loop
      vertex -12 10 65
      vertex -12 10 75
      vertex -8 10 75
    endloop
  endfacet
  facet normal 0.928477 0 -0.371391
    outer loop
      vertex -8 10 75
      vertex -12 7.36842 65
      vertex -12 10 65
    endloop
  endfacet
  facet normal 0.928477 0 -0.371391
    outer loop
      vertex -12 7.36842 65
      vertex -8 10 75
      vertex -12 6 65
    endloop
  endfacet
  facet normal -1 0 0
    outer loop
      vertex -12 7.36842 65
      vertex -12 6 75
      vertex -12 7.57895 75
    endloop
  endfacet
  facet normal -1 0 -0
    outer loop
      vertex -12 6 75
      vertex -12 7.36842 65
      vertex -12 6 65
    endloop
  endfacet
  facet normal 0.928477 0 -0.371391
    outer loop
      vertex -8 6 75
      vertex -12 6 65
      vertex -8 10 75
    endloop
  endfacet
  facet normal 0 0 1
    outer loop
      vertex -12 7.57895 75
      vertex -8 10 75
      vertex -12 10 75
    endloop
  endfacet
  facet normal 0 0 1
    outer loop
      vertex -8 10 75
      vertex -12 7.57895 75
      vertex -8 6 75
    endloop
  endfacet
  facet normal 0 0 1
    outer loop
      vertex -8 6 75
      vertex -12 7.57895 75
      vertex -12 6 75
    endloop
  endfacet
  facet normal 0 -1 9.53674e-008
    outer loop
      vertex -12 6 75
      vertex -12 6 65
      vertex -8 6 75
    endloop
  endfacet
  facet normal 0 1 -9.53674e-008
    outer loop
      vertex -12 10 95
      vertex -12 10 105
      vertex -8 10 105
    endloop
  endfacet
  facet normal 0.928477 0 -0.371391
    outer loop
      vertex -8 10 105
      vertex -12 8 95
      vertex -12 10 95
    endloop
  endfacet
  facet normal 0.928477 4.42732e-007 -0.371391
    outer loop
      vertex -12 8 95
      vertex -8 10 105
      vertex -12 6 95
    endloop
  endfacet
  facet normal -1 -4.31424e-007 9.08266e-009
    outer loop
      vertex -12 8 95
      vertex -12 6 105
      vertex -12 8.21053 105
    endloop
  endfacet
  facet normal -1 -4.76837e-007 4.54747e-014
    outer loop
      vertex -12 6 105
      vertex -12 8 95
      vertex -12 6 95
    endloop
  endfacet
  facet normal 0.928477 0 -0.371391
    outer loop
      vertex -8 6 105
      vertex -12 6 95
      vertex -8 10 105
    endloop
  endfacet
  facet normal -0 0 1
    outer loop
      vertex -12 8.21053 105
      vertex -8 6 105
      vertex -8 10 105
    endloop
  endfacet
  facet normal 0 0 1
    outer loop
      vertex -12 8.21053 105
      vertex -8 10 105
      vertex -12 10 105
    endloop
  endfacet
  facet normal 0 0 1
    outer loop
      vertex -8 6 105
      vertex -12 8.21053 105
      vertex -12 6 105
    endloop
  endfacet
  facet normal 0 -1 9.53674e-008
    outer loop
      vertex -12 6 105
      vertex -12 6 95
      vertex -8 6 105
    endloop
  endfacet
  facet normal 0 1 -9.53674e-008
    outer loop
      vertex -12 10 125
      vertex -12 10 135
      vertex -8 10 135
    endloop
  endfacet
  facet normal 0.928477 0 -0.371391
    outer loop
      vertex -8 10 135
      vertex -12 8.63158 125
      vertex -12 10 125
    endloop
  endfacet
  facet normal 0.928477 3.36476e-007 -0.371391
    outer loop
      vertex -12 8.63158 125
      vertex -8 10 135
      vertex -12 6 125
    endloop
  endfacet
  facet normal -1 -3.35552e-007 7.06426e-009
    outer loop
      vertex -12 8.63158 125
      vertex -12 6 135
      vertex -12 8.8421 135
    endloop
  endfacet
  facet normal -1 -3.62396e-007 3.45608e-014
    outer loop
      vertex -12 6 135
      vertex -12 8.63158 125
      vertex -12 6 125
    endloop
  endfacet
  facet normal 0.928477 0 -0.371391
    outer loop
      vertex -8 6 135
      vertex -12 6 125
      vertex -8 10 135
    endloop
  endfacet
  facet normal 0 -1 9.53674e-008
    outer loop
      vertex -12 6 135
      vertex -12 6 125
      vertex -8 6 135
    endloop
  endfacet
  facet normal -0 0 1
    outer loop
      vertex -12 8.8421 135
      vertex -8 6 135
      vertex -8 10 135
    endloop
  endfacet
  facet normal 0 0 1
    outer loop
      vertex -12 8.8421 135
      vertex -8 10 135
      vertex -12 10 135
    endloop
  endfacet
  facet normal 0 0 1
    outer loop
      vertex -8 6 135
      vertex -12 8.8421 135
      vertex -12 6 135
    endloop
  endfacet
  facet normal 0 1 -9.53674e-008
    outer loop
      vertex -12 10 155
      vertex -12 10 165
      vertex -8 10 165
    endloop
  endfacet
  facet normal 0.928477 0 -0.371391
    outer loop
      vertex -8 10 165
      vertex -12 9.26316 155
      vertex -12 10 155
    endloop
  endfacet
  facet normal 0.928477 2.71352e-007 -0.371391
    outer loop
      vertex -12 9.26316 155
      vertex -8 10 165
      vertex -12 6 155
    endloop
  endfacet
  facet normal -1 -2.74543e-007 5.77987e-009
    outer loop
      vertex -12 9.26316 155
      vertex -12 6 165
      vertex -12 9.47368 165
    endloop
  endfacet
  facet normal -1 -2.92255e-007 2.78716e-014
    outer loop
      vertex -12 6 165
      vertex -12 9.26316 155
      vertex -12 6 155
    endloop
  endfacet
  facet normal 0.928477 0 -0.371391
    outer loop
      vertex -8 6 165
      vertex -12 6 155
      vertex -8 10 165
    endloop
  endfacet
  facet normal -0 0 1
    outer loop
      vertex -12 9.47368 165
      vertex -8 6 165
      vertex -8 10 165
    endloop
  endfacet
  facet normal 0 0 1
    outer loop
      vertex -12 9.47368 165
      vertex -8 10 165
      vertex -12 10 165
    endloop
  endfacet
  facet normal 0 0 1
    outer loop
      vertex -8 6 165
      vertex -12 9.47368 165
      vertex -12 6 165
    endloop
  endfacet
  facet normal 0 -1 9.53674e-008
    outer loop
      vertex -12 6 165
      vertex -12 6 155
      vertex -8 6 165
    endloop
  endfacet
  facet normal 0 0 1
    outer loop
      vertex -12 10 190
      vertex -21.5 6 190
      vertex -12 6 190
    endloop
  endfacet
  facet normal 0 0 1
    outer loop
      vertex -33.5 6 190
      vertex -21.5 6 190
      vertex -33.5 10 190
    endloop
  endfacet
  facet normal -0 0 1
    outer loop
      vertex -33.5 10 190
      vertex -21.5 6 190
      vertex -12 10 190
    endloop
  endfacet
  facet normal -0 0 1
    outer loop
      vertex -21.5 2 190
      vertex -4 0 190
      vertex -4 2 190
    endloop
  endfacet
  facet normal 0 0 1
    outer loop
      vertex -21.5 6 190
      vertex -33.5 6 190
      vertex -21.5 2 190
    endloop
  endfacet
  facet normal 0 0 1
    outer loop
      vertex -40 0 190
      vertex -33.5 6 190
      vertex -40 6 190
    endloop
  endfacet
  facet normal 0 0 1
    outer loop
      vertex -21.5 2 190
      vertex -40 0 190
      vertex -4 0 190
    endloop
  endfacet
  facet normal 0 0 1
    outer loop
      vertex -33.5 6 190
      vertex -40 0 190
      vertex -21.5 2 190
    endloop
  endfacet
  facet normal -0 0 1
    outer loop
      vertex -42 13.25 190
      vertex -40 6 190
      vertex -40 13.25 190
    endloop
  endfacet
  facet normal 0 0 1
    outer loop
      vertex -40 6 190
      vertex -42 2 190
      vertex -40 0 190
    endloop
  endfacet
  facet normal 0 0 1
    outer loop
      vertex -40 0 190
      vertex -42 2 190
      vertex -40.209 0.0109558 190
    endloop
  endfacet
  facet normal 0 0 1
    outer loop
      vertex -40.209 0.0109558 190
      vertex -42 2 190
      vertex -40.4158 0.0437012 190
    endloop
  endfacet
  facet normal 0 0 1
    outer loop
      vertex -40.4158 0.0437012 190
      vertex -42 2 190
      vertex -40.618 0.0978851 190
    endloop
  endfacet
  facet normal 0 0 1
    outer loop
      vertex -40.618 0.0978851 190
      vertex -42 2 190
      vertex -40.8135 0.172897 190
    endloop
  endfacet
  facet normal 0 0 1
    outer loop
      vertex -40.8135 0.172897 190
      vertex -42 2 190
      vertex -41 0.267944 190
    endloop
  endfacet
  facet normal 0 0 1
    outer loop
      vertex -41 0.267944 190
      vertex -42 2 190
      vertex -41.1756 0.381958 190
    endloop
  endfacet
  facet normal 0 0 1
    outer loop
      vertex -41.1756 0.381958 190
      vertex -42 2 190
      vertex -41.3383 0.513702 190
    endloop
  endfacet
  facet normal 0 0 1
    outer loop
      vertex -41.3383 0.513702 190
      vertex -42 2 190
      vertex -41.4863 0.661728 190
    endloop
  endfacet
  facet normal 0 0 1
    outer loop
      vertex -41.4863 0.661728 190
      vertex -42 2 190
      vertex -41.618 0.824417 190
    endloop
  endfacet
  facet normal 0 0 1
    outer loop
      vertex -41.618 0.824417 190
      vertex -42 2 190
      vertex -41.732 1 190
    endloop
  endfacet
  facet normal 0 0 1
    outer loop
      vertex -41.732 1 190
      vertex -42 2 190
      vertex -41.8271 1.18652 190
    endloop
  endfacet
  facet normal 0 0 1
    outer loop
      vertex -41.8271 1.18652 190
      vertex -42 2 190
      vertex -41.9021 1.38196 190
    endloop
  endfacet
  facet normal 0 0 1
    outer loop
      vertex -41.9021 1.38196 190
      vertex -42 2 190
      vertex -41.9563 1.58417 190
    endloop
  endfacet
  facet normal 0 0 1
    outer loop
      vertex -40 6 190
      vertex -42 13.25 190
      vertex -42 2 190
    endloop
  endfacet
  facet normal 0 0 1
    outer loop
      vertex -41.9563 1.58417 190
      vertex -42 2 190
      vertex -41.989 1.79094 190
    endloop
  endfacet
  facet normal -0 0 1
    outer loop
      vertex -42 24 190
      vertex -40 16.75 190
      vertex -40 24 190
    endloop
  endfacet
  facet normal 0 0 1
    outer loop
      vertex -40 16.75 190
      vertex -42 24 190
      vertex -42 16.75 190
    endloop
  endfacet
  facet normal 0 0 -1
    outer loop
      vertex -4 2 0
      vertex -33.5 6 0
      vertex -4 10 0
    endloop
  endfacet
  facet normal 0 0 -1
    outer loop
      vertex -4 0 0
      vertex -33.5 6 0
      vertex -4 2 0
    endloop
  endfacet
  facet normal 0 0 -1
    outer loop
      vertex -40 0 0
      vertex -33.5 6 0
      vertex -4 0 0
    endloop
  endfacet
  facet normal 0 0 -1
    outer loop
      vertex -40 0 0
      vertex -40 6 0
      vertex -33.5 6 0
    endloop
  endfacet
  facet normal 0 0 -1
    outer loop
      vertex -42 2 0
      vertex -40 6 0
      vertex -40 0 0
    endloop
  endfacet
  facet normal 0 0 -1
    outer loop
      vertex -42 2 0
      vertex -40 0 0
      vertex -40.209 0.0109558 0
    endloop
  endfacet
  facet normal 0 0 -1
    outer loop
      vertex -42 2 0
      vertex -40.209 0.0109558 0
      vertex -40.4158 0.0437012 0
    endloop
  endfacet
  facet normal 0 0 -1
    outer loop
      vertex -42 2 0
      vertex -40.4158 0.0437012 0
      vertex -40.618 0.0978851 0
    endloop
  endfacet
  facet normal 0 0 -1
    outer loop
      vertex -42 2 0
      vertex -40.618 0.0978851 0
      vertex -40.8135 0.172897 0
    endloop
  endfacet
  facet normal 0 0 -1
    outer loop
      vertex -42 2 0
      vertex -40.8135 0.172897 0
      vertex -41 0.267944 0
    endloop
  endfacet
  facet normal 0 0 -1
    outer loop
      vertex -42 2 0
      vertex -41 0.267944 0
      vertex -41.1756 0.381958 0
    endloop
  endfacet
  facet normal 0 0 -1
    outer loop
      vertex -42 2 0
      vertex -41.1756 0.381958 0
      vertex -41.3383 0.513702 0
    endloop
  endfacet
  facet normal 0 0 -1
    outer loop
      vertex -42 2 0
      vertex -41.3383 0.513702 0
      vertex -41.4863 0.661728 0
    endloop
  endfacet
  facet normal 0 0 -1
    outer loop
      vertex -42 2 0
      vertex -41.4863 0.661728 0
      vertex -41.618 0.824417 0
    endloop
  endfacet
  facet normal 0 0 -1
    outer loop
      vertex -42 2 0
      vertex -41.618 0.824417 0
      vertex -41.732 1 0
    endloop
  endfacet
  facet normal 0 0 -1
    outer loop
      vertex -42 2 0
      vertex -41.732 1 0
      vertex -41.8271 1.18652 0
    endloop
  endfacet
  facet normal 0 0 -1
    outer loop
      vertex -42 2 0
      vertex -41.8271 1.18652 0
      vertex -41.9021 1.38196 0
    endloop
  endfacet
  facet normal 0 0 -1
    outer loop
      vertex -42 2 0
      vertex -41.9021 1.38196 0
      vertex -41.9563 1.58417 0
    endloop
  endfacet
  facet normal 0 0 -1
    outer loop
      vertex -42 2 0
      vertex -41.9563 1.58417 0
      vertex -41.989 1.79094 0
    endloop
  endfacet
  facet normal 0 0 -1
    outer loop
      vertex -42 24 0
      vertex -40 6 0
      vertex -42 2 0
    endloop
  endfacet
  facet normal 0 0 -1
    outer loop
      vertex -40 6 0
      vertex -42 24 0
      vertex -40 24 0
    endloop
  endfacet
  facet normal -0 0 -1
    outer loop
      vertex -4 10 0
      vertex -33.5 6 0
      vertex -33.5 10 0
    endloop
  endfacet
  facet normal -0.156415 -0.987691 0
    outer loop
      vertex -40.4158 0.0437012 0
      vertex -40.209 0.0109558 190
      vertex -40.4158 0.0437012 190
    endloop
  endfacet
  facet normal -0.156415 -0.987691 -0
    outer loop
      vertex -40.209 0.0109558 190
      vertex -40.4158 0.0437012 0
      vertex -40.209 0.0109558 0
    endloop
  endfacet
  facet normal -0.258828 -0.965923 0
    outer loop
      vertex -40.618 0.0978851 0
      vertex -40.4158 0.0437012 190
      vertex -40.618 0.0978851 190
    endloop
  endfacet
  facet normal -0.258828 -0.965923 -0
    outer loop
      vertex -40.4158 0.0437012 190
      vertex -40.618 0.0978851 0
      vertex -40.4158 0.0437012 0
    endloop
  endfacet
  facet normal -0.358334 -0.933593 0
    outer loop
      vertex -40.8135 0.172897 0
      vertex -40.618 0.0978851 190
      vertex -40.8135 0.172897 190
    endloop
  endfacet
  facet normal -0.358334 -0.933593 -0
    outer loop
      vertex -40.618 0.0978851 190
      vertex -40.8135 0.172897 0
      vertex -40.618 0.0978851 0
    endloop
  endfacet
  facet normal -0.453993 -0.891005 0
    outer loop
      vertex -41 0.267944 0
      vertex -40.8135 0.172897 190
      vertex -41 0.267944 190
    endloop
  endfacet
  facet normal -0.453993 -0.891005 -0
    outer loop
      vertex -40.8135 0.172897 190
      vertex -41 0.267944 0
      vertex -40.8135 0.172897 0
    endloop
  endfacet
  facet normal -0.544635 -0.838673 0
    outer loop
      vertex -41.1756 0.381958 0
      vertex -41 0.267944 190
      vertex -41.1756 0.381958 190
    endloop
  endfacet
  facet normal -0.544635 -0.838673 -0
    outer loop
      vertex -41 0.267944 190
      vertex -41.1756 0.381958 0
      vertex -41 0.267944 0
    endloop
  endfacet
  facet normal -0.629324 -0.777143 0
    outer loop
      vertex -41.3383 0.513702 0
      vertex -41.1756 0.381958 190
      vertex -41.3383 0.513702 190
    endloop
  endfacet
  facet normal -0.629324 -0.777143 -0
    outer loop
      vertex -41.1756 0.381958 190
      vertex -41.3383 0.513702 0
      vertex -41.1756 0.381958 0
    endloop
  endfacet
  facet normal -0.707107 -0.707107 0
    outer loop
      vertex -41.3383 0.513702 0
      vertex -41.4863 0.661728 190
      vertex -41.4863 0.661728 0
    endloop
  endfacet
  facet normal -0.707107 -0.707107 0
    outer loop
      vertex -41.4863 0.661728 190
      vertex -41.3383 0.513702 0
      vertex -41.3383 0.513702 190
    endloop
  endfacet
  facet normal -0.777143 -0.629324 0
    outer loop
      vertex -41.4863 0.661728 0
      vertex -41.618 0.824417 190
      vertex -41.618 0.824417 0
    endloop
  endfacet
  facet normal -0.777143 -0.629324 0
    outer loop
      vertex -41.618 0.824417 190
      vertex -41.4863 0.661728 0
      vertex -41.4863 0.661728 190
    endloop
  endfacet
  facet normal -0.838695 -0.544601 0
    outer loop
      vertex -41.618 0.824417 0
      vertex -41.732 1 190
      vertex -41.732 1 0
    endloop
  endfacet
  facet normal -0.838695 -0.544601 0
    outer loop
      vertex -41.732 1 190
      vertex -41.618 0.824417 0
      vertex -41.618 0.824417 190
    endloop
  endfacet
  facet normal -0.89099 -0.454023 0
    outer loop
      vertex -41.732 1 0
      vertex -41.8271 1.18652 190
      vertex -41.8271 1.18652 0
    endloop
  endfacet
  facet normal -0.89099 -0.454023 0
    outer loop
      vertex -41.8271 1.18652 190
      vertex -41.732 1 0
      vertex -41.732 1 190
    endloop
  endfacet
  facet normal -0.933593 -0.358334 0
    outer loop
      vertex -41.8271 1.18652 0
      vertex -41.9021 1.38196 190
      vertex -41.9021 1.38196 0
    endloop
  endfacet
  facet normal -0.933593 -0.358334 0
    outer loop
      vertex -41.9021 1.38196 190
      vertex -41.8271 1.18652 0
      vertex -41.8271 1.18652 190
    endloop
  endfacet
  facet normal -0.965923 -0.258828 0
    outer loop
      vertex -41.9021 1.38196 0
      vertex -41.9563 1.58417 190
      vertex -41.9563 1.58417 0
    endloop
  endfacet
  facet normal -0.965923 -0.258828 0
    outer loop
      vertex -41.9563 1.58417 190
      vertex -41.9021 1.38196 0
      vertex -41.9021 1.38196 190
    endloop
  endfacet
  facet normal -0.987691 -0.156415 0
    outer loop
      vertex -41.9563 1.58417 0
      vertex -41.989 1.79094 190
      vertex -41.989 1.79094 0
    endloop
  endfacet
  facet normal -0.987691 -0.156415 0
    outer loop
      vertex -41.989 1.79094 190
      vertex -41.9563 1.58417 0
      vertex -41.9563 1.58417 190
    endloop
  endfacet
  facet normal -0.998626 -0.0524058 0
    outer loop
      vertex -41.989 1.79094 0
      vertex -42 2 190
      vertex -42 2 0
    endloop
  endfacet
  facet normal -0.998626 -0.0524058 0
    outer loop
      vertex -42 2 190
      vertex -41.989 1.79094 0
      vertex -41.989 1.79094 190
    endloop
  endfacet
  facet normal -1 0 0
    outer loop
      vertex -42 24 0
      vertex -42 16.75 68
      vertex -42 24 190
    endloop
  endfacet
  facet normal -1 0 0
    outer loop
      vertex -42 24 0
      vertex -42 16.6643 67.4592
      vertex -42 16.75 68
    endloop
  endfacet
  facet normal -1 0 0
    outer loop
      vertex -42 24 0
      vertex -42 16.4158 66.9714
      vertex -42 16.6643 67.4592
    endloop
  endfacet
  facet normal -1 0 0
    outer loop
      vertex -42 24 0
      vertex -42 16.0286 66.5842
      vertex -42 16.4158 66.9714
    endloop
  endfacet
  facet normal -1 0 0
    outer loop
      vertex -42 24 0
      vertex -42 15.5408 66.3356
      vertex -42 16.0286 66.5842
    endloop
  endfacet
  facet normal -1 0 0
    outer loop
      vertex -42 24 0
      vertex -42 15 66.25
      vertex -42 15.5408 66.3356
    endloop
  endfacet
  facet normal -1 0 0
    outer loop
      vertex -42 2 0
      vertex -42 15 66.25
      vertex -42 24 0
    endloop
  endfacet
  facet normal -1 -0 0
    outer loop
      vertex -42 15 66.25
      vertex -42 2 0
      vertex -42 14.4592 66.3356
    endloop
  endfacet
  facet normal -1 -0 0
    outer loop
      vertex -42 14.4592 66.3356
      vertex -42 2 0
      vertex -42 13.9714 66.5842
    endloop
  endfacet
  facet normal -1 -0 0
    outer loop
      vertex -42 13.9714 66.5842
      vertex -42 2 0
      vertex -42 13.5842 66.9714
    endloop
  endfacet
  facet normal -1 -0 0
    outer loop
      vertex -42 13.5842 66.9714
      vertex -42 2 0
      vertex -42 13.3357 67.4592
    endloop
  endfacet
  facet normal -1 -0 0
    outer loop
      vertex -42 13.3357 67.4592
      vertex -42 2 0
      vertex -42 13.25 68
    endloop
  endfacet
  facet normal -1 0 0
    outer loop
      vertex -42 2 190
      vertex -42 13.25 68
      vertex -42 2 0
    endloop
  endfacet
  facet normal -1 0 0
    outer loop
      vertex -42 13.25 68
      vertex -42 2 190
      vertex -42 13.25 190
    endloop
  endfacet
  facet normal -1 0 0
    outer loop
      vertex -42 16.6643 68.5408
      vertex -42 24 190
      vertex -42 16.75 68
    endloop
  endfacet
  facet normal -1 0 0
    outer loop
      vertex -42 16.4158 69.0286
      vertex -42 24 190
      vertex -42 16.6643 68.5408
    endloop
  endfacet
  facet normal -1 -0 0
    outer loop
      vertex -42 24 190
      vertex -42 16.6643 189.459
      vertex -42 16.75 190
    endloop
  endfacet
  facet normal -1 0 0
    outer loop
      vertex -42 16.0286 69.4158
      vertex -42 24 190
      vertex -42 16.4158 69.0286
    endloop
  endfacet
  facet normal -1 0 0
    outer loop
      vertex -42 24 190
      vertex -42 16.4158 188.971
      vertex -42 16.6643 189.459
    endloop
  endfacet
  facet normal -1 0 0
    outer loop
      vertex -42 15.5408 69.6644
      vertex -42 24 190
      vertex -42 16.0286 69.4158
    endloop
  endfacet
  facet normal -1 0 0
    outer loop
      vertex -42 24 190
      vertex -42 16.0286 188.584
      vertex -42 16.4158 188.971
    endloop
  endfacet
  facet normal -1 0 0
    outer loop
      vertex -42 15.5408 188.336
      vertex -42 24 190
      vertex -42 15.5408 69.6644
    endloop
  endfacet
  facet normal -1 0 0
    outer loop
      vertex -42 24 190
      vertex -42 15.5408 188.336
      vertex -42 16.0286 188.584
    endloop
  endfacet
  facet normal -1 0 0
    outer loop
      vertex -42 15 69.75
      vertex -42 15.5408 188.336
      vertex -42 15.5408 69.6644
    endloop
  endfacet
  facet normal -1 0 0
    outer loop
      vertex -42 15 69.75
      vertex -42 15 188.25
      vertex -42 15.5408 188.336
    endloop
  endfacet
  facet normal -1 0 0
    outer loop
      vertex -42 14.4592 69.6644
      vertex -42 15 188.25
      vertex -42 15 69.75
    endloop
  endfacet
  facet normal -1 0 0
    outer loop
      vertex -42 14.4592 69.6644
      vertex -42 14.4592 188.336
      vertex -42 15 188.25
    endloop
  endfacet
  facet normal -1 0 0
    outer loop
      vertex -42 13.9714 69.4158
      vertex -42 14.4592 188.336
      vertex -42 14.4592 69.6644
    endloop
  endfacet
  facet normal -1 0 0
    outer loop
      vertex -42 13.9714 69.4158
      vertex -42 13.9714 188.584
      vertex -42 14.4592 188.336
    endloop
  endfacet
  facet normal -1 0 0
    outer loop
      vertex -42 13.5842 69.0286
      vertex -42 13.9714 188.584
      vertex -42 13.9714 69.4158
    endloop
  endfacet
  facet normal -1 0 0
    outer loop
      vertex -42 13.5842 69.0286
      vertex -42 13.5842 188.971
      vertex -42 13.9714 188.584
    endloop
  endfacet
  facet normal -1 0 0
    outer loop
      vertex -42 13.3357 68.5408
      vertex -42 13.5842 188.971
      vertex -42 13.5842 69.0286
    endloop
  endfacet
  facet normal -1 0 0
    outer loop
      vertex -42 13.3357 68.5408
      vertex -42 13.3357 189.459
      vertex -42 13.5842 188.971
    endloop
  endfacet
  facet normal -1 0 0
    outer loop
      vertex -42 13.25 68
      vertex -42 13.3357 189.459
      vertex -42 13.3357 68.5408
    endloop
  endfacet
  facet normal -1 -0 0
    outer loop
      vertex -42 13.3357 189.459
      vertex -42 13.25 68
      vertex -42 13.25 190
    endloop
  endfacet
  facet normal 0 1 -0
    outer loop
      vertex -40 24 0
      vertex -42 24 190
      vertex -40 24 190
    endloop
  endfacet
  facet normal 0 1 0
    outer loop
      vertex -42 24 190
      vertex -40 24 0
      vertex -42 24 0
    endloop
  endfacet
  facet normal 1 0 0
    outer loop
      vertex -40 16.4158 188.971
      vertex -40 24 190
      vertex -40 16.6643 189.459
    endloop
  endfacet
  facet normal 1 0 0
    outer loop
      vertex -40 24 190
      vertex -40 16.6643 68.5408
      vertex -40 16.75 68
    endloop
  endfacet
  facet normal 1 0 0
    outer loop
      vertex -40 16.0286 188.584
      vertex -40 24 190
      vertex -40 16.4158 188.971
    endloop
  endfacet
  facet normal 1 0 0
    outer loop
      vertex -40 24 190
      vertex -40 16.4158 69.0286
      vertex -40 16.6643 68.5408
    endloop
  endfacet
  facet normal 1 0 0
    outer loop
      vertex -40 15.5408 188.336
      vertex -40 24 190
      vertex -40 16.0286 188.584
    endloop
  endfacet
  facet normal 1 0 0
    outer loop
      vertex -40 24 190
      vertex -40 16.0286 69.4158
      vertex -40 16.4158 69.0286
    endloop
  endfacet
  facet normal 1 0 0
    outer loop
      vertex -40 15.5408 69.6644
      vertex -40 24 190
      vertex -40 15.5408 188.336
    endloop
  endfacet
  facet normal 1 0 0
    outer loop
      vertex -40 24 190
      vertex -40 15.5408 69.6644
      vertex -40 16.0286 69.4158
    endloop
  endfacet
  facet normal 1 -0 0
    outer loop
      vertex -40 15 188.25
      vertex -40 15.5408 69.6644
      vertex -40 15.5408 188.336
    endloop
  endfacet
  facet normal 1 0 0
    outer loop
      vertex -40 15 188.25
      vertex -40 15 69.75
      vertex -40 15.5408 69.6644
    endloop
  endfacet
  facet normal 1 0 0
    outer loop
      vertex -40 14.4592 188.336
      vertex -40 15 69.75
      vertex -40 15 188.25
    endloop
  endfacet
  facet normal 1 0 0
    outer loop
      vertex -40 14.4592 188.336
      vertex -40 14.4592 69.6644
      vertex -40 15 69.75
    endloop
  endfacet
  facet normal 1 0 0
    outer loop
      vertex -40 6 190
      vertex -40 14.4592 188.336
      vertex -40 13.9714 188.584
    endloop
  endfacet
  facet normal 1 0 0
    outer loop
      vertex -40 14.4592 188.336
      vertex -40 6 190
      vertex -40 14.4592 69.6644
    endloop
  endfacet
  facet normal 1 0 0
    outer loop
      vertex -40 6 190
      vertex -40 13.9714 188.584
      vertex -40 13.5842 188.971
    endloop
  endfacet
  facet normal 1 0 0
    outer loop
      vertex -40 14.4592 69.6644
      vertex -40 6 190
      vertex -40 13.9714 69.4158
    endloop
  endfacet
  facet normal 1 0 0
    outer loop
      vertex -40 6 190
      vertex -40 13.5842 188.971
      vertex -40 13.3357 189.459
    endloop
  endfacet
  facet normal 1 0 0
    outer loop
      vertex -40 13.9714 69.4158
      vertex -40 6 190
      vertex -40 13.5842 69.0286
    endloop
  endfacet
  facet normal 1 -0 0
    outer loop
      vertex -40 6 190
      vertex -40 13.3357 189.459
      vertex -40 13.25 190
    endloop
  endfacet
  facet normal 1 0 0
    outer loop
      vertex -40 13.5842 69.0286
      vertex -40 6 190
      vertex -40 13.3357 68.5408
    endloop
  endfacet
  facet normal 1 0 0
    outer loop
      vertex -40 13.3357 68.5408
      vertex -40 6 190
      vertex -40 13.25 68
    endloop
  endfacet
  facet normal 1 0 0
    outer loop
      vertex -40 16.6643 189.459
      vertex -40 24 190
      vertex -40 16.75 190
    endloop
  endfacet
  facet normal 1 0 0
    outer loop
      vertex -40 24 190
      vertex -40 16.75 68
      vertex -40 24 0
    endloop
  endfacet
  facet normal 1 -0 0
    outer loop
      vertex -40 16.6643 67.4592
      vertex -40 24 0
      vertex -40 16.75 68
    endloop
  endfacet
  facet normal 1 -0 0
    outer loop
      vertex -40 16.4158 66.9714
      vertex -40 24 0
      vertex -40 16.6643 67.4592
    endloop
  endfacet
  facet normal 1 -0 0
    outer loop
      vertex -40 16.0286 66.5842
      vertex -40 24 0
      vertex -40 16.4158 66.9714
    endloop
  endfacet
  facet normal 1 -0 0
    outer loop
      vertex -40 15.5408 66.3356
      vertex -40 24 0
      vertex -40 16.0286 66.5842
    endloop
  endfacet
  facet normal 1 -0 0
    outer loop
      vertex -40 15 66.25
      vertex -40 24 0
      vertex -40 15.5408 66.3356
    endloop
  endfacet
  facet normal 1 0 0
    outer loop
      vertex -40 6 0
      vertex -40 15 66.25
      vertex -40 14.4592 66.3356
    endloop
  endfacet
  facet normal 1 0 0
    outer loop
      vertex -40 6 0
      vertex -40 14.4592 66.3356
      vertex -40 13.9714 66.5842
    endloop
  endfacet
  facet normal 1 0 0
    outer loop
      vertex -40 6 0
      vertex -40 13.9714 66.5842
      vertex -40 13.5842 66.9714
    endloop
  endfacet
  facet normal 1 0 0
    outer loop
      vertex -40 6 0
      vertex -40 13.5842 66.9714
      vertex -40 13.3357 67.4592
    endloop
  endfacet
  facet normal 1 0 0
    outer loop
      vertex -40 6 0
      vertex -40 13.3357 67.4592
      vertex -40 13.25 68
    endloop
  endfacet
  facet normal 1 0 0
    outer loop
      vertex -40 15 66.25
      vertex -40 6 0
      vertex -40 24 0
    endloop
  endfacet
  facet normal 1 0 0
    outer loop
      vertex -40 6 0
      vertex -40 13.25 68
      vertex -40 6 190
    endloop
  endfacet
  facet normal 0 1 -0
    outer loop
      vertex -33.5 6 0
      vertex -40 6 190
      vertex -33.5 6 190
    endloop
  endfacet
  facet normal 0 1 0
    outer loop
      vertex -40 6 190
      vertex -33.5 6 0
      vertex -40 6 0
    endloop
  endfacet
  facet normal -1 0 0
    outer loop
      vertex -33.5 6 0
      vertex -33.5 10 190
      vertex -33.5 10 0
    endloop
  endfacet
  facet normal -1 -0 0
    outer loop
      vertex -33.5 10 190
      vertex -33.5 6 0
      vertex -33.5 6 190
    endloop
  endfacet
  facet normal 0 1 0
    outer loop
      vertex -4 10 60
      vertex -4 10 0
      vertex -12 10 60
    endloop
  endfacet
  facet normal 0 1 -0
    outer loop
      vertex -12 10 165
      vertex -33.5 10 190
      vertex -12 10 190
    endloop
  endfacet
  facet normal 0 1 -0
    outer loop
      vertex -12 10 135
      vertex -33.5 10 190
      vertex -12 10 165
    endloop
  endfacet
  facet normal 0 1 -0
    outer loop
      vertex -12 10 105
      vertex -33.5 10 190
      vertex -12 10 135
    endloop
  endfacet
  facet normal 0 1 0
    outer loop
      vertex -33.5 10 0
      vertex -12 10 105
      vertex -12 10 75
    endloop
  endfacet
  facet normal 0 1 0
    outer loop
      vertex -33.5 10 0
      vertex -12 10 75
      vertex -12 10 60
    endloop
  endfacet
  facet normal 0 1 0
    outer loop
      vertex -33.5 10 0
      vertex -12 10 60
      vertex -4 10 0
    endloop
  endfacet
  facet normal 0 1 0
    outer loop
      vertex -12 10 105
      vertex -33.5 10 0
      vertex -33.5 10 190
    endloop
  endfacet
  facet normal 1 0 0
    outer loop
      vertex -12 10 190
      vertex -12 9.47368 165
      vertex -12 10 165
    endloop
  endfacet
  facet normal 1 -0 0
    outer loop
      vertex -12 6 190
      vertex -12 9.47368 165
      vertex -12 10 190
    endloop
  endfacet
  facet normal 1 0 0
    outer loop
      vertex -12 6 190
      vertex -12 8.8421 135
      vertex -12 9.26316 155
    endloop
  endfacet
  facet normal 1 0 0
    outer loop
      vertex -12 6 190
      vertex -12 8.21053 105
      vertex -12 8.63158 125
    endloop
  endfacet
  facet normal 1 0 0
    outer loop
      vertex -12 8.8421 135
      vertex -12 6 190
      vertex -12 8.63158 125
    endloop
  endfacet
  facet normal 1 -5.66244e-007 5.96046e-008
    outer loop
      vertex -12 6 60
      vertex -12 7.57895 75
      vertex -12 8 95
    endloop
  endfacet
  facet normal 1 2.82085e-007 7.33596e-009
    outer loop
      vertex -12 6 60
      vertex -12 8.21053 105
      vertex -12 6 190
    endloop
  endfacet
  facet normal 1 7.54995e-007 -1.58947e-008
    outer loop
      vertex -12 8.21053 105
      vertex -12 6 60
      vertex -12 8 95
    endloop
  endfacet
  facet normal 1 0 0
    outer loop
      vertex -12 9.47368 165
      vertex -12 6 190
      vertex -12 9.26316 155
    endloop
  endfacet
  facet normal 1 -0 0
    outer loop
      vertex -12 10 155
      vertex -12 10 135
      vertex -12 10 165
    endloop
  endfacet
  facet normal 1 -0 0
    outer loop
      vertex -12 9.26316 155
      vertex -12 10 135
      vertex -12 10 155
    endloop
  endfacet
  facet normal 1 0 0
    outer loop
      vertex -12 10 135
      vertex -12 9.26316 155
      vertex -12 8.8421 135
    endloop
  endfacet
  facet normal 1 -0 0
    outer loop
      vertex -12 10 125
      vertex -12 10 105
      vertex -12 10 135
    endloop
  endfacet
  facet normal 1 -0 0
    outer loop
      vertex -12 8.63158 125
      vertex -12 10 105
      vertex -12 10 125
    endloop
  endfacet
  facet normal 1 0 0
    outer loop
      vertex -12 10 105
      vertex -12 8.63158 125
      vertex -12 8.21053 105
    endloop
  endfacet
  facet normal 0.948683 -0.316228 3.01578e-008
    outer loop
      vertex -12 10 95
      vertex -12 10 75
      vertex -12 10 105
    endloop
  endfacet
  facet normal 1 -0 4.76837e-008
    outer loop
      vertex -12 8 95
      vertex -12 10 75
      vertex -12 10 95
    endloop
  endfacet
  facet normal 1 0 4.76837e-008
    outer loop
      vertex -12 10 75
      vertex -12 8 95
      vertex -12 7.57895 75
    endloop
  endfacet
  facet normal 1 -0 0
    outer loop
      vertex -12 10 65
      vertex -12 10 60
      vertex -12 10 75
    endloop
  endfacet
  facet normal 1 -0 0
    outer loop
      vertex -12 7.36842 65
      vertex -12 10 60
      vertex -12 10 65
    endloop
  endfacet
  facet normal 1 0 0
    outer loop
      vertex -12 7.36842 65
      vertex -12 6 60
      vertex -12 10 60
    endloop
  endfacet
  facet normal 1 0 0
    outer loop
      vertex -12 7.57895 75
      vertex -12 6 60
      vertex -12 7.36842 65
    endloop
  endfacet
  facet normal 0 -1 0
    outer loop
      vertex -21.5 6 60
      vertex -12 6 190
      vertex -21.5 6 190
    endloop
  endfacet
  facet normal 0 -1 -0
    outer loop
      vertex -12 6 190
      vertex -21.5 6 60
      vertex -12 6 60
    endloop
  endfacet
  facet normal 1 -0 0
    outer loop
      vertex -21.5 2 190
      vertex -21.5 6 60
      vertex -21.5 6 190
    endloop
  endfacet
  facet normal 1 0 0
    outer loop
      vertex -21.5 6 60
      vertex -21.5 2 190
      vertex -21.5 2 60
    endloop
  endfacet
  facet normal 0 1 0
    outer loop
      vertex -4 2 190
      vertex -4 2 60
      vertex -21.5 2 190
    endloop
  endfacet
  facet normal 0 1 0
    outer loop
      vertex -4 2 0
      vertex -4 2 60
      vertex -4 2 190
    endloop
  endfacet
  facet normal 0 1 0
    outer loop
      vertex -21.5 2 190
      vertex -4 2 60
      vertex -21.5 2 60
    endloop
  endfacet
  facet normal 1 -0 5.01934e-009
    outer loop
      vertex -4 0 190
      vertex -4 2 0
      vertex -4 2 190
    endloop
  endfacet
  facet normal 1 0 5.01934e-009
    outer loop
      vertex -4 2 0
      vertex -4 0 190
      vertex -4 0 0
    endloop
  endfacet
  facet normal 0 -1 0
    outer loop
      vertex -40 0 0
      vertex -4 0 190
      vertex -40 0 190
    endloop
  endfacet
  facet normal 0 -1 -0
    outer loop
      vertex -4 0 190
      vertex -40 0 0
      vertex -4 0 0
    endloop
  endfacet
  facet normal -0.0523369 -0.998629 0
    outer loop
      vertex -40.209 0.0109558 0
      vertex -40 0 190
      vertex -40.209 0.0109558 190
    endloop
  endfacet
  facet normal -0.0523369 -0.998629 -0
    outer loop
      vertex -40 0 190
      vertex -40.209 0.0109558 0
      vertex -40 0 0
    endloop
  endfacet
  facet normal 0 -0.891007 0.45399
    outer loop
      vertex -42 16.4158 66.9714
      vertex -40 16.6643 67.4592
      vertex -42 16.6643 67.4592
    endloop
  endfacet
  facet normal 0 -0.891007 0.45399
    outer loop
      vertex -40 16.6643 67.4592
      vertex -42 16.4158 66.9714
      vertex -40 16.4158 66.9714
    endloop
  endfacet
  facet normal -0 0.156428 0.987689
    outer loop
      vertex -42 15 66.25
      vertex -40 14.4592 66.3356
      vertex -40 15 66.25
    endloop
  endfacet
  facet normal 0 0.156428 0.987689
    outer loop
      vertex -40 14.4592 66.3356
      vertex -42 15 66.25
      vertex -42 14.4592 66.3356
    endloop
  endfacet
  facet normal 0 0.891007 -0.45399
    outer loop
      vertex -40 13.3357 68.5408
      vertex -42 13.5842 69.0286
      vertex -40 13.5842 69.0286
    endloop
  endfacet
  facet normal 0 0.891007 -0.45399
    outer loop
      vertex -42 13.5842 69.0286
      vertex -40 13.3357 68.5408
      vertex -42 13.3357 68.5408
    endloop
  endfacet
  facet normal 0 -0.453996 0.891003
    outer loop
      vertex -42 16.0286 66.5842
      vertex -40 15.5408 66.3356
      vertex -40 16.0286 66.5842
    endloop
  endfacet
  facet normal 0 -0.453996 0.891003
    outer loop
      vertex -40 15.5408 66.3356
      vertex -42 16.0286 66.5842
      vertex -42 15.5408 66.3356
    endloop
  endfacet
  facet normal 0 -0.987688 -0.156435
    outer loop
      vertex -42 16.75 68
      vertex -40 16.6643 68.5408
      vertex -42 16.6643 68.5408
    endloop
  endfacet
  facet normal 0 -0.987688 -0.156435
    outer loop
      vertex -40 16.6643 68.5408
      vertex -42 16.75 68
      vertex -40 16.75 68
    endloop
  endfacet
  facet normal 0 -0.891007 -0.45399
    outer loop
      vertex -42 16.6643 68.5408
      vertex -40 16.4158 69.0286
      vertex -42 16.4158 69.0286
    endloop
  endfacet
  facet normal 0 -0.891007 -0.45399
    outer loop
      vertex -40 16.4158 69.0286
      vertex -42 16.6643 68.5408
      vertex -40 16.6643 68.5408
    endloop
  endfacet
  facet normal 0 0.987688 0.156435
    outer loop
      vertex -40 13.3357 67.4592
      vertex -42 13.25 68
      vertex -40 13.25 68
    endloop
  endfacet
  facet normal 0 0.987688 0.156435
    outer loop
      vertex -42 13.25 68
      vertex -40 13.3357 67.4592
      vertex -42 13.3357 67.4592
    endloop
  endfacet
  facet normal -0 0.453996 0.891003
    outer loop
      vertex -42 14.4592 66.3356
      vertex -40 13.9714 66.5842
      vertex -40 14.4592 66.3356
    endloop
  endfacet
  facet normal 0 0.453996 0.891003
    outer loop
      vertex -40 13.9714 66.5842
      vertex -42 14.4592 66.3356
      vertex -42 13.9714 66.5842
    endloop
  endfacet
  facet normal 0 0.156428 -0.987689
    outer loop
      vertex -42 14.4592 69.6644
      vertex -40 15 69.75
      vertex -40 14.4592 69.6644
    endloop
  endfacet
  facet normal 0 0.156428 -0.987689
    outer loop
      vertex -40 15 69.75
      vertex -42 14.4592 69.6644
      vertex -42 15 69.75
    endloop
  endfacet
  facet normal 0 0.707105 -0.707109
    outer loop
      vertex -42 13.5842 69.0286
      vertex -40 13.9714 69.4158
      vertex -40 13.5842 69.0286
    endloop
  endfacet
  facet normal 0 0.707105 -0.707109
    outer loop
      vertex -40 13.9714 69.4158
      vertex -42 13.5842 69.0286
      vertex -42 13.9714 69.4158
    endloop
  endfacet
  facet normal 0 0.453996 -0.891003
    outer loop
      vertex -42 13.9714 69.4158
      vertex -40 14.4592 69.6644
      vertex -40 13.9714 69.4158
    endloop
  endfacet
  facet normal 0 0.453996 -0.891003
    outer loop
      vertex -40 14.4592 69.6644
      vertex -42 13.9714 69.4158
      vertex -42 14.4592 69.6644
    endloop
  endfacet
  facet normal 0 -0.707105 0.707109
    outer loop
      vertex -42 16.4158 66.9714
      vertex -40 16.0286 66.5842
      vertex -40 16.4158 66.9714
    endloop
  endfacet
  facet normal 0 -0.707105 0.707109
    outer loop
      vertex -40 16.0286 66.5842
      vertex -42 16.4158 66.9714
      vertex -42 16.0286 66.5842
    endloop
  endfacet
  facet normal 0 -0.987688 0.156435
    outer loop
      vertex -42 16.6643 67.4592
      vertex -40 16.75 68
      vertex -42 16.75 68
    endloop
  endfacet
  facet normal 0 -0.987688 0.156435
    outer loop
      vertex -40 16.75 68
      vertex -42 16.6643 67.4592
      vertex -40 16.6643 67.4592
    endloop
  endfacet
  facet normal 0 -0.156428 -0.987689
    outer loop
      vertex -42 15 69.75
      vertex -40 15.5408 69.6644
      vertex -40 15 69.75
    endloop
  endfacet
  facet normal -0 -0.156428 -0.987689
    outer loop
      vertex -40 15.5408 69.6644
      vertex -42 15 69.75
      vertex -42 15.5408 69.6644
    endloop
  endfacet
  facet normal 0 -0.707105 -0.707109
    outer loop
      vertex -42 16.0286 69.4158
      vertex -40 16.4158 69.0286
      vertex -40 16.0286 69.4158
    endloop
  endfacet
  facet normal -0 -0.707105 -0.707109
    outer loop
      vertex -40 16.4158 69.0286
      vertex -42 16.0286 69.4158
      vertex -42 16.4158 69.0286
    endloop
  endfacet
  facet normal 0 -0.156428 0.987689
    outer loop
      vertex -42 15.5408 66.3356
      vertex -40 15 66.25
      vertex -40 15.5408 66.3356
    endloop
  endfacet
  facet normal 0 -0.156428 0.987689
    outer loop
      vertex -40 15 66.25
      vertex -42 15.5408 66.3356
      vertex -42 15 66.25
    endloop
  endfacet
  facet normal 0 0.891007 0.45399
    outer loop
      vertex -40 13.5842 66.9714
      vertex -42 13.3357 67.4592
      vertex -40 13.3357 67.4592
    endloop
  endfacet
  facet normal 0 0.891007 0.45399
    outer loop
      vertex -42 13.3357 67.4592
      vertex -40 13.5842 66.9714
      vertex -42 13.5842 66.9714
    endloop
  endfacet
  facet normal 0 0.987688 -0.156435
    outer loop
      vertex -40 13.25 68
      vertex -42 13.3357 68.5408
      vertex -40 13.3357 68.5408
    endloop
  endfacet
  facet normal 0 0.987688 -0.156435
    outer loop
      vertex -42 13.3357 68.5408
      vertex -40 13.25 68
      vertex -42 13.25 68
    endloop
  endfacet
  facet normal 0 -0.453996 -0.891003
    outer loop
      vertex -42 15.5408 69.6644
      vertex -40 16.0286 69.4158
      vertex -40 15.5408 69.6644
    endloop
  endfacet
  facet normal -0 -0.453996 -0.891003
    outer loop
      vertex -40 16.0286 69.4158
      vertex -42 15.5408 69.6644
      vertex -42 16.0286 69.4158
    endloop
  endfacet
  facet normal -0 0.707105 0.707109
    outer loop
      vertex -42 13.9714 66.5842
      vertex -40 13.5842 66.9714
      vertex -40 13.9714 66.5842
    endloop
  endfacet
  facet normal 0 0.707105 0.707109
    outer loop
      vertex -40 13.5842 66.9714
      vertex -42 13.9714 66.5842
      vertex -42 13.5842 66.9714
    endloop
  endfacet
  facet normal 0 -0.891004 0.453995
    outer loop
      vertex -42 16.4158 188.971
      vertex -40 16.6643 189.459
      vertex -42 16.6643 189.459
    endloop
  endfacet
  facet normal 0 -0.891004 0.453995
    outer loop
      vertex -40 16.6643 189.459
      vertex -42 16.4158 188.971
      vertex -40 16.4158 188.971
    endloop
  endfacet
  facet normal -0 0.156428 0.987689
    outer loop
      vertex -42 15 188.25
      vertex -40 14.4592 188.336
      vertex -40 15 188.25
    endloop
  endfacet
  facet normal 0 0.156428 0.987689
    outer loop
      vertex -40 14.4592 188.336
      vertex -42 15 188.25
      vertex -42 14.4592 188.336
    endloop
  endfacet
  facet normal 0 -0.453985 0.891009
    outer loop
      vertex -42 16.0286 188.584
      vertex -40 15.5408 188.336
      vertex -40 16.0286 188.584
    endloop
  endfacet
  facet normal 0 -0.453985 0.891009
    outer loop
      vertex -40 15.5408 188.336
      vertex -42 16.0286 188.584
      vertex -42 15.5408 188.336
    endloop
  endfacet
  facet normal 0 0.987689 0.156433
    outer loop
      vertex -40 13.3357 189.459
      vertex -42 13.25 190
      vertex -40 13.25 190
    endloop
  endfacet
  facet normal 0 0.987689 0.156433
    outer loop
      vertex -42 13.25 190
      vertex -40 13.3357 189.459
      vertex -42 13.3357 189.459
    endloop
  endfacet
  facet normal -0 0.453985 0.891009
    outer loop
      vertex -42 14.4592 188.336
      vertex -40 13.9714 188.584
      vertex -40 14.4592 188.336
    endloop
  endfacet
  facet normal 0 0.453985 0.891009
    outer loop
      vertex -40 13.9714 188.584
      vertex -42 14.4592 188.336
      vertex -42 13.9714 188.584
    endloop
  endfacet
  facet normal 0 -0.707112 0.707102
    outer loop
      vertex -42 16.0286 188.584
      vertex -40 16.4158 188.971
      vertex -42 16.4158 188.971
    endloop
  endfacet
  facet normal 0 -0.707112 0.707102
    outer loop
      vertex -40 16.4158 188.971
      vertex -42 16.0286 188.584
      vertex -40 16.0286 188.584
    endloop
  endfacet
  facet normal 0 -0.987689 0.156433
    outer loop
      vertex -42 16.6643 189.459
      vertex -40 16.75 190
      vertex -42 16.75 190
    endloop
  endfacet
  facet normal 0 -0.987689 0.156433
    outer loop
      vertex -40 16.75 190
      vertex -42 16.6643 189.459
      vertex -40 16.6643 189.459
    endloop
  endfacet
  facet normal 0 -0.156428 0.987689
    outer loop
      vertex -42 15.5408 188.336
      vertex -40 15 188.25
      vertex -40 15.5408 188.336
    endloop
  endfacet
  facet normal 0 -0.156428 0.987689
    outer loop
      vertex -40 15 188.25
      vertex -42 15.5408 188.336
      vertex -42 15 188.25
    endloop
  endfacet
  facet normal 0 0.891004 0.453995
    outer loop
      vertex -40 13.5842 188.971
      vertex -42 13.3357 189.459
      vertex -40 13.3357 189.459
    endloop
  endfacet
  facet normal 0 0.891004 0.453995
    outer loop
      vertex -42 13.3357 189.459
      vertex -40 13.5842 188.971
      vertex -42 13.5842 188.971
    endloop
  endfacet
  facet normal 0 0.707112 0.707102
    outer loop
      vertex -40 13.9714 188.584
      vertex -42 13.5842 188.971
      vertex -40 13.5842 188.971
    endloop
  endfacet
  facet normal 0 0.707112 0.707102
    outer loop
      vertex -42 13.5842 188.971
      vertex -40 13.9714 188.584
      vertex -42 13.9714 188.584
    endloop
  endfacet
  facet normal 0 0 1
    outer loop
      vertex -12 6 60
      vertex -4 10 60
      vertex -12 10 60
    endloop
  endfacet
  facet normal 0 0 1
    outer loop
      vertex -4 10 60
      vertex -12 6 60
      vertex -4 2 60
    endloop
  endfacet
  facet normal 0 0 1
    outer loop
      vertex -21.5 2 60
      vertex -12 6 60
      vertex -21.5 6 60
    endloop
  endfacet
  facet normal 0 0 1
    outer loop
      vertex -12 6 60
      vertex -21.5 2 60
      vertex -4 2 60
    endloop
  endfacet
  facet normal 1 -0 0
    outer loop
      vertex -4 2 60
      vertex -4 10 0
      vertex -4 10 60
    endloop
  endfacet
  facet normal 1 0 0
    outer loop
      vertex -4 10 0
      vertex -4 2 60
      vertex -4 2 0
    endloop
  endfacet
endsolid OpenSCAD_Model
