solid OpenSCAD_Model
  facet normal 0 1 -9.53674e-008
    outer loop
      vertex -12 10 65
      vertex -12 10 75
      vertex -8 10 75
    endloop
  endfacet
  facet normal 0.928477 0 -0.371391
    outer loop
      vertex -8 10 75
      vertex -12 7.3026 65
      vertex -12 10 65
    endloop
  endfacet
  facet normal 0.928477 0 -0.371391
    outer loop
      vertex -12 7.3026 65
      vertex -8 10 75
      vertex -12 6 65
    endloop
  endfacet
  facet normal -1 0 0
    outer loop
      vertex -12 7.3026 65
      vertex -12 6 75
      vertex -12 7.50301 75
    endloop
  endfacet
  facet normal -1 0 -0
    outer loop
      vertex -12 6 75
      vertex -12 7.3026 65
      vertex -12 6 65
    endloop
  endfacet
  facet normal 0.928477 0 -0.371391
    outer loop
      vertex -8 6 75
      vertex -12 6 65
      vertex -8 10 75
    endloop
  endfacet
  facet normal 0 -1 9.53674e-008
    outer loop
      vertex -12 6 75
      vertex -12 6 65
      vertex -8 6 75
    endloop
  endfacet
  facet normal 0 0 1
    outer loop
      vertex -12 7.50301 75
      vertex -8 10 75
      vertex -12 10 75
    endloop
  endfacet
  facet normal 0 0 1
    outer loop
      vertex -8 10 75
      vertex -12 7.50301 75
      vertex -8 6 75
    endloop
  endfacet
  facet normal 0 0 1
    outer loop
      vertex -8 6 75
      vertex -12 7.50301 75
      vertex -12 6 75
    endloop
  endfacet
  facet normal 0 1 -9.53674e-008
    outer loop
      vertex -12 10 95
      vertex -12 10 105
      vertex -8 10 105
    endloop
  endfacet
  facet normal 0.928477 0 -0.371391
    outer loop
      vertex -8 10 105
      vertex -12 7.90381 95
      vertex -12 10 95
    endloop
  endfacet
  facet normal 0.928477 0 -0.371391
    outer loop
      vertex -12 7.90381 95
      vertex -8 10 105
      vertex -12 6 95
    endloop
  endfacet
  facet normal -1 -4.53222e-007 -8.62848e-008
    outer loop
      vertex -12 7.90381 95
      vertex -12 6 105
      vertex -12 8.10421 105
    endloop
  endfacet
  facet normal -1 0 -0
    outer loop
      vertex -12 6 105
      vertex -12 7.90381 95
      vertex -12 6 95
    endloop
  endfacet
  facet normal 0.928477 0 -0.371391
    outer loop
      vertex -8 6 105
      vertex -12 6 95
      vertex -8 10 105
    endloop
  endfacet
  facet normal -0 0 1
    outer loop
      vertex -12 8.10421 105
      vertex -8 6 105
      vertex -8 10 105
    endloop
  endfacet
  facet normal 0 0 1
    outer loop
      vertex -12 8.10421 105
      vertex -8 10 105
      vertex -12 10 105
    endloop
  endfacet
  facet normal 0 0 1
    outer loop
      vertex -8 6 105
      vertex -12 8.10421 105
      vertex -12 6 105
    endloop
  endfacet
  facet normal 0 -1 9.53674e-008
    outer loop
      vertex -12 6 105
      vertex -12 6 95
      vertex -8 6 105
    endloop
  endfacet
  facet normal 0 1 -9.53674e-008
    outer loop
      vertex -12 10 125
      vertex -12 10 135
      vertex -8 10 135
    endloop
  endfacet
  facet normal 0.928477 0 -0.371391
    outer loop
      vertex -8 10 135
      vertex -12 8.50501 125
      vertex -12 10 125
    endloop
  endfacet
  facet normal 0.928477 3.53477e-007 -0.371391
    outer loop
      vertex -12 8.50501 125
      vertex -8 10 135
      vertex -12 6 125
    endloop
  endfacet
  facet normal -1 -3.52506e-007 7.06431e-009
    outer loop
      vertex -12 8.50501 125
      vertex -12 6 135
      vertex -12 8.70541 135
    endloop
  endfacet
  facet normal -1 -3.80707e-007 3.6307e-014
    outer loop
      vertex -12 6 135
      vertex -12 8.50501 125
      vertex -12 6 125
    endloop
  endfacet
  facet normal 0.928477 0 -0.371391
    outer loop
      vertex -8 6 135
      vertex -12 6 125
      vertex -8 10 135
    endloop
  endfacet
  facet normal 0 -1 9.53674e-008
    outer loop
      vertex -12 6 135
      vertex -12 6 125
      vertex -8 6 135
    endloop
  endfacet
  facet normal -0 0 1
    outer loop
      vertex -12 8.70541 135
      vertex -8 6 135
      vertex -8 10 135
    endloop
  endfacet
  facet normal 0 0 1
    outer loop
      vertex -12 8.70541 135
      vertex -8 10 135
      vertex -12 10 135
    endloop
  endfacet
  facet normal 0 0 1
    outer loop
      vertex -8 6 135
      vertex -12 8.70541 135
      vertex -12 6 135
    endloop
  endfacet
  facet normal 0 1 -9.53674e-008
    outer loop
      vertex -12 10 155
      vertex -12 10 165
      vertex -8 10 165
    endloop
  endfacet
  facet normal 0.928477 0 -0.371391
    outer loop
      vertex -8 10 165
      vertex -12 9.10621 155
      vertex -12 10 155
    endloop
  endfacet
  facet normal 0.928477 2.85062e-007 -0.371391
    outer loop
      vertex -12 9.10621 155
      vertex -8 10 165
      vertex -12 6 155
    endloop
  endfacet
  facet normal -1 -2.88414e-007 5.77986e-009
    outer loop
      vertex -12 9.10621 155
      vertex -12 6 165
      vertex -12 9.30661 165
    endloop
  endfacet
  facet normal -1 -3.07022e-007 2.92799e-014
    outer loop
      vertex -12 6 165
      vertex -12 9.10621 155
      vertex -12 6 155
    endloop
  endfacet
  facet normal 0.928477 0 -0.371391
    outer loop
      vertex -8 6 165
      vertex -12 6 155
      vertex -8 10 165
    endloop
  endfacet
  facet normal 0 -1 9.53674e-008
    outer loop
      vertex -12 6 165
      vertex -12 6 155
      vertex -8 6 165
    endloop
  endfacet
  facet normal -0 0 1
    outer loop
      vertex -12 9.30661 165
      vertex -8 6 165
      vertex -8 10 165
    endloop
  endfacet
  facet normal 0 0 1
    outer loop
      vertex -12 9.30661 165
      vertex -8 10 165
      vertex -12 10 165
    endloop
  endfacet
  facet normal 0 0 1
    outer loop
      vertex -8 6 165
      vertex -12 9.30661 165
      vertex -12 6 165
    endloop
  endfacet
  facet normal 0 1 -9.53674e-008
    outer loop
      vertex -12 10 185
      vertex -12 10 195
      vertex -8 10 195
    endloop
  endfacet
  facet normal 0.928477 0 -0.371391
    outer loop
      vertex -8 10 195
      vertex -12 9.70741 185
      vertex -12 10 185
    endloop
  endfacet
  facet normal 0.928477 2.38836e-007 -0.371391
    outer loop
      vertex -12 9.70741 185
      vertex -8 10 195
      vertex -12 6 185
    endloop
  endfacet
  facet normal -1 -2.44043e-007 4.89067e-009
    outer loop
      vertex -12 9.70741 185
      vertex -12 6 195
      vertex -12 9.90782 195
    endloop
  endfacet
  facet normal -1 -2.57234e-007 2.45318e-014
    outer loop
      vertex -12 6 195
      vertex -12 9.70741 185
      vertex -12 6 185
    endloop
  endfacet
  facet normal 0.928477 0 -0.371391
    outer loop
      vertex -8 6 195
      vertex -12 6 185
      vertex -8 10 195
    endloop
  endfacet
  facet normal -0 0 1
    outer loop
      vertex -12 9.90782 195
      vertex -8 6 195
      vertex -8 10 195
    endloop
  endfacet
  facet normal 0 0 1
    outer loop
      vertex -12 9.90782 195
      vertex -8 10 195
      vertex -12 10 195
    endloop
  endfacet
  facet normal 0 0 1
    outer loop
      vertex -8 6 195
      vertex -12 9.90782 195
      vertex -12 6 195
    endloop
  endfacet
  facet normal 0 -1 9.53674e-008
    outer loop
      vertex -12 6 195
      vertex -12 6 185
      vertex -8 6 195
    endloop
  endfacet
  facet normal 0 0 1
    outer loop
      vertex -12 10 199.6
      vertex -21.5 6 199.6
      vertex -12 6 199.6
    endloop
  endfacet
  facet normal 0 0 1
    outer loop
      vertex -33.5 6 199.6
      vertex -21.5 6 199.6
      vertex -33.5 10 199.6
    endloop
  endfacet
  facet normal -0 0 1
    outer loop
      vertex -33.5 10 199.6
      vertex -21.5 6 199.6
      vertex -12 10 199.6
    endloop
  endfacet
  facet normal -0 0 1
    outer loop
      vertex -21.5 2 199.6
      vertex -4 0 199.6
      vertex -4 2 199.6
    endloop
  endfacet
  facet normal 0 0 1
    outer loop
      vertex -21.5 6 199.6
      vertex -33.5 6 199.6
      vertex -21.5 2 199.6
    endloop
  endfacet
  facet normal 0 0 1
    outer loop
      vertex -40 0 199.6
      vertex -33.5 6 199.6
      vertex -40 6 199.6
    endloop
  endfacet
  facet normal 0 0 1
    outer loop
      vertex -21.5 2 199.6
      vertex -40 0 199.6
      vertex -4 0 199.6
    endloop
  endfacet
  facet normal 0 0 1
    outer loop
      vertex -33.5 6 199.6
      vertex -40 0 199.6
      vertex -21.5 2 199.6
    endloop
  endfacet
  facet normal -0 0 1
    outer loop
      vertex -42 13.25 199.6
      vertex -40 6 199.6
      vertex -40 13.25 199.6
    endloop
  endfacet
  facet normal 0 0 1
    outer loop
      vertex -40 6 199.6
      vertex -42 2 199.6
      vertex -40 0 199.6
    endloop
  endfacet
  facet normal 0 0 1
    outer loop
      vertex -40 0 199.6
      vertex -42 2 199.6
      vertex -40.209 0.0109558 199.6
    endloop
  endfacet
  facet normal 0 0 1
    outer loop
      vertex -40.209 0.0109558 199.6
      vertex -42 2 199.6
      vertex -40.4158 0.0437012 199.6
    endloop
  endfacet
  facet normal 0 0 1
    outer loop
      vertex -40.4158 0.0437012 199.6
      vertex -42 2 199.6
      vertex -40.618 0.0978851 199.6
    endloop
  endfacet
  facet normal 0 0 1
    outer loop
      vertex -40.618 0.0978851 199.6
      vertex -42 2 199.6
      vertex -40.8135 0.172897 199.6
    endloop
  endfacet
  facet normal 0 0 1
    outer loop
      vertex -40.8135 0.172897 199.6
      vertex -42 2 199.6
      vertex -41 0.267944 199.6
    endloop
  endfacet
  facet normal 0 0 1
    outer loop
      vertex -41 0.267944 199.6
      vertex -42 2 199.6
      vertex -41.1756 0.381958 199.6
    endloop
  endfacet
  facet normal 0 0 1
    outer loop
      vertex -41.1756 0.381958 199.6
      vertex -42 2 199.6
      vertex -41.3383 0.513702 199.6
    endloop
  endfacet
  facet normal 0 0 1
    outer loop
      vertex -41.3383 0.513702 199.6
      vertex -42 2 199.6
      vertex -41.4863 0.661728 199.6
    endloop
  endfacet
  facet normal 0 0 1
    outer loop
      vertex -41.4863 0.661728 199.6
      vertex -42 2 199.6
      vertex -41.618 0.824417 199.6
    endloop
  endfacet
  facet normal 0 0 1
    outer loop
      vertex -41.618 0.824417 199.6
      vertex -42 2 199.6
      vertex -41.732 1 199.6
    endloop
  endfacet
  facet normal 0 0 1
    outer loop
      vertex -41.732 1 199.6
      vertex -42 2 199.6
      vertex -41.8271 1.18652 199.6
    endloop
  endfacet
  facet normal 0 0 1
    outer loop
      vertex -41.8271 1.18652 199.6
      vertex -42 2 199.6
      vertex -41.9021 1.38196 199.6
    endloop
  endfacet
  facet normal 0 0 1
    outer loop
      vertex -41.9021 1.38196 199.6
      vertex -42 2 199.6
      vertex -41.9563 1.58417 199.6
    endloop
  endfacet
  facet normal 0 0 1
    outer loop
      vertex -40 6 199.6
      vertex -42 13.25 199.6
      vertex -42 2 199.6
    endloop
  endfacet
  facet normal 0 0 1
    outer loop
      vertex -41.9563 1.58417 199.6
      vertex -42 2 199.6
      vertex -41.989 1.79094 199.6
    endloop
  endfacet
  facet normal -0 0 1
    outer loop
      vertex -42 24 199.6
      vertex -40 16.75 199.6
      vertex -40 24 199.6
    endloop
  endfacet
  facet normal 0 0 1
    outer loop
      vertex -40 16.75 199.6
      vertex -42 24 199.6
      vertex -42 16.75 199.6
    endloop
  endfacet
  facet normal 0 0 -1
    outer loop
      vertex -4 2 0
      vertex -33.5 6 0
      vertex -4 10 0
    endloop
  endfacet
  facet normal 0 0 -1
    outer loop
      vertex -4 0 0
      vertex -33.5 6 0
      vertex -4 2 0
    endloop
  endfacet
  facet normal 0 0 -1
    outer loop
      vertex -40 0 0
      vertex -33.5 6 0
      vertex -4 0 0
    endloop
  endfacet
  facet normal 0 0 -1
    outer loop
      vertex -40 0 0
      vertex -40 6 0
      vertex -33.5 6 0
    endloop
  endfacet
  facet normal 0 0 -1
    outer loop
      vertex -42 2 0
      vertex -40 6 0
      vertex -40 0 0
    endloop
  endfacet
  facet normal 0 0 -1
    outer loop
      vertex -42 2 0
      vertex -40 0 0
      vertex -40.209 0.0109558 0
    endloop
  endfacet
  facet normal 0 0 -1
    outer loop
      vertex -42 2 0
      vertex -40.209 0.0109558 0
      vertex -40.4158 0.0437012 0
    endloop
  endfacet
  facet normal 0 0 -1
    outer loop
      vertex -42 2 0
      vertex -40.4158 0.0437012 0
      vertex -40.618 0.0978851 0
    endloop
  endfacet
  facet normal 0 0 -1
    outer loop
      vertex -42 2 0
      vertex -40.618 0.0978851 0
      vertex -40.8135 0.172897 0
    endloop
  endfacet
  facet normal 0 0 -1
    outer loop
      vertex -42 2 0
      vertex -40.8135 0.172897 0
      vertex -41 0.267944 0
    endloop
  endfacet
  facet normal 0 0 -1
    outer loop
      vertex -42 2 0
      vertex -41 0.267944 0
      vertex -41.1756 0.381958 0
    endloop
  endfacet
  facet normal 0 0 -1
    outer loop
      vertex -42 2 0
      vertex -41.1756 0.381958 0
      vertex -41.3383 0.513702 0
    endloop
  endfacet
  facet normal 0 0 -1
    outer loop
      vertex -42 2 0
      vertex -41.3383 0.513702 0
      vertex -41.4863 0.661728 0
    endloop
  endfacet
  facet normal 0 0 -1
    outer loop
      vertex -42 2 0
      vertex -41.4863 0.661728 0
      vertex -41.618 0.824417 0
    endloop
  endfacet
  facet normal 0 0 -1
    outer loop
      vertex -42 2 0
      vertex -41.618 0.824417 0
      vertex -41.732 1 0
    endloop
  endfacet
  facet normal 0 0 -1
    outer loop
      vertex -42 2 0
      vertex -41.732 1 0
      vertex -41.8271 1.18652 0
    endloop
  endfacet
  facet normal 0 0 -1
    outer loop
      vertex -42 2 0
      vertex -41.8271 1.18652 0
      vertex -41.9021 1.38196 0
    endloop
  endfacet
  facet normal 0 0 -1
    outer loop
      vertex -42 2 0
      vertex -41.9021 1.38196 0
      vertex -41.9563 1.58417 0
    endloop
  endfacet
  facet normal 0 0 -1
    outer loop
      vertex -42 2 0
      vertex -41.9563 1.58417 0
      vertex -41.989 1.79094 0
    endloop
  endfacet
  facet normal 0 0 -1
    outer loop
      vertex -42 24 0
      vertex -40 6 0
      vertex -42 2 0
    endloop
  endfacet
  facet normal 0 0 -1
    outer loop
      vertex -40 6 0
      vertex -42 24 0
      vertex -40 24 0
    endloop
  endfacet
  facet normal -0 0 -1
    outer loop
      vertex -4 10 0
      vertex -33.5 6 0
      vertex -33.5 10 0
    endloop
  endfacet
  facet normal -0.156415 -0.987691 0
    outer loop
      vertex -40.4158 0.0437012 0
      vertex -40.209 0.0109558 199.6
      vertex -40.4158 0.0437012 199.6
    endloop
  endfacet
  facet normal -0.156415 -0.987691 -0
    outer loop
      vertex -40.209 0.0109558 199.6
      vertex -40.4158 0.0437012 0
      vertex -40.209 0.0109558 0
    endloop
  endfacet
  facet normal -0.258828 -0.965923 0
    outer loop
      vertex -40.618 0.0978851 0
      vertex -40.4158 0.0437012 199.6
      vertex -40.618 0.0978851 199.6
    endloop
  endfacet
  facet normal -0.258828 -0.965923 -0
    outer loop
      vertex -40.4158 0.0437012 199.6
      vertex -40.618 0.0978851 0
      vertex -40.4158 0.0437012 0
    endloop
  endfacet
  facet normal -0.358334 -0.933593 0
    outer loop
      vertex -40.8135 0.172897 0
      vertex -40.618 0.0978851 199.6
      vertex -40.8135 0.172897 199.6
    endloop
  endfacet
  facet normal -0.358334 -0.933593 -0
    outer loop
      vertex -40.618 0.0978851 199.6
      vertex -40.8135 0.172897 0
      vertex -40.618 0.0978851 0
    endloop
  endfacet
  facet normal -0.453993 -0.891005 0
    outer loop
      vertex -41 0.267944 0
      vertex -40.8135 0.172897 199.6
      vertex -41 0.267944 199.6
    endloop
  endfacet
  facet normal -0.453993 -0.891005 -0
    outer loop
      vertex -40.8135 0.172897 199.6
      vertex -41 0.267944 0
      vertex -40.8135 0.172897 0
    endloop
  endfacet
  facet normal -0.544635 -0.838673 0
    outer loop
      vertex -41.1756 0.381958 0
      vertex -41 0.267944 199.6
      vertex -41.1756 0.381958 199.6
    endloop
  endfacet
  facet normal -0.544635 -0.838673 -0
    outer loop
      vertex -41 0.267944 199.6
      vertex -41.1756 0.381958 0
      vertex -41 0.267944 0
    endloop
  endfacet
  facet normal -0.629324 -0.777143 0
    outer loop
      vertex -41.3383 0.513702 0
      vertex -41.1756 0.381958 199.6
      vertex -41.3383 0.513702 199.6
    endloop
  endfacet
  facet normal -0.629324 -0.777143 -0
    outer loop
      vertex -41.1756 0.381958 199.6
      vertex -41.3383 0.513702 0
      vertex -41.1756 0.381958 0
    endloop
  endfacet
  facet normal -0.707107 -0.707107 0
    outer loop
      vertex -41.3383 0.513702 0
      vertex -41.4863 0.661728 199.6
      vertex -41.4863 0.661728 0
    endloop
  endfacet
  facet normal -0.707107 -0.707107 0
    outer loop
      vertex -41.4863 0.661728 199.6
      vertex -41.3383 0.513702 0
      vertex -41.3383 0.513702 199.6
    endloop
  endfacet
  facet normal -0.777143 -0.629324 0
    outer loop
      vertex -41.4863 0.661728 0
      vertex -41.618 0.824417 199.6
      vertex -41.618 0.824417 0
    endloop
  endfacet
  facet normal -0.777143 -0.629324 0
    outer loop
      vertex -41.618 0.824417 199.6
      vertex -41.4863 0.661728 0
      vertex -41.4863 0.661728 199.6
    endloop
  endfacet
  facet normal -0.838695 -0.544601 0
    outer loop
      vertex -41.618 0.824417 0
      vertex -41.732 1 199.6
      vertex -41.732 1 0
    endloop
  endfacet
  facet normal -0.838695 -0.544601 0
    outer loop
      vertex -41.732 1 199.6
      vertex -41.618 0.824417 0
      vertex -41.618 0.824417 199.6
    endloop
  endfacet
  facet normal -0.89099 -0.454023 0
    outer loop
      vertex -41.732 1 0
      vertex -41.8271 1.18652 199.6
      vertex -41.8271 1.18652 0
    endloop
  endfacet
  facet normal -0.89099 -0.454023 0
    outer loop
      vertex -41.8271 1.18652 199.6
      vertex -41.732 1 0
      vertex -41.732 1 199.6
    endloop
  endfacet
  facet normal -0.933593 -0.358334 0
    outer loop
      vertex -41.8271 1.18652 0
      vertex -41.9021 1.38196 199.6
      vertex -41.9021 1.38196 0
    endloop
  endfacet
  facet normal -0.933593 -0.358334 0
    outer loop
      vertex -41.9021 1.38196 199.6
      vertex -41.8271 1.18652 0
      vertex -41.8271 1.18652 199.6
    endloop
  endfacet
  facet normal -0.965923 -0.258828 0
    outer loop
      vertex -41.9021 1.38196 0
      vertex -41.9563 1.58417 199.6
      vertex -41.9563 1.58417 0
    endloop
  endfacet
  facet normal -0.965923 -0.258828 0
    outer loop
      vertex -41.9563 1.58417 199.6
      vertex -41.9021 1.38196 0
      vertex -41.9021 1.38196 199.6
    endloop
  endfacet
  facet normal -0.987691 -0.156415 0
    outer loop
      vertex -41.9563 1.58417 0
      vertex -41.989 1.79094 199.6
      vertex -41.989 1.79094 0
    endloop
  endfacet
  facet normal -0.987691 -0.156415 0
    outer loop
      vertex -41.989 1.79094 199.6
      vertex -41.9563 1.58417 0
      vertex -41.9563 1.58417 199.6
    endloop
  endfacet
  facet normal -0.998626 -0.0524058 0
    outer loop
      vertex -41.989 1.79094 0
      vertex -42 2 199.6
      vertex -42 2 0
    endloop
  endfacet
  facet normal -0.998626 -0.0524058 0
    outer loop
      vertex -42 2 199.6
      vertex -41.989 1.79094 0
      vertex -41.989 1.79094 199.6
    endloop
  endfacet
  facet normal -1 0 0
    outer loop
      vertex -42 24 0
      vertex -42 16.75 67.7
      vertex -42 24 199.6
    endloop
  endfacet
  facet normal -1 0 0
    outer loop
      vertex -42 24 0
      vertex -42 16.6643 67.1592
      vertex -42 16.75 67.7
    endloop
  endfacet
  facet normal -1 0 0
    outer loop
      vertex -42 24 0
      vertex -42 16.4158 66.6714
      vertex -42 16.6643 67.1592
    endloop
  endfacet
  facet normal -1 0 0
    outer loop
      vertex -42 24 0
      vertex -42 16.0286 66.2842
      vertex -42 16.4158 66.6714
    endloop
  endfacet
  facet normal -1 0 0
    outer loop
      vertex -42 24 0
      vertex -42 15.5408 66.0357
      vertex -42 16.0286 66.2842
    endloop
  endfacet
  facet normal -1 0 0
    outer loop
      vertex -42 24 0
      vertex -42 15 65.95
      vertex -42 15.5408 66.0357
    endloop
  endfacet
  facet normal -1 0 0
    outer loop
      vertex -42 2 0
      vertex -42 15 65.95
      vertex -42 24 0
    endloop
  endfacet
  facet normal -1 -0 0
    outer loop
      vertex -42 15 65.95
      vertex -42 2 0
      vertex -42 14.4592 66.0357
    endloop
  endfacet
  facet normal -1 -0 0
    outer loop
      vertex -42 14.4592 66.0357
      vertex -42 2 0
      vertex -42 13.9714 66.2842
    endloop
  endfacet
  facet normal -1 -0 0
    outer loop
      vertex -42 13.9714 66.2842
      vertex -42 2 0
      vertex -42 13.5842 66.6714
    endloop
  endfacet
  facet normal -1 -0 0
    outer loop
      vertex -42 13.5842 66.6714
      vertex -42 2 0
      vertex -42 13.3357 67.1592
    endloop
  endfacet
  facet normal -1 0 0
    outer loop
      vertex -42 2 0
      vertex -42 13.25 67.7
      vertex -42 13.3357 67.1592
    endloop
  endfacet
  facet normal -1 0 0
    outer loop
      vertex -42 2 199.6
      vertex -42 13.25 67.7
      vertex -42 2 0
    endloop
  endfacet
  facet normal -1 0 0
    outer loop
      vertex -42 13.25 67.7
      vertex -42 2 199.6
      vertex -42 13.25 199.6
    endloop
  endfacet
  facet normal -1 0 0
    outer loop
      vertex -42 16.6643 68.2408
      vertex -42 24 199.6
      vertex -42 16.75 67.7
    endloop
  endfacet
  facet normal -1 0 0
    outer loop
      vertex -42 16.4158 68.7286
      vertex -42 24 199.6
      vertex -42 16.6643 68.2408
    endloop
  endfacet
  facet normal -1 -0 0
    outer loop
      vertex -42 24 199.6
      vertex -42 16.6643 199.059
      vertex -42 16.75 199.6
    endloop
  endfacet
  facet normal -1 0 0
    outer loop
      vertex -42 16.0286 69.1158
      vertex -42 24 199.6
      vertex -42 16.4158 68.7286
    endloop
  endfacet
  facet normal -1 0 0
    outer loop
      vertex -42 24 199.6
      vertex -42 16.4158 198.571
      vertex -42 16.6643 199.059
    endloop
  endfacet
  facet normal -1 0 0
    outer loop
      vertex -42 15.5408 69.3643
      vertex -42 24 199.6
      vertex -42 16.0286 69.1158
    endloop
  endfacet
  facet normal -1 0 0
    outer loop
      vertex -42 24 199.6
      vertex -42 16.0286 198.184
      vertex -42 16.4158 198.571
    endloop
  endfacet
  facet normal -1 0 0
    outer loop
      vertex -42 15.5408 197.936
      vertex -42 24 199.6
      vertex -42 15.5408 69.3643
    endloop
  endfacet
  facet normal -1 0 0
    outer loop
      vertex -42 24 199.6
      vertex -42 15.5408 197.936
      vertex -42 16.0286 198.184
    endloop
  endfacet
  facet normal -1 0 0
    outer loop
      vertex -42 15 69.45
      vertex -42 15.5408 197.936
      vertex -42 15.5408 69.3643
    endloop
  endfacet
  facet normal -1 0 0
    outer loop
      vertex -42 15 69.45
      vertex -42 15 197.85
      vertex -42 15.5408 197.936
    endloop
  endfacet
  facet normal -1 0 0
    outer loop
      vertex -42 14.4592 69.3643
      vertex -42 15 197.85
      vertex -42 15 69.45
    endloop
  endfacet
  facet normal -1 0 0
    outer loop
      vertex -42 14.4592 69.3643
      vertex -42 14.4592 197.936
      vertex -42 15 197.85
    endloop
  endfacet
  facet normal -1 0 0
    outer loop
      vertex -42 13.9714 69.1158
      vertex -42 14.4592 197.936
      vertex -42 14.4592 69.3643
    endloop
  endfacet
  facet normal -1 0 0
    outer loop
      vertex -42 13.9714 69.1158
      vertex -42 13.9714 198.184
      vertex -42 14.4592 197.936
    endloop
  endfacet
  facet normal -1 0 0
    outer loop
      vertex -42 13.5842 68.7286
      vertex -42 13.9714 198.184
      vertex -42 13.9714 69.1158
    endloop
  endfacet
  facet normal -1 0 0
    outer loop
      vertex -42 13.5842 68.7286
      vertex -42 13.5842 198.571
      vertex -42 13.9714 198.184
    endloop
  endfacet
  facet normal -1 0 0
    outer loop
      vertex -42 13.3357 68.2408
      vertex -42 13.5842 198.571
      vertex -42 13.5842 68.7286
    endloop
  endfacet
  facet normal -1 0 0
    outer loop
      vertex -42 13.3357 68.2408
      vertex -42 13.3357 199.059
      vertex -42 13.5842 198.571
    endloop
  endfacet
  facet normal -1 0 0
    outer loop
      vertex -42 13.25 67.7
      vertex -42 13.3357 199.059
      vertex -42 13.3357 68.2408
    endloop
  endfacet
  facet normal -1 -0 0
    outer loop
      vertex -42 13.3357 199.059
      vertex -42 13.25 67.7
      vertex -42 13.25 199.6
    endloop
  endfacet
  facet normal 0 1 -0
    outer loop
      vertex -40 24 0
      vertex -42 24 199.6
      vertex -40 24 199.6
    endloop
  endfacet
  facet normal 0 1 0
    outer loop
      vertex -42 24 199.6
      vertex -40 24 0
      vertex -42 24 0
    endloop
  endfacet
  facet normal 1 0 0
    outer loop
      vertex -40 16.4158 198.571
      vertex -40 24 199.6
      vertex -40 16.6643 199.059
    endloop
  endfacet
  facet normal 1 0 0
    outer loop
      vertex -40 24 199.6
      vertex -40 16.6643 68.2408
      vertex -40 16.75 67.7
    endloop
  endfacet
  facet normal 1 0 0
    outer loop
      vertex -40 16.0286 198.184
      vertex -40 24 199.6
      vertex -40 16.4158 198.571
    endloop
  endfacet
  facet normal 1 0 0
    outer loop
      vertex -40 24 199.6
      vertex -40 16.4158 68.7286
      vertex -40 16.6643 68.2408
    endloop
  endfacet
  facet normal 1 0 0
    outer loop
      vertex -40 15.5408 197.936
      vertex -40 24 199.6
      vertex -40 16.0286 198.184
    endloop
  endfacet
  facet normal 1 0 0
    outer loop
      vertex -40 24 199.6
      vertex -40 16.0286 69.1158
      vertex -40 16.4158 68.7286
    endloop
  endfacet
  facet normal 1 0 0
    outer loop
      vertex -40 15.5408 69.3643
      vertex -40 24 199.6
      vertex -40 15.5408 197.936
    endloop
  endfacet
  facet normal 1 0 0
    outer loop
      vertex -40 24 199.6
      vertex -40 15.5408 69.3643
      vertex -40 16.0286 69.1158
    endloop
  endfacet
  facet normal 1 -0 0
    outer loop
      vertex -40 15 197.85
      vertex -40 15.5408 69.3643
      vertex -40 15.5408 197.936
    endloop
  endfacet
  facet normal 1 0 0
    outer loop
      vertex -40 15 197.85
      vertex -40 15 69.45
      vertex -40 15.5408 69.3643
    endloop
  endfacet
  facet normal 1 0 0
    outer loop
      vertex -40 14.4592 197.936
      vertex -40 15 69.45
      vertex -40 15 197.85
    endloop
  endfacet
  facet normal 1 0 0
    outer loop
      vertex -40 14.4592 197.936
      vertex -40 14.4592 69.3643
      vertex -40 15 69.45
    endloop
  endfacet
  facet normal 1 0 0
    outer loop
      vertex -40 6 199.6
      vertex -40 14.4592 197.936
      vertex -40 13.9714 198.184
    endloop
  endfacet
  facet normal 1 0 0
    outer loop
      vertex -40 14.4592 197.936
      vertex -40 6 199.6
      vertex -40 14.4592 69.3643
    endloop
  endfacet
  facet normal 1 0 0
    outer loop
      vertex -40 6 199.6
      vertex -40 13.9714 198.184
      vertex -40 13.5842 198.571
    endloop
  endfacet
  facet normal 1 0 0
    outer loop
      vertex -40 14.4592 69.3643
      vertex -40 6 199.6
      vertex -40 13.9714 69.1158
    endloop
  endfacet
  facet normal 1 0 0
    outer loop
      vertex -40 6 199.6
      vertex -40 13.5842 198.571
      vertex -40 13.3357 199.059
    endloop
  endfacet
  facet normal 1 0 0
    outer loop
      vertex -40 13.9714 69.1158
      vertex -40 6 199.6
      vertex -40 13.5842 68.7286
    endloop
  endfacet
  facet normal 1 -0 0
    outer loop
      vertex -40 6 199.6
      vertex -40 13.3357 199.059
      vertex -40 13.25 199.6
    endloop
  endfacet
  facet normal 1 0 0
    outer loop
      vertex -40 13.5842 68.7286
      vertex -40 6 199.6
      vertex -40 13.3357 68.2408
    endloop
  endfacet
  facet normal 1 0 0
    outer loop
      vertex -40 13.3357 68.2408
      vertex -40 6 199.6
      vertex -40 13.25 67.7
    endloop
  endfacet
  facet normal 1 0 0
    outer loop
      vertex -40 16.6643 199.059
      vertex -40 24 199.6
      vertex -40 16.75 199.6
    endloop
  endfacet
  facet normal 1 0 0
    outer loop
      vertex -40 24 199.6
      vertex -40 16.75 67.7
      vertex -40 24 0
    endloop
  endfacet
  facet normal 1 -0 0
    outer loop
      vertex -40 16.6643 67.1592
      vertex -40 24 0
      vertex -40 16.75 67.7
    endloop
  endfacet
  facet normal 1 -0 0
    outer loop
      vertex -40 16.4158 66.6714
      vertex -40 24 0
      vertex -40 16.6643 67.1592
    endloop
  endfacet
  facet normal 1 -0 0
    outer loop
      vertex -40 16.0286 66.2842
      vertex -40 24 0
      vertex -40 16.4158 66.6714
    endloop
  endfacet
  facet normal 1 -0 0
    outer loop
      vertex -40 15.5408 66.0357
      vertex -40 24 0
      vertex -40 16.0286 66.2842
    endloop
  endfacet
  facet normal 1 -0 0
    outer loop
      vertex -40 15 65.95
      vertex -40 24 0
      vertex -40 15.5408 66.0357
    endloop
  endfacet
  facet normal 1 0 0
    outer loop
      vertex -40 6 0
      vertex -40 15 65.95
      vertex -40 14.4592 66.0357
    endloop
  endfacet
  facet normal 1 0 0
    outer loop
      vertex -40 6 0
      vertex -40 14.4592 66.0357
      vertex -40 13.9714 66.2842
    endloop
  endfacet
  facet normal 1 0 0
    outer loop
      vertex -40 6 0
      vertex -40 13.9714 66.2842
      vertex -40 13.5842 66.6714
    endloop
  endfacet
  facet normal 1 0 0
    outer loop
      vertex -40 6 0
      vertex -40 13.5842 66.6714
      vertex -40 13.3357 67.1592
    endloop
  endfacet
  facet normal 1 0 0
    outer loop
      vertex -40 15 65.95
      vertex -40 6 0
      vertex -40 24 0
    endloop
  endfacet
  facet normal 1 0 0
    outer loop
      vertex -40 13.25 67.7
      vertex -40 6 0
      vertex -40 13.3357 67.1592
    endloop
  endfacet
  facet normal 1 0 0
    outer loop
      vertex -40 6 0
      vertex -40 13.25 67.7
      vertex -40 6 199.6
    endloop
  endfacet
  facet normal 0 1 -0
    outer loop
      vertex -33.5 6 0
      vertex -40 6 199.6
      vertex -33.5 6 199.6
    endloop
  endfacet
  facet normal 0 1 0
    outer loop
      vertex -40 6 199.6
      vertex -33.5 6 0
      vertex -40 6 0
    endloop
  endfacet
  facet normal -1 0 0
    outer loop
      vertex -33.5 6 0
      vertex -33.5 10 199.6
      vertex -33.5 10 0
    endloop
  endfacet
  facet normal -1 -0 0
    outer loop
      vertex -33.5 10 199.6
      vertex -33.5 6 0
      vertex -33.5 6 199.6
    endloop
  endfacet
  facet normal 0 1 0
    outer loop
      vertex -4 10 58
      vertex -4 10 0
      vertex -12 10 58
    endloop
  endfacet
  facet normal 0 1 -0
    outer loop
      vertex -12 10 195
      vertex -33.5 10 199.6
      vertex -12 10 199.6
    endloop
  endfacet
  facet normal 0 1 -0
    outer loop
      vertex -12 10 165
      vertex -33.5 10 199.6
      vertex -12 10 195
    endloop
  endfacet
  facet normal 0 1 -0
    outer loop
      vertex -12 10 135
      vertex -33.5 10 199.6
      vertex -12 10 165
    endloop
  endfacet
  facet normal 0 1 -0
    outer loop
      vertex -12 10 105
      vertex -33.5 10 199.6
      vertex -12 10 135
    endloop
  endfacet
  facet normal 0 1 0
    outer loop
      vertex -33.5 10 0
      vertex -12 10 105
      vertex -12 10 75
    endloop
  endfacet
  facet normal 0 1 0
    outer loop
      vertex -33.5 10 0
      vertex -12 10 75
      vertex -12 10 58
    endloop
  endfacet
  facet normal 0 1 0
    outer loop
      vertex -33.5 10 0
      vertex -12 10 58
      vertex -4 10 0
    endloop
  endfacet
  facet normal 0 1 0
    outer loop
      vertex -12 10 105
      vertex -33.5 10 0
      vertex -33.5 10 199.6
    endloop
  endfacet
  facet normal 1 0 0
    outer loop
      vertex -12 10 199.6
      vertex -12 9.90782 195
      vertex -12 10 195
    endloop
  endfacet
  facet normal 1 -0 0
    outer loop
      vertex -12 6 199.6
      vertex -12 9.90782 195
      vertex -12 10 199.6
    endloop
  endfacet
  facet normal 1 0 0
    outer loop
      vertex -12 6 199.6
      vertex -12 9.30661 165
      vertex -12 9.70741 185
    endloop
  endfacet
  facet normal 1 0 0
    outer loop
      vertex -12 6 199.6
      vertex -12 8.70541 135
      vertex -12 9.10621 155
    endloop
  endfacet
  facet normal 1 0 0
    outer loop
      vertex -12 9.30661 165
      vertex -12 6 199.6
      vertex -12 9.10621 155
    endloop
  endfacet
  facet normal 1 8.20488e-007 -1.64426e-008
    outer loop
      vertex -12 6 58
      vertex -12 8.10421 105
      vertex -12 8.50501 125
    endloop
  endfacet
  facet normal 1 0 0
    outer loop
      vertex -12 6 58
      vertex -12 7.50301 75
      vertex -12 7.90381 95
    endloop
  endfacet
  facet normal 1 -3.03582e-006 1.56206e-007
    outer loop
      vertex -12 8.10421 105
      vertex -12 6 58
      vertex -12 7.90381 95
    endloop
  endfacet
  facet normal 1 2.0057e-007 6.73499e-009
    outer loop
      vertex -12 6 58
      vertex -12 8.50501 125
      vertex -12 6 199.6
    endloop
  endfacet
  facet normal 1 0 0
    outer loop
      vertex -12 8.70541 135
      vertex -12 6 199.6
      vertex -12 8.50501 125
    endloop
  endfacet
  facet normal 1 0 0
    outer loop
      vertex -12 9.90782 195
      vertex -12 6 199.6
      vertex -12 9.70741 185
    endloop
  endfacet
  facet normal 1 -0 0
    outer loop
      vertex -12 10 185
      vertex -12 10 165
      vertex -12 10 195
    endloop
  endfacet
  facet normal 1 -0 0
    outer loop
      vertex -12 9.70741 185
      vertex -12 10 165
      vertex -12 10 185
    endloop
  endfacet
  facet normal 1 0 0
    outer loop
      vertex -12 10 165
      vertex -12 9.70741 185
      vertex -12 9.30661 165
    endloop
  endfacet
  facet normal 1 -0 0
    outer loop
      vertex -12 10 155
      vertex -12 10 135
      vertex -12 10 165
    endloop
  endfacet
  facet normal 1 -0 0
    outer loop
      vertex -12 9.10621 155
      vertex -12 10 135
      vertex -12 10 155
    endloop
  endfacet
  facet normal 1 0 0
    outer loop
      vertex -12 10 135
      vertex -12 9.10621 155
      vertex -12 8.70541 135
    endloop
  endfacet
  facet normal 1 -0 0
    outer loop
      vertex -12 10 125
      vertex -12 10 105
      vertex -12 10 135
    endloop
  endfacet
  facet normal 1 -0 0
    outer loop
      vertex -12 8.50501 125
      vertex -12 10 105
      vertex -12 10 125
    endloop
  endfacet
  facet normal 1 0 0
    outer loop
      vertex -12 10 105
      vertex -12 8.50501 125
      vertex -12 8.10421 105
    endloop
  endfacet
  facet normal 0.83205 0.5547 2.64502e-008
    outer loop
      vertex -12 10 95
      vertex -12 10 75
      vertex -12 10 105
    endloop
  endfacet
  facet normal 1 -0 0
    outer loop
      vertex -12 7.90381 95
      vertex -12 10 75
      vertex -12 10 95
    endloop
  endfacet
  facet normal 1 0 0
    outer loop
      vertex -12 10 75
      vertex -12 7.90381 95
      vertex -12 7.50301 75
    endloop
  endfacet
  facet normal 1 -0 0
    outer loop
      vertex -12 10 65
      vertex -12 10 58
      vertex -12 10 75
    endloop
  endfacet
  facet normal 1 -0 0
    outer loop
      vertex -12 7.3026 65
      vertex -12 10 58
      vertex -12 10 65
    endloop
  endfacet
  facet normal 1 0 0
    outer loop
      vertex -12 7.3026 65
      vertex -12 6 58
      vertex -12 10 58
    endloop
  endfacet
  facet normal 1 0 0
    outer loop
      vertex -12 7.50301 75
      vertex -12 6 58
      vertex -12 7.3026 65
    endloop
  endfacet
  facet normal 0 -1 0
    outer loop
      vertex -21.5 6 58
      vertex -12 6 199.6
      vertex -21.5 6 199.6
    endloop
  endfacet
  facet normal 0 -1 -0
    outer loop
      vertex -12 6 199.6
      vertex -21.5 6 58
      vertex -12 6 58
    endloop
  endfacet
  facet normal 1 -0 0
    outer loop
      vertex -21.5 2 199.6
      vertex -21.5 6 58
      vertex -21.5 6 199.6
    endloop
  endfacet
  facet normal 1 0 0
    outer loop
      vertex -21.5 6 58
      vertex -21.5 2 199.6
      vertex -21.5 2 58
    endloop
  endfacet
  facet normal 0 1 0
    outer loop
      vertex -4 2 199.6
      vertex -4 2 58
      vertex -21.5 2 199.6
    endloop
  endfacet
  facet normal 0 1 0
    outer loop
      vertex -4 2 0
      vertex -4 2 58
      vertex -4 2 199.6
    endloop
  endfacet
  facet normal 0 1 0
    outer loop
      vertex -21.5 2 199.6
      vertex -4 2 58
      vertex -21.5 2 58
    endloop
  endfacet
  facet normal 1 -0 4.77793e-009
    outer loop
      vertex -4 0 199.6
      vertex -4 2 0
      vertex -4 2 199.6
    endloop
  endfacet
  facet normal 1 0 4.77793e-009
    outer loop
      vertex -4 2 0
      vertex -4 0 199.6
      vertex -4 0 0
    endloop
  endfacet
  facet normal 0 -1 0
    outer loop
      vertex -40 0 0
      vertex -4 0 199.6
      vertex -40 0 199.6
    endloop
  endfacet
  facet normal 0 -1 -0
    outer loop
      vertex -4 0 199.6
      vertex -40 0 0
      vertex -4 0 0
    endloop
  endfacet
  facet normal -0.0523369 -0.998629 0
    outer loop
      vertex -40.209 0.0109558 0
      vertex -40 0 199.6
      vertex -40.209 0.0109558 199.6
    endloop
  endfacet
  facet normal -0.0523369 -0.998629 -0
    outer loop
      vertex -40 0 199.6
      vertex -40.209 0.0109558 0
      vertex -40 0 0
    endloop
  endfacet
  facet normal 0 -0.891007 0.45399
    outer loop
      vertex -42 16.4158 66.6714
      vertex -40 16.6643 67.1592
      vertex -42 16.6643 67.1592
    endloop
  endfacet
  facet normal 0 -0.891007 0.45399
    outer loop
      vertex -40 16.6643 67.1592
      vertex -42 16.4158 66.6714
      vertex -40 16.4158 66.6714
    endloop
  endfacet
  facet normal 0 -0.453996 -0.891003
    outer loop
      vertex -42 15.5408 69.3643
      vertex -40 16.0286 69.1158
      vertex -40 15.5408 69.3643
    endloop
  endfacet
  facet normal -0 -0.453996 -0.891003
    outer loop
      vertex -40 16.0286 69.1158
      vertex -42 15.5408 69.3643
      vertex -42 16.0286 69.1158
    endloop
  endfacet
  facet normal -0 0.156442 0.987687
    outer loop
      vertex -42 15 65.95
      vertex -40 14.4592 66.0357
      vertex -40 15 65.95
    endloop
  endfacet
  facet normal 0 0.156442 0.987687
    outer loop
      vertex -40 14.4592 66.0357
      vertex -42 15 65.95
      vertex -42 14.4592 66.0357
    endloop
  endfacet
  facet normal 0 0.891007 -0.45399
    outer loop
      vertex -40 13.3357 68.2408
      vertex -42 13.5842 68.7286
      vertex -40 13.5842 68.7286
    endloop
  endfacet
  facet normal 0 0.891007 -0.45399
    outer loop
      vertex -42 13.5842 68.7286
      vertex -40 13.3357 68.2408
      vertex -42 13.3357 68.2408
    endloop
  endfacet
  facet normal 0 -0.453985 0.891009
    outer loop
      vertex -42 16.0286 66.2842
      vertex -40 15.5408 66.0357
      vertex -40 16.0286 66.2842
    endloop
  endfacet
  facet normal 0 -0.453985 0.891009
    outer loop
      vertex -40 15.5408 66.0357
      vertex -42 16.0286 66.2842
      vertex -42 15.5408 66.0357
    endloop
  endfacet
  facet normal 0 -0.987688 -0.156435
    outer loop
      vertex -42 16.75 67.7
      vertex -40 16.6643 68.2408
      vertex -42 16.6643 68.2408
    endloop
  endfacet
  facet normal 0 -0.987688 -0.156435
    outer loop
      vertex -40 16.6643 68.2408
      vertex -42 16.75 67.7
      vertex -40 16.75 67.7
    endloop
  endfacet
  facet normal 0 -0.707105 -0.707109
    outer loop
      vertex -42 16.0286 69.1158
      vertex -40 16.4158 68.7286
      vertex -40 16.0286 69.1158
    endloop
  endfacet
  facet normal -0 -0.707105 -0.707109
    outer loop
      vertex -40 16.4158 68.7286
      vertex -42 16.0286 69.1158
      vertex -42 16.4158 68.7286
    endloop
  endfacet
  facet normal 0 -0.891007 -0.45399
    outer loop
      vertex -42 16.6643 68.2408
      vertex -40 16.4158 68.7286
      vertex -42 16.4158 68.7286
    endloop
  endfacet
  facet normal 0 -0.891007 -0.45399
    outer loop
      vertex -40 16.4158 68.7286
      vertex -42 16.6643 68.2408
      vertex -40 16.6643 68.2408
    endloop
  endfacet
  facet normal -0 0.707105 0.707109
    outer loop
      vertex -42 13.9714 66.2842
      vertex -40 13.5842 66.6714
      vertex -40 13.9714 66.2842
    endloop
  endfacet
  facet normal 0 0.707105 0.707109
    outer loop
      vertex -40 13.5842 66.6714
      vertex -42 13.9714 66.2842
      vertex -42 13.5842 66.6714
    endloop
  endfacet
  facet normal 0 0.987688 0.156435
    outer loop
      vertex -40 13.3357 67.1592
      vertex -42 13.25 67.7
      vertex -40 13.25 67.7
    endloop
  endfacet
  facet normal 0 0.987688 0.156435
    outer loop
      vertex -42 13.25 67.7
      vertex -40 13.3357 67.1592
      vertex -42 13.3357 67.1592
    endloop
  endfacet
  facet normal -0 0.453985 0.891009
    outer loop
      vertex -42 14.4592 66.0357
      vertex -40 13.9714 66.2842
      vertex -40 14.4592 66.0357
    endloop
  endfacet
  facet normal 0 0.453985 0.891009
    outer loop
      vertex -40 13.9714 66.2842
      vertex -42 14.4592 66.0357
      vertex -42 13.9714 66.2842
    endloop
  endfacet
  facet normal 0 0.156428 -0.987689
    outer loop
      vertex -42 14.4592 69.3643
      vertex -40 15 69.45
      vertex -40 14.4592 69.3643
    endloop
  endfacet
  facet normal 0 0.156428 -0.987689
    outer loop
      vertex -40 15 69.45
      vertex -42 14.4592 69.3643
      vertex -42 15 69.45
    endloop
  endfacet
  facet normal 0 0.707105 -0.707109
    outer loop
      vertex -42 13.5842 68.7286
      vertex -40 13.9714 69.1158
      vertex -40 13.5842 68.7286
    endloop
  endfacet
  facet normal 0 0.707105 -0.707109
    outer loop
      vertex -40 13.9714 69.1158
      vertex -42 13.5842 68.7286
      vertex -42 13.9714 69.1158
    endloop
  endfacet
  facet normal 0 0.453996 -0.891003
    outer loop
      vertex -42 13.9714 69.1158
      vertex -40 14.4592 69.3643
      vertex -40 13.9714 69.1158
    endloop
  endfacet
  facet normal 0 0.453996 -0.891003
    outer loop
      vertex -40 14.4592 69.3643
      vertex -42 13.9714 69.1158
      vertex -42 14.4592 69.3643
    endloop
  endfacet
  facet normal 0 -0.707105 0.707109
    outer loop
      vertex -42 16.4158 66.6714
      vertex -40 16.0286 66.2842
      vertex -40 16.4158 66.6714
    endloop
  endfacet
  facet normal 0 -0.707105 0.707109
    outer loop
      vertex -40 16.0286 66.2842
      vertex -42 16.4158 66.6714
      vertex -42 16.0286 66.2842
    endloop
  endfacet
  facet normal 0 -0.987688 0.156435
    outer loop
      vertex -42 16.6643 67.1592
      vertex -40 16.75 67.7
      vertex -42 16.75 67.7
    endloop
  endfacet
  facet normal 0 -0.987688 0.156435
    outer loop
      vertex -40 16.75 67.7
      vertex -42 16.6643 67.1592
      vertex -40 16.6643 67.1592
    endloop
  endfacet
  facet normal 0 -0.156428 -0.987689
    outer loop
      vertex -42 15 69.45
      vertex -40 15.5408 69.3643
      vertex -40 15 69.45
    endloop
  endfacet
  facet normal -0 -0.156428 -0.987689
    outer loop
      vertex -40 15.5408 69.3643
      vertex -42 15 69.45
      vertex -42 15.5408 69.3643
    endloop
  endfacet
  facet normal 0 -0.156442 0.987687
    outer loop
      vertex -42 15.5408 66.0357
      vertex -40 15 65.95
      vertex -40 15.5408 66.0357
    endloop
  endfacet
  facet normal 0 -0.156442 0.987687
    outer loop
      vertex -40 15 65.95
      vertex -42 15.5408 66.0357
      vertex -42 15 65.95
    endloop
  endfacet
  facet normal 0 0.891007 0.45399
    outer loop
      vertex -40 13.5842 66.6714
      vertex -42 13.3357 67.1592
      vertex -40 13.3357 67.1592
    endloop
  endfacet
  facet normal 0 0.891007 0.45399
    outer loop
      vertex -42 13.3357 67.1592
      vertex -40 13.5842 66.6714
      vertex -42 13.5842 66.6714
    endloop
  endfacet
  facet normal 0 0.987688 -0.156435
    outer loop
      vertex -40 13.25 67.7
      vertex -42 13.3357 68.2408
      vertex -40 13.3357 68.2408
    endloop
  endfacet
  facet normal 0 0.987688 -0.156435
    outer loop
      vertex -42 13.3357 68.2408
      vertex -40 13.25 67.7
      vertex -42 13.25 67.7
    endloop
  endfacet
  facet normal 0 -0.156428 0.987689
    outer loop
      vertex -42 15.5408 197.936
      vertex -40 15 197.85
      vertex -40 15.5408 197.936
    endloop
  endfacet
  facet normal 0 -0.156428 0.987689
    outer loop
      vertex -40 15 197.85
      vertex -42 15.5408 197.936
      vertex -42 15 197.85
    endloop
  endfacet
  facet normal 0 -0.891004 0.453995
    outer loop
      vertex -42 16.4158 198.571
      vertex -40 16.6643 199.059
      vertex -42 16.6643 199.059
    endloop
  endfacet
  facet normal 0 -0.891004 0.453995
    outer loop
      vertex -40 16.6643 199.059
      vertex -42 16.4158 198.571
      vertex -40 16.4158 198.571
    endloop
  endfacet
  facet normal 0 -0.453985 0.891009
    outer loop
      vertex -42 16.0286 198.184
      vertex -40 15.5408 197.936
      vertex -40 16.0286 198.184
    endloop
  endfacet
  facet normal 0 -0.453985 0.891009
    outer loop
      vertex -40 15.5408 197.936
      vertex -42 16.0286 198.184
      vertex -42 15.5408 197.936
    endloop
  endfacet
  facet normal 0 0.987689 0.156433
    outer loop
      vertex -40 13.3357 199.059
      vertex -42 13.25 199.6
      vertex -40 13.25 199.6
    endloop
  endfacet
  facet normal 0 0.987689 0.156433
    outer loop
      vertex -42 13.25 199.6
      vertex -40 13.3357 199.059
      vertex -42 13.3357 199.059
    endloop
  endfacet
  facet normal 0 0.891004 0.453995
    outer loop
      vertex -40 13.5842 198.571
      vertex -42 13.3357 199.059
      vertex -40 13.3357 199.059
    endloop
  endfacet
  facet normal 0 0.891004 0.453995
    outer loop
      vertex -42 13.3357 199.059
      vertex -40 13.5842 198.571
      vertex -42 13.5842 198.571
    endloop
  endfacet
  facet normal 0 -0.707112 0.707102
    outer loop
      vertex -42 16.0286 198.184
      vertex -40 16.4158 198.571
      vertex -42 16.4158 198.571
    endloop
  endfacet
  facet normal 0 -0.707112 0.707102
    outer loop
      vertex -40 16.4158 198.571
      vertex -42 16.0286 198.184
      vertex -40 16.0286 198.184
    endloop
  endfacet
  facet normal 0 -0.987689 0.156433
    outer loop
      vertex -42 16.6643 199.059
      vertex -40 16.75 199.6
      vertex -42 16.75 199.6
    endloop
  endfacet
  facet normal 0 -0.987689 0.156433
    outer loop
      vertex -40 16.75 199.6
      vertex -42 16.6643 199.059
      vertex -40 16.6643 199.059
    endloop
  endfacet
  facet normal -0 0.453985 0.891009
    outer loop
      vertex -42 14.4592 197.936
      vertex -40 13.9714 198.184
      vertex -40 14.4592 197.936
    endloop
  endfacet
  facet normal 0 0.453985 0.891009
    outer loop
      vertex -40 13.9714 198.184
      vertex -42 14.4592 197.936
      vertex -42 13.9714 198.184
    endloop
  endfacet
  facet normal -0 0.156428 0.987689
    outer loop
      vertex -42 15 197.85
      vertex -40 14.4592 197.936
      vertex -40 15 197.85
    endloop
  endfacet
  facet normal 0 0.156428 0.987689
    outer loop
      vertex -40 14.4592 197.936
      vertex -42 15 197.85
      vertex -42 14.4592 197.936
    endloop
  endfacet
  facet normal 0 0.707112 0.707102
    outer loop
      vertex -40 13.9714 198.184
      vertex -42 13.5842 198.571
      vertex -40 13.5842 198.571
    endloop
  endfacet
  facet normal 0 0.707112 0.707102
    outer loop
      vertex -42 13.5842 198.571
      vertex -40 13.9714 198.184
      vertex -42 13.9714 198.184
    endloop
  endfacet
  facet normal 0 0 1
    outer loop
      vertex -12 6 58
      vertex -4 10 58
      vertex -12 10 58
    endloop
  endfacet
  facet normal 0 0 1
    outer loop
      vertex -4 10 58
      vertex -12 6 58
      vertex -4 2 58
    endloop
  endfacet
  facet normal 0 0 1
    outer loop
      vertex -21.5 2 58
      vertex -12 6 58
      vertex -21.5 6 58
    endloop
  endfacet
  facet normal 0 0 1
    outer loop
      vertex -12 6 58
      vertex -21.5 2 58
      vertex -4 2 58
    endloop
  endfacet
  facet normal 1 -0 0
    outer loop
      vertex -4 2 58
      vertex -4 10 0
      vertex -4 10 58
    endloop
  endfacet
  facet normal 1 0 0
    outer loop
      vertex -4 10 0
      vertex -4 2 58
      vertex -4 2 0
    endloop
  endfacet
endsolid OpenSCAD_Model
