solid OpenSCAD_Model
  facet normal -1 0 0
    outer loop
      vertex 8 6 225
      vertex 8 10 236
      vertex 8 10 225
    endloop
  endfacet
  facet normal -1 -0 0
    outer loop
      vertex 8 10 236
      vertex 8 6 225
      vertex 8 6 236
    endloop
  endfacet
  facet normal -1 0 0
    outer loop
      vertex 8 10 195
      vertex 8 10 215
      vertex 8 10 225
    endloop
  endfacet
  facet normal -1 0 0
    outer loop
      vertex 8 6 195
      vertex 8 10 215
      vertex 8 10 195
    endloop
  endfacet
  facet normal -1 -0 0
    outer loop
      vertex 8 10 215
      vertex 8 6 195
      vertex 8 6 215
    endloop
  endfacet
  facet normal -1 0 0
    outer loop
      vertex 8 10 165
      vertex 8 10 185
      vertex 8 10 195
    endloop
  endfacet
  facet normal -1 0 0
    outer loop
      vertex 8 6 165
      vertex 8 10 185
      vertex 8 10 165
    endloop
  endfacet
  facet normal -1 -0 0
    outer loop
      vertex 8 10 185
      vertex 8 6 165
      vertex 8 6 185
    endloop
  endfacet
  facet normal -1 0 0
    outer loop
      vertex 8 10 135
      vertex 8 10 155
      vertex 8 10 165
    endloop
  endfacet
  facet normal -1 0 0
    outer loop
      vertex 8 6 135
      vertex 8 10 155
      vertex 8 10 135
    endloop
  endfacet
  facet normal -1 -0 0
    outer loop
      vertex 8 10 155
      vertex 8 6 135
      vertex 8 6 155
    endloop
  endfacet
  facet normal -1 0 0
    outer loop
      vertex 8 10 105
      vertex 8 10 125
      vertex 8 10 135
    endloop
  endfacet
  facet normal -1 0 0
    outer loop
      vertex 8 6 105
      vertex 8 10 125
      vertex 8 10 105
    endloop
  endfacet
  facet normal -1 -0 0
    outer loop
      vertex 8 10 125
      vertex 8 6 105
      vertex 8 6 125
    endloop
  endfacet
  facet normal -1 0 0
    outer loop
      vertex 8 10 75
      vertex 8 10 95
      vertex 8 10 105
    endloop
  endfacet
  facet normal -1 0 0
    outer loop
      vertex 8 6 75
      vertex 8 10 95
      vertex 8 10 75
    endloop
  endfacet
  facet normal -1 -0 0
    outer loop
      vertex 8 10 95
      vertex 8 6 75
      vertex 8 6 95
    endloop
  endfacet
  facet normal -1 0 0
    outer loop
      vertex 8 10 45
      vertex 8 10 65
      vertex 8 10 75
    endloop
  endfacet
  facet normal -1 0 0
    outer loop
      vertex 8 6 45
      vertex 8 10 65
      vertex 8 10 45
    endloop
  endfacet
  facet normal -1 -0 0
    outer loop
      vertex 8 10 65
      vertex 8 6 45
      vertex 8 6 65
    endloop
  endfacet
  facet normal 0 0 1
    outer loop
      vertex 8 10 45
      vertex 0 10 45
      vertex 8 6 45
    endloop
  endfacet
  facet normal -0 0 1
    outer loop
      vertex 8 6 45
      vertex 17.5 2 45
      vertex 17.5 6 45
    endloop
  endfacet
  facet normal 0 0 1
    outer loop
      vertex 8 6 45
      vertex 0 2 45
      vertex 17.5 2 45
    endloop
  endfacet
  facet normal 0 0 1
    outer loop
      vertex 0 2 45
      vertex 8 6 45
      vertex 0 10 45
    endloop
  endfacet
  facet normal 0 1 -9.53674e-008
    outer loop
      vertex 8 10 65
      vertex 4 10 75
      vertex 8 10 75
    endloop
  endfacet
  facet normal -0 0 1
    outer loop
      vertex 4 10 75
      vertex 8 6 75
      vertex 8 10 75
    endloop
  endfacet
  facet normal 0 0 1
    outer loop
      vertex 8 6 75
      vertex 4 10 75
      vertex 4 6 75
    endloop
  endfacet
  facet normal -0.928477 0 -0.371391
    outer loop
      vertex 8 6 65
      vertex 4 10 75
      vertex 8 10 65
    endloop
  endfacet
  facet normal -0.928477 0 -0.371391
    outer loop
      vertex 8 6 65
      vertex 4 6 75
      vertex 4 10 75
    endloop
  endfacet
  facet normal 0 -1 9.53674e-008
    outer loop
      vertex 8 6 75
      vertex 4 6 75
      vertex 8 6 65
    endloop
  endfacet
  facet normal 0 1 -9.53674e-008
    outer loop
      vertex 8 10 95
      vertex 4 10 105
      vertex 8 10 105
    endloop
  endfacet
  facet normal -0 0 1
    outer loop
      vertex 4 10 105
      vertex 8 6 105
      vertex 8 10 105
    endloop
  endfacet
  facet normal 0 0 1
    outer loop
      vertex 8 6 105
      vertex 4 10 105
      vertex 4 6 105
    endloop
  endfacet
  facet normal -0.928477 0 -0.371391
    outer loop
      vertex 8 6 95
      vertex 4 10 105
      vertex 8 10 95
    endloop
  endfacet
  facet normal -0.928477 0 -0.371391
    outer loop
      vertex 8 6 95
      vertex 4 6 105
      vertex 4 10 105
    endloop
  endfacet
  facet normal 0 -1 9.53674e-008
    outer loop
      vertex 8 6 105
      vertex 4 6 105
      vertex 8 6 95
    endloop
  endfacet
  facet normal 0 1 -9.53674e-008
    outer loop
      vertex 8 10 125
      vertex 4 10 135
      vertex 8 10 135
    endloop
  endfacet
  facet normal -0 0 1
    outer loop
      vertex 4 10 135
      vertex 8 6 135
      vertex 8 10 135
    endloop
  endfacet
  facet normal 0 0 1
    outer loop
      vertex 8 6 135
      vertex 4 10 135
      vertex 4 6 135
    endloop
  endfacet
  facet normal -0.928477 0 -0.371391
    outer loop
      vertex 8 6 125
      vertex 4 10 135
      vertex 8 10 125
    endloop
  endfacet
  facet normal -0.928477 0 -0.371391
    outer loop
      vertex 8 6 125
      vertex 4 6 135
      vertex 4 10 135
    endloop
  endfacet
  facet normal 0 -1 9.53674e-008
    outer loop
      vertex 8 6 135
      vertex 4 6 135
      vertex 8 6 125
    endloop
  endfacet
  facet normal 0 1 -9.53674e-008
    outer loop
      vertex 8 10 155
      vertex 4 10 165
      vertex 8 10 165
    endloop
  endfacet
  facet normal -0 0 1
    outer loop
      vertex 4 10 165
      vertex 8 6 165
      vertex 8 10 165
    endloop
  endfacet
  facet normal 0 0 1
    outer loop
      vertex 8 6 165
      vertex 4 10 165
      vertex 4 6 165
    endloop
  endfacet
  facet normal -0.928477 0 -0.371391
    outer loop
      vertex 8 6 155
      vertex 4 10 165
      vertex 8 10 155
    endloop
  endfacet
  facet normal -0.928477 0 -0.371391
    outer loop
      vertex 8 6 155
      vertex 4 6 165
      vertex 4 10 165
    endloop
  endfacet
  facet normal 0 -1 9.53674e-008
    outer loop
      vertex 8 6 165
      vertex 4 6 165
      vertex 8 6 155
    endloop
  endfacet
  facet normal 0 1 -9.53674e-008
    outer loop
      vertex 8 10 185
      vertex 4 10 195
      vertex 8 10 195
    endloop
  endfacet
  facet normal -0 0 1
    outer loop
      vertex 4 10 195
      vertex 8 6 195
      vertex 8 10 195
    endloop
  endfacet
  facet normal 0 0 1
    outer loop
      vertex 8 6 195
      vertex 4 10 195
      vertex 4 6 195
    endloop
  endfacet
  facet normal -0.928477 0 -0.371391
    outer loop
      vertex 8 6 185
      vertex 4 10 195
      vertex 8 10 185
    endloop
  endfacet
  facet normal -0.928477 0 -0.371391
    outer loop
      vertex 8 6 185
      vertex 4 6 195
      vertex 4 10 195
    endloop
  endfacet
  facet normal 0 -1 9.53674e-008
    outer loop
      vertex 8 6 195
      vertex 4 6 195
      vertex 8 6 185
    endloop
  endfacet
  facet normal 0 1 -9.53674e-008
    outer loop
      vertex 8 10 215
      vertex 4 10 225
      vertex 8 10 225
    endloop
  endfacet
  facet normal -0 0 1
    outer loop
      vertex 4 10 225
      vertex 8 6 225
      vertex 8 10 225
    endloop
  endfacet
  facet normal 0 0 1
    outer loop
      vertex 8 6 225
      vertex 4 10 225
      vertex 4 6 225
    endloop
  endfacet
  facet normal -0.928477 0 -0.371391
    outer loop
      vertex 8 6 215
      vertex 4 10 225
      vertex 8 10 215
    endloop
  endfacet
  facet normal -0.928477 0 -0.371391
    outer loop
      vertex 8 6 215
      vertex 4 6 225
      vertex 4 10 225
    endloop
  endfacet
  facet normal 0 -1 9.53674e-008
    outer loop
      vertex 8 6 225
      vertex 4 6 225
      vertex 8 6 215
    endloop
  endfacet
  facet normal 0 0 -1
    outer loop
      vertex 36 0 0
      vertex 29.5 6 0
      vertex 36 6 0
    endloop
  endfacet
  facet normal 0 0 -1
    outer loop
      vertex 0 0 0
      vertex 29.5 6 0
      vertex 36 0 0
    endloop
  endfacet
  facet normal 0 0 -1
    outer loop
      vertex 0 10 0
      vertex 29.5 6 0
      vertex 0 0 0
    endloop
  endfacet
  facet normal 0 0 -1
    outer loop
      vertex 29.5 6 0
      vertex 0 10 0
      vertex 29.5 10 0
    endloop
  endfacet
  facet normal 0 0 -1
    outer loop
      vertex 36 0 0
      vertex 38 2 0
      vertex 37.989 1.79094 0
    endloop
  endfacet
  facet normal 0 0 -1
    outer loop
      vertex 36 0 0
      vertex 37.989 1.79094 0
      vertex 37.9563 1.58417 0
    endloop
  endfacet
  facet normal 0 0 -1
    outer loop
      vertex 36 0 0
      vertex 37.9563 1.58417 0
      vertex 37.9021 1.38196 0
    endloop
  endfacet
  facet normal 0 0 -1
    outer loop
      vertex 36 0 0
      vertex 37.9021 1.38196 0
      vertex 37.8271 1.18652 0
    endloop
  endfacet
  facet normal 0 0 -1
    outer loop
      vertex 36 0 0
      vertex 37.8271 1.18652 0
      vertex 37.732 1 0
    endloop
  endfacet
  facet normal 0 0 -1
    outer loop
      vertex 36 0 0
      vertex 37.732 1 0
      vertex 37.618 0.824417 0
    endloop
  endfacet
  facet normal 0 0 -1
    outer loop
      vertex 36 0 0
      vertex 37.618 0.824417 0
      vertex 37.4863 0.661728 0
    endloop
  endfacet
  facet normal 0 0 -1
    outer loop
      vertex 36 0 0
      vertex 37.4863 0.661728 0
      vertex 37.3383 0.513702 0
    endloop
  endfacet
  facet normal 0 0 -1
    outer loop
      vertex 36 0 0
      vertex 37.3383 0.513702 0
      vertex 37.1756 0.381958 0
    endloop
  endfacet
  facet normal 0 0 -1
    outer loop
      vertex 36 0 0
      vertex 37.1756 0.381958 0
      vertex 37 0.267944 0
    endloop
  endfacet
  facet normal 0 0 -1
    outer loop
      vertex 36 0 0
      vertex 37 0.267944 0
      vertex 36.8135 0.172897 0
    endloop
  endfacet
  facet normal 0 0 -1
    outer loop
      vertex 36 0 0
      vertex 36.8135 0.172897 0
      vertex 36.618 0.0978851 0
    endloop
  endfacet
  facet normal 0 0 -1
    outer loop
      vertex 36 0 0
      vertex 36.618 0.0978851 0
      vertex 36.4158 0.0437012 0
    endloop
  endfacet
  facet normal 0 0 -1
    outer loop
      vertex 36 0 0
      vertex 36.4158 0.0437012 0
      vertex 36.209 0.0109558 0
    endloop
  endfacet
  facet normal -0 0 -1
    outer loop
      vertex 38 2 0
      vertex 36 0 0
      vertex 36 6 0
    endloop
  endfacet
  facet normal 0 0 -1
    outer loop
      vertex 38 2 0
      vertex 36 6 0
      vertex 38 24 0
    endloop
  endfacet
  facet normal -0 0 -1
    outer loop
      vertex 38 24 0
      vertex 36 6 0
      vertex 36 24 0
    endloop
  endfacet
  facet normal 0 0 1
    outer loop
      vertex 29.5 10 236
      vertex 17.5 6 236
      vertex 29.5 6 236
    endloop
  endfacet
  facet normal -0 0 1
    outer loop
      vertex 8 10 236
      vertex 17.5 6 236
      vertex 29.5 10 236
    endloop
  endfacet
  facet normal 0 0 1
    outer loop
      vertex 17.5 6 236
      vertex 8 10 236
      vertex 8 6 236
    endloop
  endfacet
  facet normal -0 0 1
    outer loop
      vertex 36 6 236
      vertex 38 2 236
      vertex 38 24 236
    endloop
  endfacet
  facet normal 0 0 1
    outer loop
      vertex 36 0 236
      vertex 38 2 236
      vertex 36 6 236
    endloop
  endfacet
  facet normal 0 0 1
    outer loop
      vertex 38 2 236
      vertex 36 0 236
      vertex 37.989 1.79094 236
    endloop
  endfacet
  facet normal 0 0 1
    outer loop
      vertex 37.989 1.79094 236
      vertex 36 0 236
      vertex 37.9563 1.58417 236
    endloop
  endfacet
  facet normal 0 0 1
    outer loop
      vertex 37.9563 1.58417 236
      vertex 36 0 236
      vertex 37.9021 1.38196 236
    endloop
  endfacet
  facet normal 0 0 1
    outer loop
      vertex 37.9021 1.38196 236
      vertex 36 0 236
      vertex 37.8271 1.18652 236
    endloop
  endfacet
  facet normal 0 0 1
    outer loop
      vertex 37.8271 1.18652 236
      vertex 36 0 236
      vertex 37.732 1 236
    endloop
  endfacet
  facet normal 0 0 1
    outer loop
      vertex 37.732 1 236
      vertex 36 0 236
      vertex 37.618 0.824417 236
    endloop
  endfacet
  facet normal 0 0 1
    outer loop
      vertex 37.618 0.824417 236
      vertex 36 0 236
      vertex 37.4863 0.661728 236
    endloop
  endfacet
  facet normal 0 0 1
    outer loop
      vertex 37.4863 0.661728 236
      vertex 36 0 236
      vertex 37.3383 0.513702 236
    endloop
  endfacet
  facet normal 0 0 1
    outer loop
      vertex 37.3383 0.513702 236
      vertex 36 0 236
      vertex 37.1756 0.381958 236
    endloop
  endfacet
  facet normal 0 0 1
    outer loop
      vertex 37.1756 0.381958 236
      vertex 36 0 236
      vertex 37 0.267944 236
    endloop
  endfacet
  facet normal 0 0 1
    outer loop
      vertex 37 0.267944 236
      vertex 36 0 236
      vertex 36.8135 0.172897 236
    endloop
  endfacet
  facet normal 0 0 1
    outer loop
      vertex 36.8135 0.172897 236
      vertex 36 0 236
      vertex 36.618 0.0978851 236
    endloop
  endfacet
  facet normal 0 0 1
    outer loop
      vertex 36 6 236
      vertex 38 24 236
      vertex 36 24 236
    endloop
  endfacet
  facet normal 0 0 1
    outer loop
      vertex 36.618 0.0978851 236
      vertex 36 0 236
      vertex 36.4158 0.0437012 236
    endloop
  endfacet
  facet normal 0 0 1
    outer loop
      vertex 36.4158 0.0437012 236
      vertex 36 0 236
      vertex 36.209 0.0109558 236
    endloop
  endfacet
  facet normal -0 0 1
    outer loop
      vertex 29.5 6 236
      vertex 36 0 236
      vertex 36 6 236
    endloop
  endfacet
  facet normal 0 0 1
    outer loop
      vertex 17.5 2 236
      vertex 29.5 6 236
      vertex 17.5 6 236
    endloop
  endfacet
  facet normal 0 0 1
    outer loop
      vertex 29.5 6 236
      vertex 17.5 2 236
      vertex 36 0 236
    endloop
  endfacet
  facet normal 0 0 1
    outer loop
      vertex 0 0 236
      vertex 17.5 2 236
      vertex 0 2 236
    endloop
  endfacet
  facet normal 0 0 1
    outer loop
      vertex 17.5 2 236
      vertex 0 0 236
      vertex 36 0 236
    endloop
  endfacet
  facet normal 0.156415 -0.987691 0
    outer loop
      vertex 36.209 0.0109558 0
      vertex 36.4158 0.0437012 236
      vertex 36.209 0.0109558 236
    endloop
  endfacet
  facet normal 0.156415 -0.987691 0
    outer loop
      vertex 36.4158 0.0437012 236
      vertex 36.209 0.0109558 0
      vertex 36.4158 0.0437012 0
    endloop
  endfacet
  facet normal 0.258828 -0.965923 0
    outer loop
      vertex 36.4158 0.0437012 0
      vertex 36.618 0.0978851 236
      vertex 36.4158 0.0437012 236
    endloop
  endfacet
  facet normal 0.258828 -0.965923 0
    outer loop
      vertex 36.618 0.0978851 236
      vertex 36.4158 0.0437012 0
      vertex 36.618 0.0978851 0
    endloop
  endfacet
  facet normal 0.358334 -0.933593 0
    outer loop
      vertex 36.618 0.0978851 0
      vertex 36.8135 0.172897 236
      vertex 36.618 0.0978851 236
    endloop
  endfacet
  facet normal 0.358334 -0.933593 0
    outer loop
      vertex 36.8135 0.172897 236
      vertex 36.618 0.0978851 0
      vertex 36.8135 0.172897 0
    endloop
  endfacet
  facet normal 0.453993 -0.891005 0
    outer loop
      vertex 36.8135 0.172897 0
      vertex 37 0.267944 236
      vertex 36.8135 0.172897 236
    endloop
  endfacet
  facet normal 0.453993 -0.891005 0
    outer loop
      vertex 37 0.267944 236
      vertex 36.8135 0.172897 0
      vertex 37 0.267944 0
    endloop
  endfacet
  facet normal 0.544635 -0.838673 0
    outer loop
      vertex 37 0.267944 0
      vertex 37.1756 0.381958 236
      vertex 37 0.267944 236
    endloop
  endfacet
  facet normal 0.544635 -0.838673 0
    outer loop
      vertex 37.1756 0.381958 236
      vertex 37 0.267944 0
      vertex 37.1756 0.381958 0
    endloop
  endfacet
  facet normal 0.629324 -0.777143 0
    outer loop
      vertex 37.1756 0.381958 0
      vertex 37.3383 0.513702 236
      vertex 37.1756 0.381958 236
    endloop
  endfacet
  facet normal 0.629324 -0.777143 0
    outer loop
      vertex 37.3383 0.513702 236
      vertex 37.1756 0.381958 0
      vertex 37.3383 0.513702 0
    endloop
  endfacet
  facet normal 0.707107 -0.707107 0
    outer loop
      vertex 37.3383 0.513702 236
      vertex 37.4863 0.661728 0
      vertex 37.4863 0.661728 236
    endloop
  endfacet
  facet normal 0.707107 -0.707107 0
    outer loop
      vertex 37.4863 0.661728 0
      vertex 37.3383 0.513702 236
      vertex 37.3383 0.513702 0
    endloop
  endfacet
  facet normal 0.777143 -0.629324 0
    outer loop
      vertex 37.4863 0.661728 236
      vertex 37.618 0.824417 0
      vertex 37.618 0.824417 236
    endloop
  endfacet
  facet normal 0.777143 -0.629324 0
    outer loop
      vertex 37.618 0.824417 0
      vertex 37.4863 0.661728 236
      vertex 37.4863 0.661728 0
    endloop
  endfacet
  facet normal 0.838695 -0.544601 0
    outer loop
      vertex 37.618 0.824417 236
      vertex 37.732 1 0
      vertex 37.732 1 236
    endloop
  endfacet
  facet normal 0.838695 -0.544601 0
    outer loop
      vertex 37.732 1 0
      vertex 37.618 0.824417 236
      vertex 37.618 0.824417 0
    endloop
  endfacet
  facet normal 0.89099 -0.454023 0
    outer loop
      vertex 37.732 1 236
      vertex 37.8271 1.18652 0
      vertex 37.8271 1.18652 236
    endloop
  endfacet
  facet normal 0.89099 -0.454023 0
    outer loop
      vertex 37.8271 1.18652 0
      vertex 37.732 1 236
      vertex 37.732 1 0
    endloop
  endfacet
  facet normal 0.933593 -0.358334 0
    outer loop
      vertex 37.8271 1.18652 236
      vertex 37.9021 1.38196 0
      vertex 37.9021 1.38196 236
    endloop
  endfacet
  facet normal 0.933593 -0.358334 0
    outer loop
      vertex 37.9021 1.38196 0
      vertex 37.8271 1.18652 236
      vertex 37.8271 1.18652 0
    endloop
  endfacet
  facet normal 0.965923 -0.258828 0
    outer loop
      vertex 37.9021 1.38196 236
      vertex 37.9563 1.58417 0
      vertex 37.9563 1.58417 236
    endloop
  endfacet
  facet normal 0.965923 -0.258828 0
    outer loop
      vertex 37.9563 1.58417 0
      vertex 37.9021 1.38196 236
      vertex 37.9021 1.38196 0
    endloop
  endfacet
  facet normal 0.987691 -0.156415 0
    outer loop
      vertex 37.9563 1.58417 236
      vertex 37.989 1.79094 0
      vertex 37.989 1.79094 236
    endloop
  endfacet
  facet normal 0.987691 -0.156415 0
    outer loop
      vertex 37.989 1.79094 0
      vertex 37.9563 1.58417 236
      vertex 37.9563 1.58417 0
    endloop
  endfacet
  facet normal 0.998626 -0.0524058 0
    outer loop
      vertex 37.989 1.79094 236
      vertex 38 2 0
      vertex 38 2 236
    endloop
  endfacet
  facet normal 0.998626 -0.0524058 0
    outer loop
      vertex 38 2 0
      vertex 37.989 1.79094 236
      vertex 37.989 1.79094 0
    endloop
  endfacet
  facet normal 1 -0 0
    outer loop
      vertex 38 16.6643 174.459
      vertex 38 16.75 53
      vertex 38 16.75 175
    endloop
  endfacet
  facet normal 1 0 0
    outer loop
      vertex 38 16.6643 174.459
      vertex 38 16.6643 53.5408
      vertex 38 16.75 53
    endloop
  endfacet
  facet normal 1 -0 0
    outer loop
      vertex 38 16.4158 173.971
      vertex 38 16.6643 53.5408
      vertex 38 16.6643 174.459
    endloop
  endfacet
  facet normal 1 0 0
    outer loop
      vertex 38 16.4158 173.971
      vertex 38 16.4158 54.0286
      vertex 38 16.6643 53.5408
    endloop
  endfacet
  facet normal 1 -0 0
    outer loop
      vertex 38 16.0286 173.584
      vertex 38 16.4158 54.0286
      vertex 38 16.4158 173.971
    endloop
  endfacet
  facet normal 1 0 0
    outer loop
      vertex 38 16.0286 173.584
      vertex 38 16.0286 54.4158
      vertex 38 16.4158 54.0286
    endloop
  endfacet
  facet normal 1 -0 0
    outer loop
      vertex 38 15.5408 173.336
      vertex 38 16.0286 54.4158
      vertex 38 16.0286 173.584
    endloop
  endfacet
  facet normal 1 0 0
    outer loop
      vertex 38 15.5408 173.336
      vertex 38 15.5408 54.6643
      vertex 38 16.0286 54.4158
    endloop
  endfacet
  facet normal 1 -0 0
    outer loop
      vertex 38 15 173.25
      vertex 38 15.5408 54.6643
      vertex 38 15.5408 173.336
    endloop
  endfacet
  facet normal 1 0 0
    outer loop
      vertex 38 15 173.25
      vertex 38 15 54.75
      vertex 38 15.5408 54.6643
    endloop
  endfacet
  facet normal 1 0 0
    outer loop
      vertex 38 14.4592 173.336
      vertex 38 15 54.75
      vertex 38 15 173.25
    endloop
  endfacet
  facet normal 1 0 0
    outer loop
      vertex 38 14.4592 173.336
      vertex 38 14.4592 54.6643
      vertex 38 15 54.75
    endloop
  endfacet
  facet normal 1 0 0
    outer loop
      vertex 38 13.9714 173.584
      vertex 38 14.4592 54.6643
      vertex 38 14.4592 173.336
    endloop
  endfacet
  facet normal 1 0 0
    outer loop
      vertex 38 13.9714 173.584
      vertex 38 13.9714 54.4158
      vertex 38 14.4592 54.6643
    endloop
  endfacet
  facet normal 1 0 0
    outer loop
      vertex 38 13.5842 173.971
      vertex 38 13.9714 54.4158
      vertex 38 13.9714 173.584
    endloop
  endfacet
  facet normal 1 0 0
    outer loop
      vertex 38 13.5842 173.971
      vertex 38 13.5842 54.0286
      vertex 38 13.9714 54.4158
    endloop
  endfacet
  facet normal 1 0 0
    outer loop
      vertex 38 13.3357 174.459
      vertex 38 13.5842 54.0286
      vertex 38 13.5842 173.971
    endloop
  endfacet
  facet normal 1 0 0
    outer loop
      vertex 38 13.3357 174.459
      vertex 38 13.3357 53.5408
      vertex 38 13.5842 54.0286
    endloop
  endfacet
  facet normal 1 0 0
    outer loop
      vertex 38 13.25 175
      vertex 38 13.3357 53.5408
      vertex 38 13.3357 174.459
    endloop
  endfacet
  facet normal 1 0 0
    outer loop
      vertex 38 13.3357 53.5408
      vertex 38 13.25 175
      vertex 38 13.25 53
    endloop
  endfacet
  facet normal 1 0 0
    outer loop
      vertex 38 24 236
      vertex 38 16.75 175
      vertex 38 24 0
    endloop
  endfacet
  facet normal 1 0 0
    outer loop
      vertex 38 24 236
      vertex 38 16.6643 175.541
      vertex 38 16.75 175
    endloop
  endfacet
  facet normal 1 0 0
    outer loop
      vertex 38 24 236
      vertex 38 16.4158 176.029
      vertex 38 16.6643 175.541
    endloop
  endfacet
  facet normal 1 0 0
    outer loop
      vertex 38 24 236
      vertex 38 16.0286 176.416
      vertex 38 16.4158 176.029
    endloop
  endfacet
  facet normal 1 0 0
    outer loop
      vertex 38 24 236
      vertex 38 15.5408 176.664
      vertex 38 16.0286 176.416
    endloop
  endfacet
  facet normal 1 0 0
    outer loop
      vertex 38 24 236
      vertex 38 15 176.75
      vertex 38 15.5408 176.664
    endloop
  endfacet
  facet normal 1 -0 0
    outer loop
      vertex 38 2 236
      vertex 38 15 176.75
      vertex 38 24 236
    endloop
  endfacet
  facet normal 1 0 0
    outer loop
      vertex 38 15 176.75
      vertex 38 2 236
      vertex 38 14.4592 176.664
    endloop
  endfacet
  facet normal 1 0 0
    outer loop
      vertex 38 14.4592 176.664
      vertex 38 2 236
      vertex 38 13.9714 176.416
    endloop
  endfacet
  facet normal 1 0 0
    outer loop
      vertex 38 13.9714 176.416
      vertex 38 2 236
      vertex 38 13.5842 176.029
    endloop
  endfacet
  facet normal 1 0 0
    outer loop
      vertex 38 2 0
      vertex 38 13.25 175
      vertex 38 2 236
    endloop
  endfacet
  facet normal 1 0 0
    outer loop
      vertex 38 13.3357 175.541
      vertex 38 2 236
      vertex 38 13.25 175
    endloop
  endfacet
  facet normal 1 0 0
    outer loop
      vertex 38 13.5842 176.029
      vertex 38 2 236
      vertex 38 13.3357 175.541
    endloop
  endfacet
  facet normal 1 -0 0
    outer loop
      vertex 38 16.75 53
      vertex 38 24 0
      vertex 38 16.75 175
    endloop
  endfacet
  facet normal 1 -0 0
    outer loop
      vertex 38 16.6643 52.4592
      vertex 38 24 0
      vertex 38 16.75 53
    endloop
  endfacet
  facet normal 1 -0 0
    outer loop
      vertex 38 16.4158 51.9714
      vertex 38 24 0
      vertex 38 16.6643 52.4592
    endloop
  endfacet
  facet normal 1 -0 0
    outer loop
      vertex 38 16.0286 51.5842
      vertex 38 24 0
      vertex 38 16.4158 51.9714
    endloop
  endfacet
  facet normal 1 -0 0
    outer loop
      vertex 38 15.5408 51.3357
      vertex 38 24 0
      vertex 38 16.0286 51.5842
    endloop
  endfacet
  facet normal 1 -0 0
    outer loop
      vertex 38 15 51.25
      vertex 38 24 0
      vertex 38 15.5408 51.3357
    endloop
  endfacet
  facet normal 1 0 0
    outer loop
      vertex 38 2 0
      vertex 38 15 51.25
      vertex 38 14.4592 51.3357
    endloop
  endfacet
  facet normal 1 0 0
    outer loop
      vertex 38 2 0
      vertex 38 14.4592 51.3357
      vertex 38 13.9714 51.5842
    endloop
  endfacet
  facet normal 1 0 0
    outer loop
      vertex 38 2 0
      vertex 38 13.9714 51.5842
      vertex 38 13.5842 51.9714
    endloop
  endfacet
  facet normal 1 0 0
    outer loop
      vertex 38 2 0
      vertex 38 13.5842 51.9714
      vertex 38 13.3357 52.4592
    endloop
  endfacet
  facet normal 1 0 0
    outer loop
      vertex 38 15 51.25
      vertex 38 2 0
      vertex 38 24 0
    endloop
  endfacet
  facet normal 1 0 0
    outer loop
      vertex 38 13.25 53
      vertex 38 2 0
      vertex 38 13.3357 52.4592
    endloop
  endfacet
  facet normal 1 0 0
    outer loop
      vertex 38 13.25 175
      vertex 38 2 0
      vertex 38 13.25 53
    endloop
  endfacet
  facet normal 0 1 -0
    outer loop
      vertex 38 24 0
      vertex 36 24 236
      vertex 38 24 236
    endloop
  endfacet
  facet normal 0 1 0
    outer loop
      vertex 36 24 236
      vertex 38 24 0
      vertex 36 24 0
    endloop
  endfacet
  facet normal -1 0 0
    outer loop
      vertex 36 16.6643 53.5408
      vertex 36 16.75 175
      vertex 36 16.75 53
    endloop
  endfacet
  facet normal -1 0 0
    outer loop
      vertex 36 16.6643 53.5408
      vertex 36 16.6643 174.459
      vertex 36 16.75 175
    endloop
  endfacet
  facet normal -1 0 0
    outer loop
      vertex 36 16.4158 54.0286
      vertex 36 16.6643 174.459
      vertex 36 16.6643 53.5408
    endloop
  endfacet
  facet normal -1 0 0
    outer loop
      vertex 36 16.4158 54.0286
      vertex 36 16.4158 173.971
      vertex 36 16.6643 174.459
    endloop
  endfacet
  facet normal -1 0 0
    outer loop
      vertex 36 16.0286 54.4158
      vertex 36 16.4158 173.971
      vertex 36 16.4158 54.0286
    endloop
  endfacet
  facet normal -1 0 0
    outer loop
      vertex 36 16.0286 54.4158
      vertex 36 16.0286 173.584
      vertex 36 16.4158 173.971
    endloop
  endfacet
  facet normal -1 0 0
    outer loop
      vertex 36 15.5408 54.6643
      vertex 36 16.0286 173.584
      vertex 36 16.0286 54.4158
    endloop
  endfacet
  facet normal -1 0 0
    outer loop
      vertex 36 15.5408 54.6643
      vertex 36 15.5408 173.336
      vertex 36 16.0286 173.584
    endloop
  endfacet
  facet normal -1 0 0
    outer loop
      vertex 36 15 54.75
      vertex 36 15.5408 173.336
      vertex 36 15.5408 54.6643
    endloop
  endfacet
  facet normal -1 0 0
    outer loop
      vertex 36 15 54.75
      vertex 36 15 173.25
      vertex 36 15.5408 173.336
    endloop
  endfacet
  facet normal -1 0 0
    outer loop
      vertex 36 14.4592 54.6643
      vertex 36 15 173.25
      vertex 36 15 54.75
    endloop
  endfacet
  facet normal -1 0 0
    outer loop
      vertex 36 14.4592 54.6643
      vertex 36 14.4592 173.336
      vertex 36 15 173.25
    endloop
  endfacet
  facet normal -1 0 0
    outer loop
      vertex 36 13.9714 54.4158
      vertex 36 14.4592 173.336
      vertex 36 14.4592 54.6643
    endloop
  endfacet
  facet normal -1 0 0
    outer loop
      vertex 36 13.9714 54.4158
      vertex 36 13.9714 173.584
      vertex 36 14.4592 173.336
    endloop
  endfacet
  facet normal -1 0 0
    outer loop
      vertex 36 13.5842 54.0286
      vertex 36 13.9714 173.584
      vertex 36 13.9714 54.4158
    endloop
  endfacet
  facet normal -1 0 0
    outer loop
      vertex 36 13.5842 54.0286
      vertex 36 13.5842 173.971
      vertex 36 13.9714 173.584
    endloop
  endfacet
  facet normal -1 0 0
    outer loop
      vertex 36 13.3357 53.5408
      vertex 36 13.5842 173.971
      vertex 36 13.5842 54.0286
    endloop
  endfacet
  facet normal -1 0 0
    outer loop
      vertex 36 13.3357 53.5408
      vertex 36 13.3357 174.459
      vertex 36 13.5842 173.971
    endloop
  endfacet
  facet normal -1 0 0
    outer loop
      vertex 36 13.25 53
      vertex 36 13.3357 174.459
      vertex 36 13.3357 53.5408
    endloop
  endfacet
  facet normal -1 -0 0
    outer loop
      vertex 36 13.3357 174.459
      vertex 36 13.25 53
      vertex 36 13.25 175
    endloop
  endfacet
  facet normal -1 0 0
    outer loop
      vertex 36 16.75 175
      vertex 36 24 0
      vertex 36 16.75 53
    endloop
  endfacet
  facet normal -1 0 0
    outer loop
      vertex 36 24 0
      vertex 36 16.6643 52.4592
      vertex 36 16.75 53
    endloop
  endfacet
  facet normal -1 0 0
    outer loop
      vertex 36 24 0
      vertex 36 16.4158 51.9714
      vertex 36 16.6643 52.4592
    endloop
  endfacet
  facet normal -1 0 0
    outer loop
      vertex 36 24 0
      vertex 36 16.0286 51.5842
      vertex 36 16.4158 51.9714
    endloop
  endfacet
  facet normal -1 0 0
    outer loop
      vertex 36 24 0
      vertex 36 15.5408 51.3357
      vertex 36 16.0286 51.5842
    endloop
  endfacet
  facet normal -1 0 0
    outer loop
      vertex 36 24 0
      vertex 36 15 51.25
      vertex 36 15.5408 51.3357
    endloop
  endfacet
  facet normal -1 0 0
    outer loop
      vertex 36 6 0
      vertex 36 15 51.25
      vertex 36 24 0
    endloop
  endfacet
  facet normal -1 -0 0
    outer loop
      vertex 36 15 51.25
      vertex 36 6 0
      vertex 36 14.4592 51.3357
    endloop
  endfacet
  facet normal -1 -0 0
    outer loop
      vertex 36 14.4592 51.3357
      vertex 36 6 0
      vertex 36 13.9714 51.5842
    endloop
  endfacet
  facet normal -1 -0 0
    outer loop
      vertex 36 13.9714 51.5842
      vertex 36 6 0
      vertex 36 13.5842 51.9714
    endloop
  endfacet
  facet normal -1 -0 0
    outer loop
      vertex 36 13.25 53
      vertex 36 6 0
      vertex 36 13.25 175
    endloop
  endfacet
  facet normal -1 -0 0
    outer loop
      vertex 36 13.3357 52.4592
      vertex 36 6 0
      vertex 36 13.25 53
    endloop
  endfacet
  facet normal -1 -0 0
    outer loop
      vertex 36 13.5842 51.9714
      vertex 36 6 0
      vertex 36 13.3357 52.4592
    endloop
  endfacet
  facet normal -1 0 0
    outer loop
      vertex 36 24 0
      vertex 36 16.75 175
      vertex 36 24 236
    endloop
  endfacet
  facet normal -1 0 0
    outer loop
      vertex 36 16.6643 175.541
      vertex 36 24 236
      vertex 36 16.75 175
    endloop
  endfacet
  facet normal -1 0 0
    outer loop
      vertex 36 16.4158 176.029
      vertex 36 24 236
      vertex 36 16.6643 175.541
    endloop
  endfacet
  facet normal -1 0 0
    outer loop
      vertex 36 16.0286 176.416
      vertex 36 24 236
      vertex 36 16.4158 176.029
    endloop
  endfacet
  facet normal -1 0 0
    outer loop
      vertex 36 15.5408 176.664
      vertex 36 24 236
      vertex 36 16.0286 176.416
    endloop
  endfacet
  facet normal -1 0 0
    outer loop
      vertex 36 15 176.75
      vertex 36 24 236
      vertex 36 15.5408 176.664
    endloop
  endfacet
  facet normal -1 0 0
    outer loop
      vertex 36 6 236
      vertex 36 15 176.75
      vertex 36 14.4592 176.664
    endloop
  endfacet
  facet normal -1 0 0
    outer loop
      vertex 36 6 236
      vertex 36 14.4592 176.664
      vertex 36 13.9714 176.416
    endloop
  endfacet
  facet normal -1 0 0
    outer loop
      vertex 36 6 236
      vertex 36 13.9714 176.416
      vertex 36 13.5842 176.029
    endloop
  endfacet
  facet normal -1 0 0
    outer loop
      vertex 36 6 236
      vertex 36 13.5842 176.029
      vertex 36 13.3357 175.541
    endloop
  endfacet
  facet normal -1 0 0
    outer loop
      vertex 36 15 176.75
      vertex 36 6 236
      vertex 36 24 236
    endloop
  endfacet
  facet normal -1 0 0
    outer loop
      vertex 36 13.25 175
      vertex 36 6 236
      vertex 36 13.3357 175.541
    endloop
  endfacet
  facet normal -1 0 0
    outer loop
      vertex 36 6 236
      vertex 36 13.25 175
      vertex 36 6 0
    endloop
  endfacet
  facet normal 0 1 -0
    outer loop
      vertex 36 6 0
      vertex 29.5 6 236
      vertex 36 6 236
    endloop
  endfacet
  facet normal 0 1 0
    outer loop
      vertex 29.5 6 236
      vertex 36 6 0
      vertex 29.5 6 0
    endloop
  endfacet
  facet normal 1 -0 0
    outer loop
      vertex 29.5 6 236
      vertex 29.5 10 0
      vertex 29.5 10 236
    endloop
  endfacet
  facet normal 1 0 0
    outer loop
      vertex 29.5 10 0
      vertex 29.5 6 236
      vertex 29.5 6 0
    endloop
  endfacet
  facet normal 0 1 0
    outer loop
      vertex 29.5 10 236
      vertex 8 10 225
      vertex 8 10 236
    endloop
  endfacet
  facet normal 0 1 0
    outer loop
      vertex 29.5 10 236
      vertex 8 10 195
      vertex 8 10 225
    endloop
  endfacet
  facet normal 0 1 0
    outer loop
      vertex 29.5 10 236
      vertex 8 10 165
      vertex 8 10 195
    endloop
  endfacet
  facet normal 0 1 0
    outer loop
      vertex 29.5 10 236
      vertex 8 10 135
      vertex 8 10 165
    endloop
  endfacet
  facet normal 0 1 0
    outer loop
      vertex 29.5 10 236
      vertex 8 10 105
      vertex 8 10 135
    endloop
  endfacet
  facet normal 0 1 -0
    outer loop
      vertex 29.5 10 0
      vertex 8 10 105
      vertex 29.5 10 236
    endloop
  endfacet
  facet normal 0 1 0
    outer loop
      vertex 8 10 105
      vertex 29.5 10 0
      vertex 8 10 75
    endloop
  endfacet
  facet normal 0 1 0
    outer loop
      vertex 8 10 75
      vertex 29.5 10 0
      vertex 8 10 45
    endloop
  endfacet
  facet normal 0 1 0
    outer loop
      vertex 0 10 0
      vertex 8 10 45
      vertex 29.5 10 0
    endloop
  endfacet
  facet normal 0 1 0
    outer loop
      vertex 8 10 45
      vertex 0 10 0
      vertex 0 10 45
    endloop
  endfacet
  facet normal 0 -1 0
    outer loop
      vertex 8 6 225
      vertex 17.5 6 236
      vertex 8 6 236
    endloop
  endfacet
  facet normal 0 -1 0
    outer loop
      vertex 8 6 215
      vertex 17.5 6 236
      vertex 8 6 225
    endloop
  endfacet
  facet normal 0 -1 0
    outer loop
      vertex 8 6 195
      vertex 17.5 6 236
      vertex 8 6 215
    endloop
  endfacet
  facet normal 0 -1 0
    outer loop
      vertex 8 6 185
      vertex 17.5 6 236
      vertex 8 6 195
    endloop
  endfacet
  facet normal 0 -1 0
    outer loop
      vertex 8 6 165
      vertex 17.5 6 236
      vertex 8 6 185
    endloop
  endfacet
  facet normal 0 -1 0
    outer loop
      vertex 8 6 155
      vertex 17.5 6 236
      vertex 8 6 165
    endloop
  endfacet
  facet normal 0 -1 0
    outer loop
      vertex 8 6 135
      vertex 17.5 6 236
      vertex 8 6 155
    endloop
  endfacet
  facet normal 0 -1 0
    outer loop
      vertex 17.5 6 45
      vertex 8 6 135
      vertex 8 6 125
    endloop
  endfacet
  facet normal 0 -1 0
    outer loop
      vertex 17.5 6 45
      vertex 8 6 125
      vertex 8 6 105
    endloop
  endfacet
  facet normal 0 -1 0
    outer loop
      vertex 17.5 6 45
      vertex 8 6 105
      vertex 8 6 95
    endloop
  endfacet
  facet normal 0 -1 0
    outer loop
      vertex 17.5 6 45
      vertex 8 6 95
      vertex 8 6 75
    endloop
  endfacet
  facet normal 0 -1 0
    outer loop
      vertex 17.5 6 45
      vertex 8 6 75
      vertex 8 6 65
    endloop
  endfacet
  facet normal 0 -1 0
    outer loop
      vertex 17.5 6 45
      vertex 8 6 65
      vertex 8 6 45
    endloop
  endfacet
  facet normal 0 -1 0
    outer loop
      vertex 8 6 135
      vertex 17.5 6 45
      vertex 17.5 6 236
    endloop
  endfacet
  facet normal -1 0 0
    outer loop
      vertex 17.5 2 45
      vertex 17.5 6 236
      vertex 17.5 6 45
    endloop
  endfacet
  facet normal -1 -0 0
    outer loop
      vertex 17.5 6 236
      vertex 17.5 2 45
      vertex 17.5 2 236
    endloop
  endfacet
  facet normal 0 1 -0
    outer loop
      vertex 17.5 2 45
      vertex 0 2 236
      vertex 17.5 2 236
    endloop
  endfacet
  facet normal 0 1 0
    outer loop
      vertex 0 2 236
      vertex 17.5 2 45
      vertex 0 2 45
    endloop
  endfacet
  facet normal -1 0 0
    outer loop
      vertex 0 10 0
      vertex 0 2 45
      vertex 0 10 45
    endloop
  endfacet
  facet normal -1 0 0
    outer loop
      vertex 0 0 0
      vertex 0 2 45
      vertex 0 10 0
    endloop
  endfacet
  facet normal -1 0 0
    outer loop
      vertex 0 0 236
      vertex 0 2 45
      vertex 0 0 0
    endloop
  endfacet
  facet normal -1 0 0
    outer loop
      vertex 0 2 45
      vertex 0 0 236
      vertex 0 2 236
    endloop
  endfacet
  facet normal 0 -1 0
    outer loop
      vertex 0 0 0
      vertex 36 0 236
      vertex 0 0 236
    endloop
  endfacet
  facet normal 0 -1 -0
    outer loop
      vertex 36 0 236
      vertex 0 0 0
      vertex 36 0 0
    endloop
  endfacet
  facet normal 0.0523369 -0.998629 0
    outer loop
      vertex 36 0 0
      vertex 36.209 0.0109558 236
      vertex 36 0 236
    endloop
  endfacet
  facet normal 0.0523369 -0.998629 0
    outer loop
      vertex 36.209 0.0109558 236
      vertex 36 0 0
      vertex 36.209 0.0109558 0
    endloop
  endfacet
  facet normal 0 -0.156435 0.987688
    outer loop
      vertex 36 15.5408 51.3357
      vertex 38 15 51.25
      vertex 38 15.5408 51.3357
    endloop
  endfacet
  facet normal 0 -0.156435 0.987688
    outer loop
      vertex 38 15 51.25
      vertex 36 15.5408 51.3357
      vertex 36 15 51.25
    endloop
  endfacet
  facet normal 0 -0.156435 -0.987688
    outer loop
      vertex 36 15 54.75
      vertex 38 15.5408 54.6643
      vertex 38 15 54.75
    endloop
  endfacet
  facet normal -0 -0.156435 -0.987688
    outer loop
      vertex 38 15.5408 54.6643
      vertex 36 15 54.75
      vertex 36 15.5408 54.6643
    endloop
  endfacet
  facet normal 0 0.987688 -0.156435
    outer loop
      vertex 38 13.25 53
      vertex 36 13.3357 53.5408
      vertex 38 13.3357 53.5408
    endloop
  endfacet
  facet normal 0 0.987688 -0.156435
    outer loop
      vertex 36 13.3357 53.5408
      vertex 38 13.25 53
      vertex 36 13.25 53
    endloop
  endfacet
  facet normal 0 0.453991 -0.891006
    outer loop
      vertex 36 13.9714 54.4158
      vertex 38 14.4592 54.6643
      vertex 38 13.9714 54.4158
    endloop
  endfacet
  facet normal 0 0.453991 -0.891006
    outer loop
      vertex 38 14.4592 54.6643
      vertex 36 13.9714 54.4158
      vertex 36 14.4592 54.6643
    endloop
  endfacet
  facet normal 0 -0.453991 0.891006
    outer loop
      vertex 36 16.0286 51.5842
      vertex 38 15.5408 51.3357
      vertex 38 16.0286 51.5842
    endloop
  endfacet
  facet normal 0 -0.453991 0.891006
    outer loop
      vertex 38 15.5408 51.3357
      vertex 36 16.0286 51.5842
      vertex 36 15.5408 51.3357
    endloop
  endfacet
  facet normal 0 -0.891007 0.45399
    outer loop
      vertex 36 16.4158 51.9714
      vertex 38 16.6643 52.4592
      vertex 36 16.6643 52.4592
    endloop
  endfacet
  facet normal 0 -0.891007 0.45399
    outer loop
      vertex 38 16.6643 52.4592
      vertex 36 16.4158 51.9714
      vertex 38 16.4158 51.9714
    endloop
  endfacet
  facet normal 0 -0.891007 -0.45399
    outer loop
      vertex 36 16.6643 53.5408
      vertex 38 16.4158 54.0286
      vertex 36 16.4158 54.0286
    endloop
  endfacet
  facet normal 0 -0.891007 -0.45399
    outer loop
      vertex 38 16.4158 54.0286
      vertex 36 16.6643 53.5408
      vertex 38 16.6643 53.5408
    endloop
  endfacet
  facet normal 0 -0.707105 -0.707109
    outer loop
      vertex 36 16.0286 54.4158
      vertex 38 16.4158 54.0286
      vertex 38 16.0286 54.4158
    endloop
  endfacet
  facet normal -0 -0.707105 -0.707109
    outer loop
      vertex 38 16.4158 54.0286
      vertex 36 16.0286 54.4158
      vertex 36 16.4158 54.0286
    endloop
  endfacet
  facet normal 0 -0.987688 -0.156435
    outer loop
      vertex 36 16.75 53
      vertex 38 16.6643 53.5408
      vertex 36 16.6643 53.5408
    endloop
  endfacet
  facet normal 0 -0.987688 -0.156435
    outer loop
      vertex 38 16.6643 53.5408
      vertex 36 16.75 53
      vertex 38 16.75 53
    endloop
  endfacet
  facet normal 0 0.987688 0.156435
    outer loop
      vertex 38 13.3357 52.4592
      vertex 36 13.25 53
      vertex 38 13.25 53
    endloop
  endfacet
  facet normal 0 0.987688 0.156435
    outer loop
      vertex 36 13.25 53
      vertex 38 13.3357 52.4592
      vertex 36 13.3357 52.4592
    endloop
  endfacet
  facet normal -0 0.453991 0.891006
    outer loop
      vertex 36 14.4592 51.3357
      vertex 38 13.9714 51.5842
      vertex 38 14.4592 51.3357
    endloop
  endfacet
  facet normal 0 0.453991 0.891006
    outer loop
      vertex 38 13.9714 51.5842
      vertex 36 14.4592 51.3357
      vertex 36 13.9714 51.5842
    endloop
  endfacet
  facet normal 0 0.707105 -0.707109
    outer loop
      vertex 36 13.5842 54.0286
      vertex 38 13.9714 54.4158
      vertex 38 13.5842 54.0286
    endloop
  endfacet
  facet normal 0 0.707105 -0.707109
    outer loop
      vertex 38 13.9714 54.4158
      vertex 36 13.5842 54.0286
      vertex 36 13.9714 54.4158
    endloop
  endfacet
  facet normal 0 0.156435 -0.987688
    outer loop
      vertex 36 14.4592 54.6643
      vertex 38 15 54.75
      vertex 38 14.4592 54.6643
    endloop
  endfacet
  facet normal 0 0.156435 -0.987688
    outer loop
      vertex 38 15 54.75
      vertex 36 14.4592 54.6643
      vertex 36 15 54.75
    endloop
  endfacet
  facet normal 0 -0.707105 0.707109
    outer loop
      vertex 36 16.4158 51.9714
      vertex 38 16.0286 51.5842
      vertex 38 16.4158 51.9714
    endloop
  endfacet
  facet normal 0 -0.707105 0.707109
    outer loop
      vertex 38 16.0286 51.5842
      vertex 36 16.4158 51.9714
      vertex 36 16.0286 51.5842
    endloop
  endfacet
  facet normal 0 -0.987688 0.156435
    outer loop
      vertex 36 16.6643 52.4592
      vertex 38 16.75 53
      vertex 36 16.75 53
    endloop
  endfacet
  facet normal 0 -0.987688 0.156435
    outer loop
      vertex 38 16.75 53
      vertex 36 16.6643 52.4592
      vertex 38 16.6643 52.4592
    endloop
  endfacet
  facet normal 0 -0.453991 -0.891006
    outer loop
      vertex 36 15.5408 54.6643
      vertex 38 16.0286 54.4158
      vertex 38 15.5408 54.6643
    endloop
  endfacet
  facet normal -0 -0.453991 -0.891006
    outer loop
      vertex 38 16.0286 54.4158
      vertex 36 15.5408 54.6643
      vertex 36 16.0286 54.4158
    endloop
  endfacet
  facet normal 0 0.891007 0.45399
    outer loop
      vertex 38 13.5842 51.9714
      vertex 36 13.3357 52.4592
      vertex 38 13.3357 52.4592
    endloop
  endfacet
  facet normal 0 0.891007 0.45399
    outer loop
      vertex 36 13.3357 52.4592
      vertex 38 13.5842 51.9714
      vertex 36 13.5842 51.9714
    endloop
  endfacet
  facet normal -0 0.156435 0.987688
    outer loop
      vertex 36 15 51.25
      vertex 38 14.4592 51.3357
      vertex 38 15 51.25
    endloop
  endfacet
  facet normal 0 0.156435 0.987688
    outer loop
      vertex 38 14.4592 51.3357
      vertex 36 15 51.25
      vertex 36 14.4592 51.3357
    endloop
  endfacet
  facet normal 0 0.891007 -0.45399
    outer loop
      vertex 38 13.3357 53.5408
      vertex 36 13.5842 54.0286
      vertex 38 13.5842 54.0286
    endloop
  endfacet
  facet normal 0 0.891007 -0.45399
    outer loop
      vertex 36 13.5842 54.0286
      vertex 38 13.3357 53.5408
      vertex 36 13.3357 53.5408
    endloop
  endfacet
  facet normal -0 0.707105 0.707109
    outer loop
      vertex 36 13.9714 51.5842
      vertex 38 13.5842 51.9714
      vertex 38 13.9714 51.5842
    endloop
  endfacet
  facet normal 0 0.707105 0.707109
    outer loop
      vertex 38 13.5842 51.9714
      vertex 36 13.9714 51.5842
      vertex 36 13.5842 51.9714
    endloop
  endfacet
  facet normal 0 -0.156428 0.987689
    outer loop
      vertex 36 15.5408 173.336
      vertex 38 15 173.25
      vertex 38 15.5408 173.336
    endloop
  endfacet
  facet normal 0 -0.156428 0.987689
    outer loop
      vertex 38 15 173.25
      vertex 36 15.5408 173.336
      vertex 36 15 173.25
    endloop
  endfacet
  facet normal 0 -0.156428 -0.987689
    outer loop
      vertex 36 15 176.75
      vertex 38 15.5408 176.664
      vertex 38 15 176.75
    endloop
  endfacet
  facet normal -0 -0.156428 -0.987689
    outer loop
      vertex 38 15.5408 176.664
      vertex 36 15 176.75
      vertex 36 15.5408 176.664
    endloop
  endfacet
  facet normal 0 0.987688 -0.156437
    outer loop
      vertex 38 13.25 175
      vertex 36 13.3357 175.541
      vertex 38 13.3357 175.541
    endloop
  endfacet
  facet normal 0 0.987688 -0.156437
    outer loop
      vertex 36 13.3357 175.541
      vertex 38 13.25 175
      vertex 36 13.25 175
    endloop
  endfacet
  facet normal 0 0.454008 -0.890998
    outer loop
      vertex 36 13.9714 176.416
      vertex 38 14.4592 176.664
      vertex 38 13.9714 176.416
    endloop
  endfacet
  facet normal 0 0.454008 -0.890998
    outer loop
      vertex 38 14.4592 176.664
      vertex 36 13.9714 176.416
      vertex 36 14.4592 176.664
    endloop
  endfacet
  facet normal 0 -0.453985 0.891009
    outer loop
      vertex 36 16.0286 173.584
      vertex 38 15.5408 173.336
      vertex 38 16.0286 173.584
    endloop
  endfacet
  facet normal 0 -0.453985 0.891009
    outer loop
      vertex 38 15.5408 173.336
      vertex 36 16.0286 173.584
      vertex 36 15.5408 173.336
    endloop
  endfacet
  facet normal 0 -0.891004 0.453995
    outer loop
      vertex 36 16.4158 173.971
      vertex 38 16.6643 174.459
      vertex 36 16.6643 174.459
    endloop
  endfacet
  facet normal 0 -0.891004 0.453995
    outer loop
      vertex 38 16.6643 174.459
      vertex 36 16.4158 173.971
      vertex 38 16.4158 173.971
    endloop
  endfacet
  facet normal 0 -0.89101 -0.453984
    outer loop
      vertex 36 16.6643 175.541
      vertex 38 16.4158 176.029
      vertex 36 16.4158 176.029
    endloop
  endfacet
  facet normal 0 -0.89101 -0.453984
    outer loop
      vertex 38 16.4158 176.029
      vertex 36 16.6643 175.541
      vertex 38 16.6643 175.541
    endloop
  endfacet
  facet normal 0 -0.707098 -0.707115
    outer loop
      vertex 36 16.0286 176.416
      vertex 38 16.4158 176.029
      vertex 38 16.0286 176.416
    endloop
  endfacet
  facet normal -0 -0.707098 -0.707115
    outer loop
      vertex 38 16.4158 176.029
      vertex 36 16.0286 176.416
      vertex 36 16.4158 176.029
    endloop
  endfacet
  facet normal 0 -0.987688 -0.156437
    outer loop
      vertex 36 16.75 175
      vertex 38 16.6643 175.541
      vertex 36 16.6643 175.541
    endloop
  endfacet
  facet normal 0 -0.987688 -0.156437
    outer loop
      vertex 38 16.6643 175.541
      vertex 36 16.75 175
      vertex 38 16.75 175
    endloop
  endfacet
  facet normal 0 0.987689 0.156433
    outer loop
      vertex 38 13.3357 174.459
      vertex 36 13.25 175
      vertex 38 13.25 175
    endloop
  endfacet
  facet normal 0 0.987689 0.156433
    outer loop
      vertex 36 13.25 175
      vertex 38 13.3357 174.459
      vertex 36 13.3357 174.459
    endloop
  endfacet
  facet normal -0 0.453985 0.891009
    outer loop
      vertex 36 14.4592 173.336
      vertex 38 13.9714 173.584
      vertex 38 14.4592 173.336
    endloop
  endfacet
  facet normal 0 0.453985 0.891009
    outer loop
      vertex 38 13.9714 173.584
      vertex 36 14.4592 173.336
      vertex 36 13.9714 173.584
    endloop
  endfacet
  facet normal 0 0.707098 -0.707115
    outer loop
      vertex 36 13.5842 176.029
      vertex 38 13.9714 176.416
      vertex 38 13.5842 176.029
    endloop
  endfacet
  facet normal 0 0.707098 -0.707115
    outer loop
      vertex 38 13.9714 176.416
      vertex 36 13.5842 176.029
      vertex 36 13.9714 176.416
    endloop
  endfacet
  facet normal 0 0.156428 -0.987689
    outer loop
      vertex 36 14.4592 176.664
      vertex 38 15 176.75
      vertex 38 14.4592 176.664
    endloop
  endfacet
  facet normal 0 0.156428 -0.987689
    outer loop
      vertex 38 15 176.75
      vertex 36 14.4592 176.664
      vertex 36 15 176.75
    endloop
  endfacet
  facet normal 0 -0.707112 0.707102
    outer loop
      vertex 36 16.0286 173.584
      vertex 38 16.4158 173.971
      vertex 36 16.4158 173.971
    endloop
  endfacet
  facet normal 0 -0.707112 0.707102
    outer loop
      vertex 38 16.4158 173.971
      vertex 36 16.0286 173.584
      vertex 38 16.0286 173.584
    endloop
  endfacet
  facet normal 0 -0.987689 0.156433
    outer loop
      vertex 36 16.6643 174.459
      vertex 38 16.75 175
      vertex 36 16.75 175
    endloop
  endfacet
  facet normal 0 -0.987689 0.156433
    outer loop
      vertex 38 16.75 175
      vertex 36 16.6643 174.459
      vertex 38 16.6643 174.459
    endloop
  endfacet
  facet normal 0 -0.454008 -0.890998
    outer loop
      vertex 36 15.5408 176.664
      vertex 38 16.0286 176.416
      vertex 38 15.5408 176.664
    endloop
  endfacet
  facet normal -0 -0.454008 -0.890998
    outer loop
      vertex 38 16.0286 176.416
      vertex 36 15.5408 176.664
      vertex 36 16.0286 176.416
    endloop
  endfacet
  facet normal 0 0.891004 0.453995
    outer loop
      vertex 38 13.5842 173.971
      vertex 36 13.3357 174.459
      vertex 38 13.3357 174.459
    endloop
  endfacet
  facet normal 0 0.891004 0.453995
    outer loop
      vertex 36 13.3357 174.459
      vertex 38 13.5842 173.971
      vertex 36 13.5842 173.971
    endloop
  endfacet
  facet normal -0 0.156428 0.987689
    outer loop
      vertex 36 15 173.25
      vertex 38 14.4592 173.336
      vertex 38 15 173.25
    endloop
  endfacet
  facet normal 0 0.156428 0.987689
    outer loop
      vertex 38 14.4592 173.336
      vertex 36 15 173.25
      vertex 36 14.4592 173.336
    endloop
  endfacet
  facet normal 0 0.89101 -0.453984
    outer loop
      vertex 38 13.3357 175.541
      vertex 36 13.5842 176.029
      vertex 38 13.5842 176.029
    endloop
  endfacet
  facet normal 0 0.89101 -0.453984
    outer loop
      vertex 36 13.5842 176.029
      vertex 38 13.3357 175.541
      vertex 36 13.3357 175.541
    endloop
  endfacet
  facet normal 0 0.707112 0.707102
    outer loop
      vertex 38 13.9714 173.584
      vertex 36 13.5842 173.971
      vertex 38 13.5842 173.971
    endloop
  endfacet
  facet normal 0 0.707112 0.707102
    outer loop
      vertex 36 13.5842 173.971
      vertex 38 13.9714 173.584
      vertex 36 13.9714 173.584
    endloop
  endfacet
endsolid OpenSCAD_Model
