solid OpenSCAD_Model
  facet normal 0 0 1
    outer loop
      vertex -12 6 15
      vertex -4 10 15
      vertex -12 10 15
    endloop
  endfacet
  facet normal 0 0 1
    outer loop
      vertex -4 10 15
      vertex -12 6 15
      vertex -4 2 15
    endloop
  endfacet
  facet normal 0 0 1
    outer loop
      vertex -21.5 2 15
      vertex -12 6 15
      vertex -21.5 6 15
    endloop
  endfacet
  facet normal 0 0 1
    outer loop
      vertex -12 6 15
      vertex -21.5 2 15
      vertex -4 2 15
    endloop
  endfacet
  facet normal 0 1 -9.53674e-008
    outer loop
      vertex -12 10 20
      vertex -12 10 30
      vertex -8 10 30
    endloop
  endfacet
  facet normal 0.928477 1.92426e-007 -0.371391
    outer loop
      vertex -8 10 30
      vertex -12 6.31872 20
      vertex -12 10 20
    endloop
  endfacet
  facet normal 0.928477 0 -0.371391
    outer loop
      vertex -12 6.31872 20
      vertex -8 10 30
      vertex -12 6 20
    endloop
  endfacet
  facet normal -1 0 0
    outer loop
      vertex -12 6.31872 20
      vertex -12 6 30
      vertex -12 6.47809 30
    endloop
  endfacet
  facet normal -1 0 -0
    outer loop
      vertex -12 6 30
      vertex -12 6.31872 20
      vertex -12 6 20
    endloop
  endfacet
  facet normal 0.928477 0 -0.371391
    outer loop
      vertex -8 6 30
      vertex -12 6 20
      vertex -8 10 30
    endloop
  endfacet
  facet normal 0 0 1
    outer loop
      vertex -12 6.47809 30
      vertex -8 10 30
      vertex -12 10 30
    endloop
  endfacet
  facet normal 0 0 1
    outer loop
      vertex -8 10 30
      vertex -12 6.47809 30
      vertex -8 6 30
    endloop
  endfacet
  facet normal 0 0 1
    outer loop
      vertex -8 6 30
      vertex -12 6.47809 30
      vertex -12 6 30
    endloop
  endfacet
  facet normal 0 -1 9.53674e-008
    outer loop
      vertex -12 6 30
      vertex -12 6 20
      vertex -8 6 30
    endloop
  endfacet
  facet normal 0 1 -9.53675e-008
    outer loop
      vertex -12 10 35
      vertex -12 10 45
      vertex -8 10 45
    endloop
  endfacet
  facet normal 0.928477 4.11577e-007 -0.371391
    outer loop
      vertex -8 10 45
      vertex -12 6.55777 35
      vertex -12 10 35
    endloop
  endfacet
  facet normal 0.928477 0 -0.371391
    outer loop
      vertex -12 6.55777 35
      vertex -8 10 45
      vertex -12 6 35
    endloop
  endfacet
  facet normal -1 0 0
    outer loop
      vertex -12 6.55777 35
      vertex -12 6 45
      vertex -12 6.71713 45
    endloop
  endfacet
  facet normal -1 0 -0
    outer loop
      vertex -12 6 45
      vertex -12 6.55777 35
      vertex -12 6 35
    endloop
  endfacet
  facet normal 0.928477 0 -0.371391
    outer loop
      vertex -8 6 45
      vertex -12 6 35
      vertex -8 10 45
    endloop
  endfacet
  facet normal 0 0 1
    outer loop
      vertex -12 6.71713 45
      vertex -8 10 45
      vertex -12 10 45
    endloop
  endfacet
  facet normal 0 0 1
    outer loop
      vertex -8 10 45
      vertex -12 6.71713 45
      vertex -8 6 45
    endloop
  endfacet
  facet normal 0 0 1
    outer loop
      vertex -8 6 45
      vertex -12 6.71713 45
      vertex -12 6 45
    endloop
  endfacet
  facet normal 0 -1 9.53674e-008
    outer loop
      vertex -12 6 45
      vertex -12 6 35
      vertex -8 6 45
    endloop
  endfacet
  facet normal 0 1 -9.53675e-008
    outer loop
      vertex -12 10 50
      vertex -12 10 60
      vertex -8 10 60
    endloop
  endfacet
  facet normal 0.928477 4.42292e-007 -0.371391
    outer loop
      vertex -8 10 60
      vertex -12 6.79681 50
      vertex -12 10 50
    endloop
  endfacet
  facet normal 0.928477 0 -0.371391
    outer loop
      vertex -12 6.79681 50
      vertex -8 10 60
      vertex -12 6 50
    endloop
  endfacet
  facet normal -1 0 0
    outer loop
      vertex -12 6.79681 50
      vertex -12 6 60
      vertex -12 6.95618 60
    endloop
  endfacet
  facet normal -1 0 -0
    outer loop
      vertex -12 6 60
      vertex -12 6.79681 50
      vertex -12 6 50
    endloop
  endfacet
  facet normal 0.928477 0 -0.371391
    outer loop
      vertex -8 6 60
      vertex -12 6 50
      vertex -8 10 60
    endloop
  endfacet
  facet normal 0 0 1
    outer loop
      vertex -12 6.95618 60
      vertex -8 10 60
      vertex -12 10 60
    endloop
  endfacet
  facet normal 0 0 1
    outer loop
      vertex -8 10 60
      vertex -12 6.95618 60
      vertex -8 6 60
    endloop
  endfacet
  facet normal 0 0 1
    outer loop
      vertex -8 6 60
      vertex -12 6.95618 60
      vertex -12 6 60
    endloop
  endfacet
  facet normal 0 -1 9.53674e-008
    outer loop
      vertex -12 6 60
      vertex -12 6 50
      vertex -8 6 60
    endloop
  endfacet
  facet normal 0 1 -9.53674e-008
    outer loop
      vertex -12 10 65
      vertex -12 10 75
      vertex -8 10 75
    endloop
  endfacet
  facet normal 0.928477 0 -0.371391
    outer loop
      vertex -8 10 75
      vertex -12 7.03586 65
      vertex -12 10 65
    endloop
  endfacet
  facet normal 0.928477 0 -0.371391
    outer loop
      vertex -12 7.03586 65
      vertex -8 10 75
      vertex -12 6 65
    endloop
  endfacet
  facet normal -1 0 0
    outer loop
      vertex -12 7.03586 65
      vertex -12 6 75
      vertex -12 7.19522 75
    endloop
  endfacet
  facet normal -1 0 -0
    outer loop
      vertex -12 6 75
      vertex -12 7.03586 65
      vertex -12 6 65
    endloop
  endfacet
  facet normal 0.928477 0 -0.371391
    outer loop
      vertex -8 6 75
      vertex -12 6 65
      vertex -8 10 75
    endloop
  endfacet
  facet normal 0 -1 9.53674e-008
    outer loop
      vertex -12 6 75
      vertex -12 6 65
      vertex -8 6 75
    endloop
  endfacet
  facet normal 0 0 1
    outer loop
      vertex -12 7.19522 75
      vertex -8 10 75
      vertex -12 10 75
    endloop
  endfacet
  facet normal 0 0 1
    outer loop
      vertex -8 10 75
      vertex -12 7.19522 75
      vertex -8 6 75
    endloop
  endfacet
  facet normal 0 0 1
    outer loop
      vertex -8 6 75
      vertex -12 7.19522 75
      vertex -12 6 75
    endloop
  endfacet
  facet normal 0 1 -9.53674e-008
    outer loop
      vertex -12 10 80
      vertex -12 10 90
      vertex -8 10 90
    endloop
  endfacet
  facet normal 0.928477 0 -0.371391
    outer loop
      vertex -8 10 90
      vertex -12 7.2749 80
      vertex -12 10 80
    endloop
  endfacet
  facet normal 0.928477 0 -0.371391
    outer loop
      vertex -12 7.2749 80
      vertex -8 10 90
      vertex -12 6 80
    endloop
  endfacet
  facet normal -1 0 0
    outer loop
      vertex -12 7.2749 80
      vertex -12 6 90
      vertex -12 7.43426 90
    endloop
  endfacet
  facet normal -1 0 -0
    outer loop
      vertex -12 6 90
      vertex -12 7.2749 80
      vertex -12 6 80
    endloop
  endfacet
  facet normal 0.928477 0 -0.371391
    outer loop
      vertex -8 6 90
      vertex -12 6 80
      vertex -8 10 90
    endloop
  endfacet
  facet normal 0 -1 9.53674e-008
    outer loop
      vertex -12 6 90
      vertex -12 6 80
      vertex -8 6 90
    endloop
  endfacet
  facet normal 0 0 1
    outer loop
      vertex -12 7.43426 90
      vertex -8 10 90
      vertex -12 10 90
    endloop
  endfacet
  facet normal 0 0 1
    outer loop
      vertex -8 10 90
      vertex -12 7.43426 90
      vertex -8 6 90
    endloop
  endfacet
  facet normal 0 0 1
    outer loop
      vertex -8 6 90
      vertex -12 7.43426 90
      vertex -12 6 90
    endloop
  endfacet
  facet normal 0 1 -9.53674e-008
    outer loop
      vertex -12 10 95
      vertex -12 10 105
      vertex -8 10 105
    endloop
  endfacet
  facet normal 0.928477 0 -0.371391
    outer loop
      vertex -8 10 105
      vertex -12 7.51394 95
      vertex -12 10 95
    endloop
  endfacet
  facet normal 0.928477 0 -0.371391
    outer loop
      vertex -12 7.51394 95
      vertex -8 10 105
      vertex -12 6 95
    endloop
  endfacet
  facet normal -1 0 0
    outer loop
      vertex -12 7.51394 95
      vertex -12 6 105
      vertex -12 7.67331 105
    endloop
  endfacet
  facet normal -1 0 -0
    outer loop
      vertex -12 6 105
      vertex -12 7.51394 95
      vertex -12 6 95
    endloop
  endfacet
  facet normal 0.928477 0 -0.371391
    outer loop
      vertex -8 6 105
      vertex -12 6 95
      vertex -8 10 105
    endloop
  endfacet
  facet normal 0 0 1
    outer loop
      vertex -12 7.67331 105
      vertex -8 10 105
      vertex -12 10 105
    endloop
  endfacet
  facet normal 0 0 1
    outer loop
      vertex -8 10 105
      vertex -12 7.67331 105
      vertex -8 6 105
    endloop
  endfacet
  facet normal 0 0 1
    outer loop
      vertex -8 6 105
      vertex -12 7.67331 105
      vertex -12 6 105
    endloop
  endfacet
  facet normal 0 -1 9.53674e-008
    outer loop
      vertex -12 6 105
      vertex -12 6 95
      vertex -8 6 105
    endloop
  endfacet
  facet normal 0 1 -9.53674e-008
    outer loop
      vertex -12 10 110
      vertex -12 10 120
      vertex -8 10 120
    endloop
  endfacet
  facet normal 0.928477 0 -0.371391
    outer loop
      vertex -8 10 120
      vertex -12 7.75299 110
      vertex -12 10 110
    endloop
  endfacet
  facet normal 0.928477 0 -0.371391
    outer loop
      vertex -12 7.75299 110
      vertex -8 10 120
      vertex -12 6 110
    endloop
  endfacet
  facet normal -1 0 0
    outer loop
      vertex -12 7.75299 110
      vertex -12 6 120
      vertex -12 7.91235 120
    endloop
  endfacet
  facet normal -1 0 -0
    outer loop
      vertex -12 6 120
      vertex -12 7.75299 110
      vertex -12 6 110
    endloop
  endfacet
  facet normal 0.928477 0 -0.371391
    outer loop
      vertex -8 6 120
      vertex -12 6 110
      vertex -8 10 120
    endloop
  endfacet
  facet normal 0 -1 9.53674e-008
    outer loop
      vertex -12 6 120
      vertex -12 6 110
      vertex -8 6 120
    endloop
  endfacet
  facet normal 0 0 1
    outer loop
      vertex -12 7.91235 120
      vertex -8 10 120
      vertex -12 10 120
    endloop
  endfacet
  facet normal 0 0 1
    outer loop
      vertex -8 10 120
      vertex -12 7.91235 120
      vertex -8 6 120
    endloop
  endfacet
  facet normal 0 0 1
    outer loop
      vertex -8 6 120
      vertex -12 7.91235 120
      vertex -12 6 120
    endloop
  endfacet
  facet normal 0 1 -9.53674e-008
    outer loop
      vertex -12 10 125
      vertex -12 10 135
      vertex -8 10 135
    endloop
  endfacet
  facet normal 0.928477 0 -0.371391
    outer loop
      vertex -8 10 135
      vertex -12 7.99203 125
      vertex -12 10 125
    endloop
  endfacet
  facet normal 0.928477 0 -0.371391
    outer loop
      vertex -12 7.99203 125
      vertex -8 10 135
      vertex -12 6 125
    endloop
  endfacet
  facet normal -1 -4.43282e-007 -8.83031e-008
    outer loop
      vertex -12 7.99203 125
      vertex -12 6 135
      vertex -12 8.15139 135
    endloop
  endfacet
  facet normal -1 0 -0
    outer loop
      vertex -12 6 135
      vertex -12 7.99203 125
      vertex -12 6 125
    endloop
  endfacet
  facet normal 0.928477 0 -0.371391
    outer loop
      vertex -8 6 135
      vertex -12 6 125
      vertex -8 10 135
    endloop
  endfacet
  facet normal -0 0 1
    outer loop
      vertex -12 8.15139 135
      vertex -8 6 135
      vertex -8 10 135
    endloop
  endfacet
  facet normal 0 0 1
    outer loop
      vertex -12 8.15139 135
      vertex -8 10 135
      vertex -12 10 135
    endloop
  endfacet
  facet normal 0 0 1
    outer loop
      vertex -8 6 135
      vertex -12 8.15139 135
      vertex -12 6 135
    endloop
  endfacet
  facet normal 0 -1 9.53674e-008
    outer loop
      vertex -12 6 135
      vertex -12 6 125
      vertex -8 6 135
    endloop
  endfacet
  facet normal 0 1 -9.53674e-008
    outer loop
      vertex -12 10 140
      vertex -12 10 150
      vertex -8 10 150
    endloop
  endfacet
  facet normal 0.928477 0 -0.371391
    outer loop
      vertex -8 10 150
      vertex -12 8.23107 140
      vertex -12 10 140
    endloop
  endfacet
  facet normal 0.928477 3.96878e-007 -0.371391
    outer loop
      vertex -12 8.23107 140
      vertex -8 10 150
      vertex -12 6 140
    endloop
  endfacet
  facet normal -1 -3.98954e-007 6.35788e-009
    outer loop
      vertex -12 8.23107 140
      vertex -12 6 150
      vertex -12 8.39044 150
    endloop
  endfacet
  facet normal -1 -4.27451e-007 4.07649e-014
    outer loop
      vertex -12 6 150
      vertex -12 8.23107 140
      vertex -12 6 140
    endloop
  endfacet
  facet normal 0.928477 0 -0.371391
    outer loop
      vertex -8 6 150
      vertex -12 6 140
      vertex -8 10 150
    endloop
  endfacet
  facet normal -0 0 1
    outer loop
      vertex -12 8.39044 150
      vertex -8 6 150
      vertex -8 10 150
    endloop
  endfacet
  facet normal 0 0 1
    outer loop
      vertex -12 8.39044 150
      vertex -8 10 150
      vertex -12 10 150
    endloop
  endfacet
  facet normal 0 0 1
    outer loop
      vertex -8 6 150
      vertex -12 8.39044 150
      vertex -12 6 150
    endloop
  endfacet
  facet normal 0 -1 9.53674e-008
    outer loop
      vertex -12 6 150
      vertex -12 6 140
      vertex -8 6 150
    endloop
  endfacet
  facet normal 0 1 -9.53674e-008
    outer loop
      vertex -12 10 155
      vertex -12 10 165
      vertex -8 10 165
    endloop
  endfacet
  facet normal 0.928477 0 -0.371391
    outer loop
      vertex -8 10 165
      vertex -12 8.47012 155
      vertex -12 10 155
    endloop
  endfacet
  facet normal 0.928477 3.5847e-007 -0.371391
    outer loop
      vertex -12 8.47012 155
      vertex -8 10 165
      vertex -12 6 155
    endloop
  endfacet
  facet normal -1 -3.62685e-007 5.77989e-009
    outer loop
      vertex -12 8.47012 155
      vertex -12 6 165
      vertex -12 8.62948 165
    endloop
  endfacet
  facet normal -1 -3.86084e-007 3.68199e-014
    outer loop
      vertex -12 6 165
      vertex -12 8.47012 155
      vertex -12 6 155
    endloop
  endfacet
  facet normal 0.928477 0 -0.371391
    outer loop
      vertex -8 6 165
      vertex -12 6 155
      vertex -8 10 165
    endloop
  endfacet
  facet normal 0 -1 9.53674e-008
    outer loop
      vertex -12 6 165
      vertex -12 6 155
      vertex -8 6 165
    endloop
  endfacet
  facet normal -0 0 1
    outer loop
      vertex -12 8.62948 165
      vertex -8 6 165
      vertex -8 10 165
    endloop
  endfacet
  facet normal 0 0 1
    outer loop
      vertex -12 8.62948 165
      vertex -8 10 165
      vertex -12 10 165
    endloop
  endfacet
  facet normal 0 0 1
    outer loop
      vertex -8 6 165
      vertex -12 8.62948 165
      vertex -12 6 165
    endloop
  endfacet
  facet normal 0 1 -9.53674e-008
    outer loop
      vertex -12 10 170
      vertex -12 10 180
      vertex -8 10 180
    endloop
  endfacet
  facet normal 0.928477 0 -0.371391
    outer loop
      vertex -8 10 180
      vertex -12 8.70916 170
      vertex -12 10 170
    endloop
  endfacet
  facet normal 0.928477 3.2684e-007 -0.371391
    outer loop
      vertex -12 8.70916 170
      vertex -8 10 180
      vertex -12 6 170
    endloop
  endfacet
  facet normal -1 -3.32462e-007 5.2982e-009
    outer loop
      vertex -12 8.70916 170
      vertex -12 6 180
      vertex -12 8.86853 180
    endloop
  endfacet
  facet normal -1 -3.52018e-007 3.35711e-014
    outer loop
      vertex -12 6 180
      vertex -12 8.70916 170
      vertex -12 6 170
    endloop
  endfacet
  facet normal 0.928477 0 -0.371391
    outer loop
      vertex -8 6 180
      vertex -12 6 170
      vertex -8 10 180
    endloop
  endfacet
  facet normal 0 -1 9.53674e-008
    outer loop
      vertex -12 6 180
      vertex -12 6 170
      vertex -8 6 180
    endloop
  endfacet
  facet normal -0 0 1
    outer loop
      vertex -12 8.86853 180
      vertex -8 6 180
      vertex -8 10 180
    endloop
  endfacet
  facet normal 0 0 1
    outer loop
      vertex -12 8.86853 180
      vertex -8 10 180
      vertex -12 10 180
    endloop
  endfacet
  facet normal 0 0 1
    outer loop
      vertex -8 6 180
      vertex -12 8.86853 180
      vertex -12 6 180
    endloop
  endfacet
  facet normal 0 1 -9.53674e-008
    outer loop
      vertex -12 10 185
      vertex -12 10 195
      vertex -8 10 195
    endloop
  endfacet
  facet normal 0.928477 0 -0.371391
    outer loop
      vertex -8 10 195
      vertex -12 8.94821 185
      vertex -12 10 185
    endloop
  endfacet
  facet normal 0.928477 3.0034e-007 -0.371391
    outer loop
      vertex -12 8.94821 185
      vertex -8 10 195
      vertex -12 6 185
    endloop
  endfacet
  facet normal -1 -3.06888e-007 4.89067e-009
    outer loop
      vertex -12 8.94821 185
      vertex -12 6 195
      vertex -12 9.10757 195
    endloop
  endfacet
  facet normal -1 -3.23476e-007 3.08491e-014
    outer loop
      vertex -12 6 195
      vertex -12 8.94821 185
      vertex -12 6 185
    endloop
  endfacet
  facet normal 0.928477 0 -0.371391
    outer loop
      vertex -8 6 195
      vertex -12 6 185
      vertex -8 10 195
    endloop
  endfacet
  facet normal 0 -1 9.53674e-008
    outer loop
      vertex -12 6 195
      vertex -12 6 185
      vertex -8 6 195
    endloop
  endfacet
  facet normal -0 0 1
    outer loop
      vertex -12 9.10757 195
      vertex -8 6 195
      vertex -8 10 195
    endloop
  endfacet
  facet normal 0 0 1
    outer loop
      vertex -12 9.10757 195
      vertex -8 10 195
      vertex -12 10 195
    endloop
  endfacet
  facet normal 0 0 1
    outer loop
      vertex -8 6 195
      vertex -12 9.10757 195
      vertex -12 6 195
    endloop
  endfacet
  facet normal 0 1 -9.53674e-008
    outer loop
      vertex -12 10 200
      vertex -12 10 210
      vertex -8 10 210
    endloop
  endfacet
  facet normal 0.928477 0 -0.371391
    outer loop
      vertex -8 10 210
      vertex -12 9.18725 200
      vertex -12 10 200
    endloop
  endfacet
  facet normal 0.928477 2.77814e-007 -0.371391
    outer loop
      vertex -12 9.18725 200
      vertex -8 10 210
      vertex -12 6 200
    endloop
  endfacet
  facet normal -1 -2.84967e-007 4.54134e-009
    outer loop
      vertex -12 9.18725 200
      vertex -12 6 210
      vertex -12 9.34661 210
    endloop
  endfacet
  facet normal -1 -2.99215e-007 2.85354e-014
    outer loop
      vertex -12 6 210
      vertex -12 9.18725 200
      vertex -12 6 200
    endloop
  endfacet
  facet normal 0.928477 0 -0.371391
    outer loop
      vertex -8 6 210
      vertex -12 6 200
      vertex -8 10 210
    endloop
  endfacet
  facet normal 0 -1 9.53674e-008
    outer loop
      vertex -12 6 210
      vertex -12 6 200
      vertex -8 6 210
    endloop
  endfacet
  facet normal -0 0 1
    outer loop
      vertex -12 9.34661 210
      vertex -8 6 210
      vertex -8 10 210
    endloop
  endfacet
  facet normal 0 0 1
    outer loop
      vertex -12 9.34661 210
      vertex -8 10 210
      vertex -12 10 210
    endloop
  endfacet
  facet normal 0 0 1
    outer loop
      vertex -8 6 210
      vertex -12 9.34661 210
      vertex -12 6 210
    endloop
  endfacet
  facet normal 0 1 -9.53674e-008
    outer loop
      vertex -12 10 215
      vertex -12 10 225
      vertex -8 10 225
    endloop
  endfacet
  facet normal 0.928477 0 -0.371391
    outer loop
      vertex -8 10 225
      vertex -12 9.42629 215
      vertex -12 10 215
    endloop
  endfacet
  facet normal 0.928477 2.58432e-007 -0.371391
    outer loop
      vertex -12 9.42629 215
      vertex -8 10 225
      vertex -12 6 215
    endloop
  endfacet
  facet normal -1 -2.65969e-007 4.23856e-009
    outer loop
      vertex -12 9.42629 215
      vertex -12 6 225
      vertex -12 9.58566 225
    endloop
  endfacet
  facet normal -1 -2.7834e-007 2.65446e-014
    outer loop
      vertex -12 6 225
      vertex -12 9.42629 215
      vertex -12 6 215
    endloop
  endfacet
  facet normal 0.928477 0 -0.371391
    outer loop
      vertex -8 6 225
      vertex -12 6 215
      vertex -8 10 225
    endloop
  endfacet
  facet normal 0 -1 9.53674e-008
    outer loop
      vertex -12 6 225
      vertex -12 6 215
      vertex -8 6 225
    endloop
  endfacet
  facet normal -0 0 1
    outer loop
      vertex -12 9.58566 225
      vertex -8 6 225
      vertex -8 10 225
    endloop
  endfacet
  facet normal 0 0 1
    outer loop
      vertex -12 9.58566 225
      vertex -8 10 225
      vertex -12 10 225
    endloop
  endfacet
  facet normal 0 0 1
    outer loop
      vertex -8 6 225
      vertex -12 9.58566 225
      vertex -12 6 225
    endloop
  endfacet
  facet normal 0 1 -9.53674e-008
    outer loop
      vertex -12 10 230
      vertex -12 10 240
      vertex -8 10 240
    endloop
  endfacet
  facet normal 0.928477 0 -0.371391
    outer loop
      vertex -8 10 240
      vertex -12 9.66534 230
      vertex -12 10 230
    endloop
  endfacet
  facet normal 0.928477 2.41578e-007 -0.371391
    outer loop
      vertex -12 9.66534 230
      vertex -8 10 240
      vertex -12 6 230
    endloop
  endfacet
  facet normal -1 -2.49346e-007 3.97367e-009
    outer loop
      vertex -12 9.66534 230
      vertex -12 6 240
      vertex -12 9.8247 240
    endloop
  endfacet
  facet normal -1 -2.60187e-007 2.48134e-014
    outer loop
      vertex -12 6 240
      vertex -12 9.66534 230
      vertex -12 6 230
    endloop
  endfacet
  facet normal 0.928477 0 -0.371391
    outer loop
      vertex -8 6 240
      vertex -12 6 230
      vertex -8 10 240
    endloop
  endfacet
  facet normal -0 0 1
    outer loop
      vertex -12 9.8247 240
      vertex -8 6 240
      vertex -8 10 240
    endloop
  endfacet
  facet normal 0 0 1
    outer loop
      vertex -12 9.8247 240
      vertex -8 10 240
      vertex -12 10 240
    endloop
  endfacet
  facet normal 0 0 1
    outer loop
      vertex -8 6 240
      vertex -12 9.8247 240
      vertex -12 6 240
    endloop
  endfacet
  facet normal 0 -1 9.53674e-008
    outer loop
      vertex -12 6 240
      vertex -12 6 230
      vertex -8 6 240
    endloop
  endfacet
  facet normal 0 0 1
    outer loop
      vertex -12 10 251
      vertex -21.5 6 251
      vertex -12 6 251
    endloop
  endfacet
  facet normal 0 0 1
    outer loop
      vertex -33.5 6 251
      vertex -21.5 6 251
      vertex -33.5 10 251
    endloop
  endfacet
  facet normal -0 0 1
    outer loop
      vertex -33.5 10 251
      vertex -21.5 6 251
      vertex -12 10 251
    endloop
  endfacet
  facet normal -0 0 1
    outer loop
      vertex -21.5 2 251
      vertex -4 0 251
      vertex -4 2 251
    endloop
  endfacet
  facet normal 0 0 1
    outer loop
      vertex -21.5 6 251
      vertex -33.5 6 251
      vertex -21.5 2 251
    endloop
  endfacet
  facet normal 0 0 1
    outer loop
      vertex -40 0 251
      vertex -33.5 6 251
      vertex -40 6 251
    endloop
  endfacet
  facet normal 0 0 1
    outer loop
      vertex -21.5 2 251
      vertex -40 0 251
      vertex -4 0 251
    endloop
  endfacet
  facet normal 0 0 1
    outer loop
      vertex -33.5 6 251
      vertex -40 0 251
      vertex -21.5 2 251
    endloop
  endfacet
  facet normal -0 0 1
    outer loop
      vertex -42 24 251
      vertex -40 6 251
      vertex -40 24 251
    endloop
  endfacet
  facet normal 0 0 1
    outer loop
      vertex -40 6 251
      vertex -42 2 251
      vertex -40 0 251
    endloop
  endfacet
  facet normal 0 0 1
    outer loop
      vertex -40 0 251
      vertex -42 2 251
      vertex -40.209 0.0109558 251
    endloop
  endfacet
  facet normal 0 0 1
    outer loop
      vertex -40.209 0.0109558 251
      vertex -42 2 251
      vertex -40.4158 0.0437012 251
    endloop
  endfacet
  facet normal 0 0 1
    outer loop
      vertex -40.4158 0.0437012 251
      vertex -42 2 251
      vertex -40.618 0.0978851 251
    endloop
  endfacet
  facet normal 0 0 1
    outer loop
      vertex -40.618 0.0978851 251
      vertex -42 2 251
      vertex -40.8135 0.172897 251
    endloop
  endfacet
  facet normal 0 0 1
    outer loop
      vertex -40.8135 0.172897 251
      vertex -42 2 251
      vertex -41 0.267944 251
    endloop
  endfacet
  facet normal 0 0 1
    outer loop
      vertex -41 0.267944 251
      vertex -42 2 251
      vertex -41.1756 0.381958 251
    endloop
  endfacet
  facet normal 0 0 1
    outer loop
      vertex -41.1756 0.381958 251
      vertex -42 2 251
      vertex -41.3383 0.513702 251
    endloop
  endfacet
  facet normal 0 0 1
    outer loop
      vertex -41.3383 0.513702 251
      vertex -42 2 251
      vertex -41.4863 0.661728 251
    endloop
  endfacet
  facet normal 0 0 1
    outer loop
      vertex -41.4863 0.661728 251
      vertex -42 2 251
      vertex -41.618 0.824417 251
    endloop
  endfacet
  facet normal 0 0 1
    outer loop
      vertex -41.618 0.824417 251
      vertex -42 2 251
      vertex -41.732 1 251
    endloop
  endfacet
  facet normal 0 0 1
    outer loop
      vertex -41.732 1 251
      vertex -42 2 251
      vertex -41.8271 1.18652 251
    endloop
  endfacet
  facet normal 0 0 1
    outer loop
      vertex -41.8271 1.18652 251
      vertex -42 2 251
      vertex -41.9021 1.38196 251
    endloop
  endfacet
  facet normal 0 0 1
    outer loop
      vertex -41.9021 1.38196 251
      vertex -42 2 251
      vertex -41.9563 1.58417 251
    endloop
  endfacet
  facet normal 0 0 1
    outer loop
      vertex -40 6 251
      vertex -42 24 251
      vertex -42 2 251
    endloop
  endfacet
  facet normal 0 0 1
    outer loop
      vertex -41.9563 1.58417 251
      vertex -42 2 251
      vertex -41.989 1.79094 251
    endloop
  endfacet
  facet normal 0 0 -1
    outer loop
      vertex -4 2 0
      vertex -33.5 6 0
      vertex -4 10 0
    endloop
  endfacet
  facet normal 0 0 -1
    outer loop
      vertex -4 0 0
      vertex -33.5 6 0
      vertex -4 2 0
    endloop
  endfacet
  facet normal 0 0 -1
    outer loop
      vertex -40 0 0
      vertex -33.5 6 0
      vertex -4 0 0
    endloop
  endfacet
  facet normal 0 0 -1
    outer loop
      vertex -40 0 0
      vertex -40 6 0
      vertex -33.5 6 0
    endloop
  endfacet
  facet normal 0 0 -1
    outer loop
      vertex -42 2 0
      vertex -40 6 0
      vertex -40 0 0
    endloop
  endfacet
  facet normal 0 0 -1
    outer loop
      vertex -42 2 0
      vertex -40 0 0
      vertex -40.209 0.0109558 0
    endloop
  endfacet
  facet normal 0 0 -1
    outer loop
      vertex -42 2 0
      vertex -40.209 0.0109558 0
      vertex -40.4158 0.0437012 0
    endloop
  endfacet
  facet normal 0 0 -1
    outer loop
      vertex -42 2 0
      vertex -40.4158 0.0437012 0
      vertex -40.618 0.0978851 0
    endloop
  endfacet
  facet normal 0 0 -1
    outer loop
      vertex -42 2 0
      vertex -40.618 0.0978851 0
      vertex -40.8135 0.172897 0
    endloop
  endfacet
  facet normal 0 0 -1
    outer loop
      vertex -42 2 0
      vertex -40.8135 0.172897 0
      vertex -41 0.267944 0
    endloop
  endfacet
  facet normal 0 0 -1
    outer loop
      vertex -42 2 0
      vertex -41 0.267944 0
      vertex -41.1756 0.381958 0
    endloop
  endfacet
  facet normal 0 0 -1
    outer loop
      vertex -42 2 0
      vertex -41.1756 0.381958 0
      vertex -41.3383 0.513702 0
    endloop
  endfacet
  facet normal 0 0 -1
    outer loop
      vertex -42 2 0
      vertex -41.3383 0.513702 0
      vertex -41.4863 0.661728 0
    endloop
  endfacet
  facet normal 0 0 -1
    outer loop
      vertex -42 2 0
      vertex -41.4863 0.661728 0
      vertex -41.618 0.824417 0
    endloop
  endfacet
  facet normal 0 0 -1
    outer loop
      vertex -42 2 0
      vertex -41.618 0.824417 0
      vertex -41.732 1 0
    endloop
  endfacet
  facet normal 0 0 -1
    outer loop
      vertex -42 2 0
      vertex -41.732 1 0
      vertex -41.8271 1.18652 0
    endloop
  endfacet
  facet normal 0 0 -1
    outer loop
      vertex -42 2 0
      vertex -41.8271 1.18652 0
      vertex -41.9021 1.38196 0
    endloop
  endfacet
  facet normal 0 0 -1
    outer loop
      vertex -42 2 0
      vertex -41.9021 1.38196 0
      vertex -41.9563 1.58417 0
    endloop
  endfacet
  facet normal 0 0 -1
    outer loop
      vertex -42 2 0
      vertex -41.9563 1.58417 0
      vertex -41.989 1.79094 0
    endloop
  endfacet
  facet normal 0 0 -1
    outer loop
      vertex -42 24 0
      vertex -40 6 0
      vertex -42 2 0
    endloop
  endfacet
  facet normal 0 0 -1
    outer loop
      vertex -40 6 0
      vertex -42 24 0
      vertex -40 24 0
    endloop
  endfacet
  facet normal -0 0 -1
    outer loop
      vertex -4 10 0
      vertex -33.5 6 0
      vertex -33.5 10 0
    endloop
  endfacet
  facet normal -0.156415 -0.987691 0
    outer loop
      vertex -40.4158 0.0437012 0
      vertex -40.209 0.0109558 251
      vertex -40.4158 0.0437012 251
    endloop
  endfacet
  facet normal -0.156415 -0.987691 -0
    outer loop
      vertex -40.209 0.0109558 251
      vertex -40.4158 0.0437012 0
      vertex -40.209 0.0109558 0
    endloop
  endfacet
  facet normal -0.258828 -0.965923 0
    outer loop
      vertex -40.618 0.0978851 0
      vertex -40.4158 0.0437012 251
      vertex -40.618 0.0978851 251
    endloop
  endfacet
  facet normal -0.258828 -0.965923 -0
    outer loop
      vertex -40.4158 0.0437012 251
      vertex -40.618 0.0978851 0
      vertex -40.4158 0.0437012 0
    endloop
  endfacet
  facet normal -0.358334 -0.933593 0
    outer loop
      vertex -40.8135 0.172897 0
      vertex -40.618 0.0978851 251
      vertex -40.8135 0.172897 251
    endloop
  endfacet
  facet normal -0.358334 -0.933593 -0
    outer loop
      vertex -40.618 0.0978851 251
      vertex -40.8135 0.172897 0
      vertex -40.618 0.0978851 0
    endloop
  endfacet
  facet normal -0.453993 -0.891005 0
    outer loop
      vertex -41 0.267944 0
      vertex -40.8135 0.172897 251
      vertex -41 0.267944 251
    endloop
  endfacet
  facet normal -0.453993 -0.891005 -0
    outer loop
      vertex -40.8135 0.172897 251
      vertex -41 0.267944 0
      vertex -40.8135 0.172897 0
    endloop
  endfacet
  facet normal -0.544635 -0.838673 0
    outer loop
      vertex -41.1756 0.381958 0
      vertex -41 0.267944 251
      vertex -41.1756 0.381958 251
    endloop
  endfacet
  facet normal -0.544635 -0.838673 -0
    outer loop
      vertex -41 0.267944 251
      vertex -41.1756 0.381958 0
      vertex -41 0.267944 0
    endloop
  endfacet
  facet normal -0.629324 -0.777143 0
    outer loop
      vertex -41.3383 0.513702 0
      vertex -41.1756 0.381958 251
      vertex -41.3383 0.513702 251
    endloop
  endfacet
  facet normal -0.629324 -0.777143 -0
    outer loop
      vertex -41.1756 0.381958 251
      vertex -41.3383 0.513702 0
      vertex -41.1756 0.381958 0
    endloop
  endfacet
  facet normal -0.707107 -0.707107 0
    outer loop
      vertex -41.3383 0.513702 0
      vertex -41.4863 0.661728 251
      vertex -41.4863 0.661728 0
    endloop
  endfacet
  facet normal -0.707107 -0.707107 0
    outer loop
      vertex -41.4863 0.661728 251
      vertex -41.3383 0.513702 0
      vertex -41.3383 0.513702 251
    endloop
  endfacet
  facet normal -0.777143 -0.629324 0
    outer loop
      vertex -41.4863 0.661728 0
      vertex -41.618 0.824417 251
      vertex -41.618 0.824417 0
    endloop
  endfacet
  facet normal -0.777143 -0.629324 0
    outer loop
      vertex -41.618 0.824417 251
      vertex -41.4863 0.661728 0
      vertex -41.4863 0.661728 251
    endloop
  endfacet
  facet normal -0.838695 -0.544601 0
    outer loop
      vertex -41.618 0.824417 0
      vertex -41.732 1 251
      vertex -41.732 1 0
    endloop
  endfacet
  facet normal -0.838695 -0.544601 0
    outer loop
      vertex -41.732 1 251
      vertex -41.618 0.824417 0
      vertex -41.618 0.824417 251
    endloop
  endfacet
  facet normal -0.89099 -0.454023 0
    outer loop
      vertex -41.732 1 0
      vertex -41.8271 1.18652 251
      vertex -41.8271 1.18652 0
    endloop
  endfacet
  facet normal -0.89099 -0.454023 0
    outer loop
      vertex -41.8271 1.18652 251
      vertex -41.732 1 0
      vertex -41.732 1 251
    endloop
  endfacet
  facet normal -0.933593 -0.358334 0
    outer loop
      vertex -41.8271 1.18652 0
      vertex -41.9021 1.38196 251
      vertex -41.9021 1.38196 0
    endloop
  endfacet
  facet normal -0.933593 -0.358334 0
    outer loop
      vertex -41.9021 1.38196 251
      vertex -41.8271 1.18652 0
      vertex -41.8271 1.18652 251
    endloop
  endfacet
  facet normal -0.965923 -0.258828 0
    outer loop
      vertex -41.9021 1.38196 0
      vertex -41.9563 1.58417 251
      vertex -41.9563 1.58417 0
    endloop
  endfacet
  facet normal -0.965923 -0.258828 0
    outer loop
      vertex -41.9563 1.58417 251
      vertex -41.9021 1.38196 0
      vertex -41.9021 1.38196 251
    endloop
  endfacet
  facet normal -0.987691 -0.156415 0
    outer loop
      vertex -41.9563 1.58417 0
      vertex -41.989 1.79094 251
      vertex -41.989 1.79094 0
    endloop
  endfacet
  facet normal -0.987691 -0.156415 0
    outer loop
      vertex -41.989 1.79094 251
      vertex -41.9563 1.58417 0
      vertex -41.9563 1.58417 251
    endloop
  endfacet
  facet normal -0.998626 -0.0524058 0
    outer loop
      vertex -41.989 1.79094 0
      vertex -42 2 251
      vertex -42 2 0
    endloop
  endfacet
  facet normal -0.998626 -0.0524058 0
    outer loop
      vertex -42 2 251
      vertex -41.989 1.79094 0
      vertex -41.989 1.79094 251
    endloop
  endfacet
  facet normal -1 0 0
    outer loop
      vertex -42 16.6643 68.5408
      vertex -42 16.75 190
      vertex -42 16.75 68
    endloop
  endfacet
  facet normal -1 0 0
    outer loop
      vertex -42 16.6643 68.5408
      vertex -42 16.6643 189.459
      vertex -42 16.75 190
    endloop
  endfacet
  facet normal -1 0 0
    outer loop
      vertex -42 16.4158 69.0286
      vertex -42 16.6643 189.459
      vertex -42 16.6643 68.5408
    endloop
  endfacet
  facet normal -1 0 0
    outer loop
      vertex -42 16.4158 69.0286
      vertex -42 16.4158 188.971
      vertex -42 16.6643 189.459
    endloop
  endfacet
  facet normal -1 0 0
    outer loop
      vertex -42 16.0286 69.4158
      vertex -42 16.4158 188.971
      vertex -42 16.4158 69.0286
    endloop
  endfacet
  facet normal -1 0 0
    outer loop
      vertex -42 16.0286 69.4158
      vertex -42 16.0286 188.584
      vertex -42 16.4158 188.971
    endloop
  endfacet
  facet normal -1 0 0
    outer loop
      vertex -42 15.5408 69.6644
      vertex -42 16.0286 188.584
      vertex -42 16.0286 69.4158
    endloop
  endfacet
  facet normal -1 0 0
    outer loop
      vertex -42 15.5408 69.6644
      vertex -42 15.5408 188.336
      vertex -42 16.0286 188.584
    endloop
  endfacet
  facet normal -1 0 0
    outer loop
      vertex -42 15 69.75
      vertex -42 15.5408 188.336
      vertex -42 15.5408 69.6644
    endloop
  endfacet
  facet normal -1 0 0
    outer loop
      vertex -42 15 69.75
      vertex -42 15 188.25
      vertex -42 15.5408 188.336
    endloop
  endfacet
  facet normal -1 0 0
    outer loop
      vertex -42 14.4592 69.6644
      vertex -42 15 188.25
      vertex -42 15 69.75
    endloop
  endfacet
  facet normal -1 0 0
    outer loop
      vertex -42 14.4592 69.6644
      vertex -42 14.4592 188.336
      vertex -42 15 188.25
    endloop
  endfacet
  facet normal -1 0 0
    outer loop
      vertex -42 13.9714 69.4158
      vertex -42 14.4592 188.336
      vertex -42 14.4592 69.6644
    endloop
  endfacet
  facet normal -1 0 0
    outer loop
      vertex -42 13.9714 69.4158
      vertex -42 13.9714 188.584
      vertex -42 14.4592 188.336
    endloop
  endfacet
  facet normal -1 0 0
    outer loop
      vertex -42 13.5842 69.0286
      vertex -42 13.9714 188.584
      vertex -42 13.9714 69.4158
    endloop
  endfacet
  facet normal -1 0 0
    outer loop
      vertex -42 13.5842 69.0286
      vertex -42 13.5842 188.971
      vertex -42 13.9714 188.584
    endloop
  endfacet
  facet normal -1 0 0
    outer loop
      vertex -42 13.3357 68.5408
      vertex -42 13.5842 188.971
      vertex -42 13.5842 69.0286
    endloop
  endfacet
  facet normal -1 0 0
    outer loop
      vertex -42 13.3357 68.5408
      vertex -42 13.3357 189.459
      vertex -42 13.5842 188.971
    endloop
  endfacet
  facet normal -1 0 0
    outer loop
      vertex -42 13.25 68
      vertex -42 13.3357 189.459
      vertex -42 13.3357 68.5408
    endloop
  endfacet
  facet normal -1 -0 0
    outer loop
      vertex -42 13.3357 189.459
      vertex -42 13.25 68
      vertex -42 13.25 190
    endloop
  endfacet
  facet normal -1 0 0
    outer loop
      vertex -42 24 0
      vertex -42 16.75 68
      vertex -42 24 251
    endloop
  endfacet
  facet normal -1 0 0
    outer loop
      vertex -42 24 0
      vertex -42 16.6643 67.4592
      vertex -42 16.75 68
    endloop
  endfacet
  facet normal -1 0 0
    outer loop
      vertex -42 24 0
      vertex -42 16.4158 66.9714
      vertex -42 16.6643 67.4592
    endloop
  endfacet
  facet normal -1 0 0
    outer loop
      vertex -42 24 0
      vertex -42 16.0286 66.5842
      vertex -42 16.4158 66.9714
    endloop
  endfacet
  facet normal -1 0 0
    outer loop
      vertex -42 24 0
      vertex -42 15.5408 66.3356
      vertex -42 16.0286 66.5842
    endloop
  endfacet
  facet normal -1 0 0
    outer loop
      vertex -42 24 0
      vertex -42 15 66.25
      vertex -42 15.5408 66.3356
    endloop
  endfacet
  facet normal -1 0 0
    outer loop
      vertex -42 2 0
      vertex -42 15 66.25
      vertex -42 24 0
    endloop
  endfacet
  facet normal -1 -0 0
    outer loop
      vertex -42 15 66.25
      vertex -42 2 0
      vertex -42 14.4592 66.3356
    endloop
  endfacet
  facet normal -1 -0 0
    outer loop
      vertex -42 14.4592 66.3356
      vertex -42 2 0
      vertex -42 13.9714 66.5842
    endloop
  endfacet
  facet normal -1 -0 0
    outer loop
      vertex -42 13.9714 66.5842
      vertex -42 2 0
      vertex -42 13.5842 66.9714
    endloop
  endfacet
  facet normal -1 -0 0
    outer loop
      vertex -42 13.5842 66.9714
      vertex -42 2 0
      vertex -42 13.3357 67.4592
    endloop
  endfacet
  facet normal -1 0 0
    outer loop
      vertex -42 2 251
      vertex -42 13.25 68
      vertex -42 2 0
    endloop
  endfacet
  facet normal -1 -0 0
    outer loop
      vertex -42 13.3357 67.4592
      vertex -42 2 0
      vertex -42 13.25 68
    endloop
  endfacet
  facet normal -1 0 0
    outer loop
      vertex -42 16.75 190
      vertex -42 24 251
      vertex -42 16.75 68
    endloop
  endfacet
  facet normal -1 0 0
    outer loop
      vertex -42 16.6643 190.541
      vertex -42 24 251
      vertex -42 16.75 190
    endloop
  endfacet
  facet normal -1 0 0
    outer loop
      vertex -42 16.4158 191.029
      vertex -42 24 251
      vertex -42 16.6643 190.541
    endloop
  endfacet
  facet normal -1 0 0
    outer loop
      vertex -42 16.0286 191.416
      vertex -42 24 251
      vertex -42 16.4158 191.029
    endloop
  endfacet
  facet normal -1 0 0
    outer loop
      vertex -42 15.5408 191.664
      vertex -42 24 251
      vertex -42 16.0286 191.416
    endloop
  endfacet
  facet normal -1 0 0
    outer loop
      vertex -42 15 191.75
      vertex -42 24 251
      vertex -42 15.5408 191.664
    endloop
  endfacet
  facet normal -1 0 0
    outer loop
      vertex -42 2 251
      vertex -42 15 191.75
      vertex -42 14.4592 191.664
    endloop
  endfacet
  facet normal -1 0 0
    outer loop
      vertex -42 2 251
      vertex -42 14.4592 191.664
      vertex -42 13.9714 191.416
    endloop
  endfacet
  facet normal -1 0 0
    outer loop
      vertex -42 2 251
      vertex -42 13.9714 191.416
      vertex -42 13.5842 191.029
    endloop
  endfacet
  facet normal -1 0 0
    outer loop
      vertex -42 2 251
      vertex -42 13.5842 191.029
      vertex -42 13.3357 190.541
    endloop
  endfacet
  facet normal -1 0 0
    outer loop
      vertex -42 15 191.75
      vertex -42 2 251
      vertex -42 24 251
    endloop
  endfacet
  facet normal -1 0 0
    outer loop
      vertex -42 13.25 190
      vertex -42 2 251
      vertex -42 13.3357 190.541
    endloop
  endfacet
  facet normal -1 0 0
    outer loop
      vertex -42 13.25 68
      vertex -42 2 251
      vertex -42 13.25 190
    endloop
  endfacet
  facet normal 0 1 -0
    outer loop
      vertex -40 24 0
      vertex -42 24 251
      vertex -40 24 251
    endloop
  endfacet
  facet normal 0 1 0
    outer loop
      vertex -42 24 251
      vertex -40 24 0
      vertex -42 24 0
    endloop
  endfacet
  facet normal 1 -0 0
    outer loop
      vertex -40 16.6643 189.459
      vertex -40 16.75 68
      vertex -40 16.75 190
    endloop
  endfacet
  facet normal 1 0 0
    outer loop
      vertex -40 16.6643 189.459
      vertex -40 16.6643 68.5408
      vertex -40 16.75 68
    endloop
  endfacet
  facet normal 1 -0 0
    outer loop
      vertex -40 16.4158 188.971
      vertex -40 16.6643 68.5408
      vertex -40 16.6643 189.459
    endloop
  endfacet
  facet normal 1 0 0
    outer loop
      vertex -40 16.4158 188.971
      vertex -40 16.4158 69.0286
      vertex -40 16.6643 68.5408
    endloop
  endfacet
  facet normal 1 -0 0
    outer loop
      vertex -40 16.0286 188.584
      vertex -40 16.4158 69.0286
      vertex -40 16.4158 188.971
    endloop
  endfacet
  facet normal 1 0 0
    outer loop
      vertex -40 16.0286 188.584
      vertex -40 16.0286 69.4158
      vertex -40 16.4158 69.0286
    endloop
  endfacet
  facet normal 1 -0 0
    outer loop
      vertex -40 15.5408 188.336
      vertex -40 16.0286 69.4158
      vertex -40 16.0286 188.584
    endloop
  endfacet
  facet normal 1 0 0
    outer loop
      vertex -40 15.5408 188.336
      vertex -40 15.5408 69.6644
      vertex -40 16.0286 69.4158
    endloop
  endfacet
  facet normal 1 -0 0
    outer loop
      vertex -40 15 188.25
      vertex -40 15.5408 69.6644
      vertex -40 15.5408 188.336
    endloop
  endfacet
  facet normal 1 0 0
    outer loop
      vertex -40 15 188.25
      vertex -40 15 69.75
      vertex -40 15.5408 69.6644
    endloop
  endfacet
  facet normal 1 0 0
    outer loop
      vertex -40 14.4592 188.336
      vertex -40 15 69.75
      vertex -40 15 188.25
    endloop
  endfacet
  facet normal 1 0 0
    outer loop
      vertex -40 14.4592 188.336
      vertex -40 14.4592 69.6644
      vertex -40 15 69.75
    endloop
  endfacet
  facet normal 1 0 0
    outer loop
      vertex -40 13.9714 188.584
      vertex -40 14.4592 69.6644
      vertex -40 14.4592 188.336
    endloop
  endfacet
  facet normal 1 0 0
    outer loop
      vertex -40 13.9714 188.584
      vertex -40 13.9714 69.4158
      vertex -40 14.4592 69.6644
    endloop
  endfacet
  facet normal 1 0 0
    outer loop
      vertex -40 13.5842 188.971
      vertex -40 13.9714 69.4158
      vertex -40 13.9714 188.584
    endloop
  endfacet
  facet normal 1 0 0
    outer loop
      vertex -40 13.5842 188.971
      vertex -40 13.5842 69.0286
      vertex -40 13.9714 69.4158
    endloop
  endfacet
  facet normal 1 0 0
    outer loop
      vertex -40 13.3357 189.459
      vertex -40 13.5842 69.0286
      vertex -40 13.5842 188.971
    endloop
  endfacet
  facet normal 1 0 0
    outer loop
      vertex -40 13.3357 189.459
      vertex -40 13.3357 68.5408
      vertex -40 13.5842 69.0286
    endloop
  endfacet
  facet normal 1 0 0
    outer loop
      vertex -40 13.25 190
      vertex -40 13.3357 68.5408
      vertex -40 13.3357 189.459
    endloop
  endfacet
  facet normal 1 0 0
    outer loop
      vertex -40 13.3357 68.5408
      vertex -40 13.25 190
      vertex -40 13.25 68
    endloop
  endfacet
  facet normal 1 0 0
    outer loop
      vertex -40 16.75 68
      vertex -40 24 251
      vertex -40 16.75 190
    endloop
  endfacet
  facet normal 1 0 0
    outer loop
      vertex -40 24 251
      vertex -40 16.6643 190.541
      vertex -40 16.75 190
    endloop
  endfacet
  facet normal 1 0 0
    outer loop
      vertex -40 24 251
      vertex -40 16.4158 191.029
      vertex -40 16.6643 190.541
    endloop
  endfacet
  facet normal 1 0 0
    outer loop
      vertex -40 24 251
      vertex -40 16.0286 191.416
      vertex -40 16.4158 191.029
    endloop
  endfacet
  facet normal 1 0 0
    outer loop
      vertex -40 24 251
      vertex -40 15.5408 191.664
      vertex -40 16.0286 191.416
    endloop
  endfacet
  facet normal 1 0 0
    outer loop
      vertex -40 24 251
      vertex -40 15 191.75
      vertex -40 15.5408 191.664
    endloop
  endfacet
  facet normal 1 -0 0
    outer loop
      vertex -40 6 251
      vertex -40 15 191.75
      vertex -40 24 251
    endloop
  endfacet
  facet normal 1 0 0
    outer loop
      vertex -40 15 191.75
      vertex -40 6 251
      vertex -40 14.4592 191.664
    endloop
  endfacet
  facet normal 1 0 0
    outer loop
      vertex -40 14.4592 191.664
      vertex -40 6 251
      vertex -40 13.9714 191.416
    endloop
  endfacet
  facet normal 1 0 0
    outer loop
      vertex -40 13.9714 191.416
      vertex -40 6 251
      vertex -40 13.5842 191.029
    endloop
  endfacet
  facet normal 1 0 0
    outer loop
      vertex -40 13.25 190
      vertex -40 6 251
      vertex -40 13.25 68
    endloop
  endfacet
  facet normal 1 0 0
    outer loop
      vertex -40 13.3357 190.541
      vertex -40 6 251
      vertex -40 13.25 190
    endloop
  endfacet
  facet normal 1 0 0
    outer loop
      vertex -40 13.5842 191.029
      vertex -40 6 251
      vertex -40 13.3357 190.541
    endloop
  endfacet
  facet normal 1 0 0
    outer loop
      vertex -40 24 251
      vertex -40 16.75 68
      vertex -40 24 0
    endloop
  endfacet
  facet normal 1 -0 0
    outer loop
      vertex -40 16.6643 67.4592
      vertex -40 24 0
      vertex -40 16.75 68
    endloop
  endfacet
  facet normal 1 -0 0
    outer loop
      vertex -40 16.4158 66.9714
      vertex -40 24 0
      vertex -40 16.6643 67.4592
    endloop
  endfacet
  facet normal 1 -0 0
    outer loop
      vertex -40 16.0286 66.5842
      vertex -40 24 0
      vertex -40 16.4158 66.9714
    endloop
  endfacet
  facet normal 1 -0 0
    outer loop
      vertex -40 15.5408 66.3356
      vertex -40 24 0
      vertex -40 16.0286 66.5842
    endloop
  endfacet
  facet normal 1 -0 0
    outer loop
      vertex -40 15 66.25
      vertex -40 24 0
      vertex -40 15.5408 66.3356
    endloop
  endfacet
  facet normal 1 0 0
    outer loop
      vertex -40 6 0
      vertex -40 15 66.25
      vertex -40 14.4592 66.3356
    endloop
  endfacet
  facet normal 1 0 0
    outer loop
      vertex -40 6 0
      vertex -40 14.4592 66.3356
      vertex -40 13.9714 66.5842
    endloop
  endfacet
  facet normal 1 0 0
    outer loop
      vertex -40 6 0
      vertex -40 13.9714 66.5842
      vertex -40 13.5842 66.9714
    endloop
  endfacet
  facet normal 1 0 0
    outer loop
      vertex -40 6 0
      vertex -40 13.5842 66.9714
      vertex -40 13.3357 67.4592
    endloop
  endfacet
  facet normal 1 0 0
    outer loop
      vertex -40 6 0
      vertex -40 13.3357 67.4592
      vertex -40 13.25 68
    endloop
  endfacet
  facet normal 1 0 0
    outer loop
      vertex -40 15 66.25
      vertex -40 6 0
      vertex -40 24 0
    endloop
  endfacet
  facet normal 1 0 0
    outer loop
      vertex -40 6 0
      vertex -40 13.25 68
      vertex -40 6 251
    endloop
  endfacet
  facet normal 0 1 -0
    outer loop
      vertex -33.5 6 0
      vertex -40 6 251
      vertex -33.5 6 251
    endloop
  endfacet
  facet normal 0 1 0
    outer loop
      vertex -40 6 251
      vertex -33.5 6 0
      vertex -40 6 0
    endloop
  endfacet
  facet normal -1 0 0
    outer loop
      vertex -33.5 6 0
      vertex -33.5 10 251
      vertex -33.5 10 0
    endloop
  endfacet
  facet normal -1 -0 0
    outer loop
      vertex -33.5 10 251
      vertex -33.5 6 0
      vertex -33.5 6 251
    endloop
  endfacet
  facet normal 0 1 0
    outer loop
      vertex -4 10 15
      vertex -4 10 0
      vertex -12 10 15
    endloop
  endfacet
  facet normal 0 1 -0
    outer loop
      vertex -12 10 240
      vertex -33.5 10 251
      vertex -12 10 251
    endloop
  endfacet
  facet normal 0 1 -0
    outer loop
      vertex -12 10 225
      vertex -33.5 10 251
      vertex -12 10 240
    endloop
  endfacet
  facet normal 0 1 -0
    outer loop
      vertex -12 10 210
      vertex -33.5 10 251
      vertex -12 10 225
    endloop
  endfacet
  facet normal 0 1 -0
    outer loop
      vertex -12 10 195
      vertex -33.5 10 251
      vertex -12 10 210
    endloop
  endfacet
  facet normal 0 1 -0
    outer loop
      vertex -12 10 180
      vertex -33.5 10 251
      vertex -12 10 195
    endloop
  endfacet
  facet normal 0 1 -0
    outer loop
      vertex -12 10 165
      vertex -33.5 10 251
      vertex -12 10 180
    endloop
  endfacet
  facet normal 0 1 -0
    outer loop
      vertex -12 10 150
      vertex -33.5 10 251
      vertex -12 10 165
    endloop
  endfacet
  facet normal 0 1 -0
    outer loop
      vertex -12 10 135
      vertex -33.5 10 251
      vertex -12 10 150
    endloop
  endfacet
  facet normal 0 1 0
    outer loop
      vertex -12 10 120
      vertex -33.5 10 251
      vertex -12 10 135
    endloop
  endfacet
  facet normal 0 1 0
    outer loop
      vertex -33.5 10 0
      vertex -12 10 120
      vertex -12 10 105
    endloop
  endfacet
  facet normal 0 1 0
    outer loop
      vertex -33.5 10 0
      vertex -12 10 105
      vertex -12 10 90
    endloop
  endfacet
  facet normal 0 1 0
    outer loop
      vertex -33.5 10 0
      vertex -12 10 90
      vertex -12 10 75
    endloop
  endfacet
  facet normal 0 1 0
    outer loop
      vertex -33.5 10 0
      vertex -12 10 75
      vertex -12 10 60
    endloop
  endfacet
  facet normal 0 1 0
    outer loop
      vertex -33.5 10 0
      vertex -12 10 60
      vertex -12 10 45
    endloop
  endfacet
  facet normal 0 1 0
    outer loop
      vertex -33.5 10 0
      vertex -12 10 45
      vertex -12 10 30
    endloop
  endfacet
  facet normal 0 1 0
    outer loop
      vertex -33.5 10 0
      vertex -12 10 30
      vertex -12 10 15
    endloop
  endfacet
  facet normal 0 1 0
    outer loop
      vertex -12 10 120
      vertex -33.5 10 0
      vertex -33.5 10 251
    endloop
  endfacet
  facet normal 0 1 0
    outer loop
      vertex -33.5 10 0
      vertex -12 10 15
      vertex -4 10 0
    endloop
  endfacet
  facet normal 1 0 0
    outer loop
      vertex -12 10 251
      vertex -12 9.8247 240
      vertex -12 10 240
    endloop
  endfacet
  facet normal 1 -0 0
    outer loop
      vertex -12 6 251
      vertex -12 9.8247 240
      vertex -12 10 251
    endloop
  endfacet
  facet normal 1 0 0
    outer loop
      vertex -12 6 251
      vertex -12 9.58566 225
      vertex -12 9.66534 230
    endloop
  endfacet
  facet normal 1 0 0
    outer loop
      vertex -12 6 251
      vertex -12 9.34661 210
      vertex -12 9.42629 215
    endloop
  endfacet
  facet normal 1 0 0
    outer loop
      vertex -12 9.58566 225
      vertex -12 6 251
      vertex -12 9.42629 215
    endloop
  endfacet
  facet normal 1 0 0
    outer loop
      vertex -12 6 251
      vertex -12 9.10757 195
      vertex -12 9.18725 200
    endloop
  endfacet
  facet normal 1 0 0
    outer loop
      vertex -12 9.34661 210
      vertex -12 6 251
      vertex -12 9.18725 200
    endloop
  endfacet
  facet normal 1 0 0
    outer loop
      vertex -12 6 251
      vertex -12 8.86853 180
      vertex -12 8.94821 185
    endloop
  endfacet
  facet normal 1 0 0
    outer loop
      vertex -12 8.70916 170
      vertex -12 8.47012 155
      vertex -12 8.62948 165
    endloop
  endfacet
  facet normal 1 0 0
    outer loop
      vertex -12 8.86853 180
      vertex -12 6 251
      vertex -12 8.70916 170
    endloop
  endfacet
  facet normal 1 0 0
    outer loop
      vertex -12 8.47012 155
      vertex -12 8.23107 140
      vertex -12 8.39044 150
    endloop
  endfacet
  facet normal 1 0 0
    outer loop
      vertex -12 8.70916 170
      vertex -12 6 251
      vertex -12 8.47012 155
    endloop
  endfacet
  facet normal 1 0 0
    outer loop
      vertex -12 9.10757 195
      vertex -12 6 251
      vertex -12 8.94821 185
    endloop
  endfacet
  facet normal 0.980576 0.196115 -0.00312527
    outer loop
      vertex -12 8.23107 140
      vertex -12 7.99203 125
      vertex -12 8.15139 135
    endloop
  endfacet
  facet normal 1 0 0
    outer loop
      vertex -12 7.99203 125
      vertex -12 7.75299 110
      vertex -12 7.91235 120
    endloop
  endfacet
  facet normal 0.707062 -0.707062 0.0112679
    outer loop
      vertex -12 8.23107 140
      vertex -12 7.75299 110
      vertex -12 7.99203 125
    endloop
  endfacet
  facet normal 1 0 0
    outer loop
      vertex -12 7.75299 110
      vertex -12 7.51394 95
      vertex -12 7.67331 105
    endloop
  endfacet
  facet normal 1 8.82149e-007 1.7731e-008
    outer loop
      vertex -12 6 251
      vertex -12 7.75299 110
      vertex -12 8.23107 140
    endloop
  endfacet
  facet normal 1 0 0
    outer loop
      vertex -12 7.51394 95
      vertex -12 7.2749 80
      vertex -12 7.43426 90
    endloop
  endfacet
  facet normal 1 -2.38419e-007 3.7995e-009
    outer loop
      vertex -12 7.75299 110
      vertex -12 6 251
      vertex -12 7.51394 95
    endloop
  endfacet
  facet normal 1 0 0
    outer loop
      vertex -12 7.2749 80
      vertex -12 7.03586 65
      vertex -12 7.19522 75
    endloop
  endfacet
  facet normal 1 -2.38419e-007 3.7995e-009
    outer loop
      vertex -12 7.51394 95
      vertex -12 6 251
      vertex -12 7.2749 80
    endloop
  endfacet
  facet normal 1 0 0
    outer loop
      vertex -12 7.03586 65
      vertex -12 6.79681 50
      vertex -12 6.95618 60
    endloop
  endfacet
  facet normal 1 -2.38419e-007 3.7995e-009
    outer loop
      vertex -12 7.2749 80
      vertex -12 6 251
      vertex -12 7.03586 65
    endloop
  endfacet
  facet normal 1 0 0
    outer loop
      vertex -12 6.79681 50
      vertex -12 6.55777 35
      vertex -12 6.71713 45
    endloop
  endfacet
  facet normal 1 0 0
    outer loop
      vertex -12 6 15
      vertex -12 6.47809 30
      vertex -12 6.55777 35
    endloop
  endfacet
  facet normal 1 0 0
    outer loop
      vertex -12 6 15
      vertex -12 6.55777 35
      vertex -12 6.79681 50
    endloop
  endfacet
  facet normal 1 -1.77501e-007 4.04099e-009
    outer loop
      vertex -12 6 15
      vertex -12 6.79681 50
      vertex -12 6 251
    endloop
  endfacet
  facet normal 1 -2.38418e-007 3.7995e-009
    outer loop
      vertex -12 7.03586 65
      vertex -12 6 251
      vertex -12 6.79681 50
    endloop
  endfacet
  facet normal 1 0 0
    outer loop
      vertex -12 8.47012 155
      vertex -12 6 251
      vertex -12 8.23107 140
    endloop
  endfacet
  facet normal 1 0 0
    outer loop
      vertex -12 9.8247 240
      vertex -12 6 251
      vertex -12 9.66534 230
    endloop
  endfacet
  facet normal 1 -0 0
    outer loop
      vertex -12 10 230
      vertex -12 10 225
      vertex -12 10 240
    endloop
  endfacet
  facet normal 1 -0 0
    outer loop
      vertex -12 9.66534 230
      vertex -12 10 225
      vertex -12 10 230
    endloop
  endfacet
  facet normal 1 0 0
    outer loop
      vertex -12 10 225
      vertex -12 9.66534 230
      vertex -12 9.58566 225
    endloop
  endfacet
  facet normal 1 -0 0
    outer loop
      vertex -12 10 215
      vertex -12 10 210
      vertex -12 10 225
    endloop
  endfacet
  facet normal 1 -0 0
    outer loop
      vertex -12 9.42629 215
      vertex -12 10 210
      vertex -12 10 215
    endloop
  endfacet
  facet normal 1 0 0
    outer loop
      vertex -12 10 210
      vertex -12 9.42629 215
      vertex -12 9.34661 210
    endloop
  endfacet
  facet normal 1 -0 0
    outer loop
      vertex -12 10 200
      vertex -12 10 195
      vertex -12 10 210
    endloop
  endfacet
  facet normal 1 -0 0
    outer loop
      vertex -12 9.18725 200
      vertex -12 10 195
      vertex -12 10 200
    endloop
  endfacet
  facet normal 1 0 0
    outer loop
      vertex -12 10 195
      vertex -12 9.18725 200
      vertex -12 9.10757 195
    endloop
  endfacet
  facet normal 1 -0 0
    outer loop
      vertex -12 10 185
      vertex -12 10 180
      vertex -12 10 195
    endloop
  endfacet
  facet normal 1 -0 0
    outer loop
      vertex -12 8.94821 185
      vertex -12 10 180
      vertex -12 10 185
    endloop
  endfacet
  facet normal 1 0 0
    outer loop
      vertex -12 10 180
      vertex -12 8.94821 185
      vertex -12 8.86853 180
    endloop
  endfacet
  facet normal 1 -0 0
    outer loop
      vertex -12 10 170
      vertex -12 10 165
      vertex -12 10 180
    endloop
  endfacet
  facet normal 1 -0 0
    outer loop
      vertex -12 8.70916 170
      vertex -12 10 165
      vertex -12 10 170
    endloop
  endfacet
  facet normal 1 0 0
    outer loop
      vertex -12 10 165
      vertex -12 8.70916 170
      vertex -12 8.62948 165
    endloop
  endfacet
  facet normal 1 -0 0
    outer loop
      vertex -12 10 155
      vertex -12 10 150
      vertex -12 10 165
    endloop
  endfacet
  facet normal 1 -0 0
    outer loop
      vertex -12 8.47012 155
      vertex -12 10 150
      vertex -12 10 155
    endloop
  endfacet
  facet normal 1 0 0
    outer loop
      vertex -12 10 150
      vertex -12 8.47012 155
      vertex -12 8.39044 150
    endloop
  endfacet
  facet normal 1 -0 0
    outer loop
      vertex -12 10 140
      vertex -12 10 135
      vertex -12 10 150
    endloop
  endfacet
  facet normal 1 -0 0
    outer loop
      vertex -12 8.23107 140
      vertex -12 10 135
      vertex -12 10 140
    endloop
  endfacet
  facet normal 1 0 0
    outer loop
      vertex -12 10 135
      vertex -12 8.23107 140
      vertex -12 8.15139 135
    endloop
  endfacet
  facet normal 0.948683 0.316228 6.03157e-008
    outer loop
      vertex -12 10 125
      vertex -12 10 120
      vertex -12 10 135
    endloop
  endfacet
  facet normal 1 -0 0
    outer loop
      vertex -12 7.99203 125
      vertex -12 10 120
      vertex -12 10 125
    endloop
  endfacet
  facet normal 1 0 0
    outer loop
      vertex -12 10 120
      vertex -12 7.99203 125
      vertex -12 7.91235 120
    endloop
  endfacet
  facet normal 1 -0 0
    outer loop
      vertex -12 10 110
      vertex -12 10 105
      vertex -12 10 120
    endloop
  endfacet
  facet normal 1 -0 0
    outer loop
      vertex -12 7.75299 110
      vertex -12 10 105
      vertex -12 10 110
    endloop
  endfacet
  facet normal 1 0 0
    outer loop
      vertex -12 10 105
      vertex -12 7.75299 110
      vertex -12 7.67331 105
    endloop
  endfacet
  facet normal 1 -0 0
    outer loop
      vertex -12 10 95
      vertex -12 10 90
      vertex -12 10 105
    endloop
  endfacet
  facet normal 1 -0 0
    outer loop
      vertex -12 7.51394 95
      vertex -12 10 90
      vertex -12 10 95
    endloop
  endfacet
  facet normal 1 0 0
    outer loop
      vertex -12 10 90
      vertex -12 7.51394 95
      vertex -12 7.43426 90
    endloop
  endfacet
  facet normal 1 -0 0
    outer loop
      vertex -12 10 80
      vertex -12 10 75
      vertex -12 10 90
    endloop
  endfacet
  facet normal 1 -0 0
    outer loop
      vertex -12 7.2749 80
      vertex -12 10 75
      vertex -12 10 80
    endloop
  endfacet
  facet normal 1 0 0
    outer loop
      vertex -12 10 75
      vertex -12 7.2749 80
      vertex -12 7.19522 75
    endloop
  endfacet
  facet normal 1 -0 0
    outer loop
      vertex -12 10 65
      vertex -12 10 60
      vertex -12 10 75
    endloop
  endfacet
  facet normal 1 -0 0
    outer loop
      vertex -12 7.03586 65
      vertex -12 10 60
      vertex -12 10 65
    endloop
  endfacet
  facet normal 1 0 0
    outer loop
      vertex -12 10 60
      vertex -12 7.03586 65
      vertex -12 6.95618 60
    endloop
  endfacet
  facet normal 1 -0 0
    outer loop
      vertex -12 10 50
      vertex -12 10 45
      vertex -12 10 60
    endloop
  endfacet
  facet normal 1 -0 0
    outer loop
      vertex -12 6.79681 50
      vertex -12 10 45
      vertex -12 10 50
    endloop
  endfacet
  facet normal 1 0 0
    outer loop
      vertex -12 10 45
      vertex -12 6.79681 50
      vertex -12 6.71713 45
    endloop
  endfacet
  facet normal 1 -0 0
    outer loop
      vertex -12 10 35
      vertex -12 10 30
      vertex -12 10 45
    endloop
  endfacet
  facet normal 1 -0 0
    outer loop
      vertex -12 6.55777 35
      vertex -12 10 30
      vertex -12 10 35
    endloop
  endfacet
  facet normal 1 0 0
    outer loop
      vertex -12 10 30
      vertex -12 6.55777 35
      vertex -12 6.47809 30
    endloop
  endfacet
  facet normal 1 -0 0
    outer loop
      vertex -12 10 20
      vertex -12 10 15
      vertex -12 10 30
    endloop
  endfacet
  facet normal 1 -0 0
    outer loop
      vertex -12 6.31872 20
      vertex -12 10 15
      vertex -12 10 20
    endloop
  endfacet
  facet normal 1 0 0
    outer loop
      vertex -12 6.31872 20
      vertex -12 6 15
      vertex -12 10 15
    endloop
  endfacet
  facet normal 1 0 0
    outer loop
      vertex -12 6.47809 30
      vertex -12 6 15
      vertex -12 6.31872 20
    endloop
  endfacet
  facet normal 0 -1 0
    outer loop
      vertex -21.5 6 15
      vertex -12 6 251
      vertex -21.5 6 251
    endloop
  endfacet
  facet normal 0 -1 -0
    outer loop
      vertex -12 6 251
      vertex -21.5 6 15
      vertex -12 6 15
    endloop
  endfacet
  facet normal 1 -0 0
    outer loop
      vertex -21.5 2 251
      vertex -21.5 6 15
      vertex -21.5 6 251
    endloop
  endfacet
  facet normal 1 0 0
    outer loop
      vertex -21.5 6 15
      vertex -21.5 2 251
      vertex -21.5 2 15
    endloop
  endfacet
  facet normal 0 1 0
    outer loop
      vertex -4 2 251
      vertex -4 2 15
      vertex -21.5 2 251
    endloop
  endfacet
  facet normal 0 1 0
    outer loop
      vertex -4 2 0
      vertex -4 2 15
      vertex -4 2 251
    endloop
  endfacet
  facet normal 0 1 0
    outer loop
      vertex -21.5 2 251
      vertex -4 2 15
      vertex -21.5 2 15
    endloop
  endfacet
  facet normal 1 -0 3.7995e-009
    outer loop
      vertex -4 0 251
      vertex -4 2 0
      vertex -4 2 251
    endloop
  endfacet
  facet normal 1 0 3.7995e-009
    outer loop
      vertex -4 2 0
      vertex -4 0 251
      vertex -4 0 0
    endloop
  endfacet
  facet normal 0 -1 0
    outer loop
      vertex -40 0 0
      vertex -4 0 251
      vertex -40 0 251
    endloop
  endfacet
  facet normal 0 -1 -0
    outer loop
      vertex -4 0 251
      vertex -40 0 0
      vertex -4 0 0
    endloop
  endfacet
  facet normal -0.0523369 -0.998629 0
    outer loop
      vertex -40.209 0.0109558 0
      vertex -40 0 251
      vertex -40.209 0.0109558 251
    endloop
  endfacet
  facet normal -0.0523369 -0.998629 -0
    outer loop
      vertex -40 0 251
      vertex -40.209 0.0109558 0
      vertex -40 0 0
    endloop
  endfacet
  facet normal 0 -0.156428 0.987689
    outer loop
      vertex -42 15.5408 66.3356
      vertex -40 15 66.25
      vertex -40 15.5408 66.3356
    endloop
  endfacet
  facet normal 0 -0.156428 0.987689
    outer loop
      vertex -40 15 66.25
      vertex -42 15.5408 66.3356
      vertex -42 15 66.25
    endloop
  endfacet
  facet normal 0 -0.156428 -0.987689
    outer loop
      vertex -42 15 69.75
      vertex -40 15.5408 69.6644
      vertex -40 15 69.75
    endloop
  endfacet
  facet normal -0 -0.156428 -0.987689
    outer loop
      vertex -40 15.5408 69.6644
      vertex -42 15 69.75
      vertex -42 15.5408 69.6644
    endloop
  endfacet
  facet normal 0 0.987688 -0.156435
    outer loop
      vertex -40 13.25 68
      vertex -42 13.3357 68.5408
      vertex -40 13.3357 68.5408
    endloop
  endfacet
  facet normal 0 0.987688 -0.156435
    outer loop
      vertex -42 13.3357 68.5408
      vertex -40 13.25 68
      vertex -42 13.25 68
    endloop
  endfacet
  facet normal 0 0.453996 -0.891003
    outer loop
      vertex -42 13.9714 69.4158
      vertex -40 14.4592 69.6644
      vertex -40 13.9714 69.4158
    endloop
  endfacet
  facet normal 0 0.453996 -0.891003
    outer loop
      vertex -40 14.4592 69.6644
      vertex -42 13.9714 69.4158
      vertex -42 14.4592 69.6644
    endloop
  endfacet
  facet normal 0 -0.453996 0.891003
    outer loop
      vertex -42 16.0286 66.5842
      vertex -40 15.5408 66.3356
      vertex -40 16.0286 66.5842
    endloop
  endfacet
  facet normal 0 -0.453996 0.891003
    outer loop
      vertex -40 15.5408 66.3356
      vertex -42 16.0286 66.5842
      vertex -42 15.5408 66.3356
    endloop
  endfacet
  facet normal 0 -0.891007 0.45399
    outer loop
      vertex -42 16.4158 66.9714
      vertex -40 16.6643 67.4592
      vertex -42 16.6643 67.4592
    endloop
  endfacet
  facet normal 0 -0.891007 0.45399
    outer loop
      vertex -40 16.6643 67.4592
      vertex -42 16.4158 66.9714
      vertex -40 16.4158 66.9714
    endloop
  endfacet
  facet normal 0 -0.891007 -0.45399
    outer loop
      vertex -42 16.6643 68.5408
      vertex -40 16.4158 69.0286
      vertex -42 16.4158 69.0286
    endloop
  endfacet
  facet normal 0 -0.891007 -0.45399
    outer loop
      vertex -40 16.4158 69.0286
      vertex -42 16.6643 68.5408
      vertex -40 16.6643 68.5408
    endloop
  endfacet
  facet normal 0 -0.707105 -0.707109
    outer loop
      vertex -42 16.0286 69.4158
      vertex -40 16.4158 69.0286
      vertex -40 16.0286 69.4158
    endloop
  endfacet
  facet normal -0 -0.707105 -0.707109
    outer loop
      vertex -40 16.4158 69.0286
      vertex -42 16.0286 69.4158
      vertex -42 16.4158 69.0286
    endloop
  endfacet
  facet normal 0 -0.987688 -0.156435
    outer loop
      vertex -42 16.75 68
      vertex -40 16.6643 68.5408
      vertex -42 16.6643 68.5408
    endloop
  endfacet
  facet normal 0 -0.987688 -0.156435
    outer loop
      vertex -40 16.6643 68.5408
      vertex -42 16.75 68
      vertex -40 16.75 68
    endloop
  endfacet
  facet normal -0 0.707105 0.707109
    outer loop
      vertex -42 13.9714 66.5842
      vertex -40 13.5842 66.9714
      vertex -40 13.9714 66.5842
    endloop
  endfacet
  facet normal 0 0.707105 0.707109
    outer loop
      vertex -40 13.5842 66.9714
      vertex -42 13.9714 66.5842
      vertex -42 13.5842 66.9714
    endloop
  endfacet
  facet normal 0 0.987688 0.156435
    outer loop
      vertex -40 13.3357 67.4592
      vertex -42 13.25 68
      vertex -40 13.25 68
    endloop
  endfacet
  facet normal 0 0.987688 0.156435
    outer loop
      vertex -42 13.25 68
      vertex -40 13.3357 67.4592
      vertex -42 13.3357 67.4592
    endloop
  endfacet
  facet normal -0 0.453996 0.891003
    outer loop
      vertex -42 14.4592 66.3356
      vertex -40 13.9714 66.5842
      vertex -40 14.4592 66.3356
    endloop
  endfacet
  facet normal 0 0.453996 0.891003
    outer loop
      vertex -40 13.9714 66.5842
      vertex -42 14.4592 66.3356
      vertex -42 13.9714 66.5842
    endloop
  endfacet
  facet normal 0 0.707105 -0.707109
    outer loop
      vertex -42 13.5842 69.0286
      vertex -40 13.9714 69.4158
      vertex -40 13.5842 69.0286
    endloop
  endfacet
  facet normal 0 0.707105 -0.707109
    outer loop
      vertex -40 13.9714 69.4158
      vertex -42 13.5842 69.0286
      vertex -42 13.9714 69.4158
    endloop
  endfacet
  facet normal 0 0.156428 -0.987689
    outer loop
      vertex -42 14.4592 69.6644
      vertex -40 15 69.75
      vertex -40 14.4592 69.6644
    endloop
  endfacet
  facet normal 0 0.156428 -0.987689
    outer loop
      vertex -40 15 69.75
      vertex -42 14.4592 69.6644
      vertex -42 15 69.75
    endloop
  endfacet
  facet normal 0 -0.707105 0.707109
    outer loop
      vertex -42 16.4158 66.9714
      vertex -40 16.0286 66.5842
      vertex -40 16.4158 66.9714
    endloop
  endfacet
  facet normal 0 -0.707105 0.707109
    outer loop
      vertex -40 16.0286 66.5842
      vertex -42 16.4158 66.9714
      vertex -42 16.0286 66.5842
    endloop
  endfacet
  facet normal 0 -0.987688 0.156435
    outer loop
      vertex -42 16.6643 67.4592
      vertex -40 16.75 68
      vertex -42 16.75 68
    endloop
  endfacet
  facet normal 0 -0.987688 0.156435
    outer loop
      vertex -40 16.75 68
      vertex -42 16.6643 67.4592
      vertex -40 16.6643 67.4592
    endloop
  endfacet
  facet normal 0 -0.453996 -0.891003
    outer loop
      vertex -42 15.5408 69.6644
      vertex -40 16.0286 69.4158
      vertex -40 15.5408 69.6644
    endloop
  endfacet
  facet normal -0 -0.453996 -0.891003
    outer loop
      vertex -40 16.0286 69.4158
      vertex -42 15.5408 69.6644
      vertex -42 16.0286 69.4158
    endloop
  endfacet
  facet normal -0 0.156428 0.987689
    outer loop
      vertex -42 15 66.25
      vertex -40 14.4592 66.3356
      vertex -40 15 66.25
    endloop
  endfacet
  facet normal 0 0.156428 0.987689
    outer loop
      vertex -40 14.4592 66.3356
      vertex -42 15 66.25
      vertex -42 14.4592 66.3356
    endloop
  endfacet
  facet normal 0 0.891007 0.45399
    outer loop
      vertex -40 13.5842 66.9714
      vertex -42 13.3357 67.4592
      vertex -40 13.3357 67.4592
    endloop
  endfacet
  facet normal 0 0.891007 0.45399
    outer loop
      vertex -42 13.3357 67.4592
      vertex -40 13.5842 66.9714
      vertex -42 13.5842 66.9714
    endloop
  endfacet
  facet normal 0 0.891007 -0.45399
    outer loop
      vertex -40 13.3357 68.5408
      vertex -42 13.5842 69.0286
      vertex -40 13.5842 69.0286
    endloop
  endfacet
  facet normal 0 0.891007 -0.45399
    outer loop
      vertex -42 13.5842 69.0286
      vertex -40 13.3357 68.5408
      vertex -42 13.3357 68.5408
    endloop
  endfacet
  facet normal 0 -0.891004 0.453995
    outer loop
      vertex -42 16.4158 188.971
      vertex -40 16.6643 189.459
      vertex -42 16.6643 189.459
    endloop
  endfacet
  facet normal 0 -0.891004 0.453995
    outer loop
      vertex -40 16.6643 189.459
      vertex -42 16.4158 188.971
      vertex -40 16.4158 188.971
    endloop
  endfacet
  facet normal -0 0.156428 0.987689
    outer loop
      vertex -42 15 188.25
      vertex -40 14.4592 188.336
      vertex -40 15 188.25
    endloop
  endfacet
  facet normal 0 0.156428 0.987689
    outer loop
      vertex -40 14.4592 188.336
      vertex -42 15 188.25
      vertex -42 14.4592 188.336
    endloop
  endfacet
  facet normal 0 0.89101 -0.453984
    outer loop
      vertex -40 13.3357 190.541
      vertex -42 13.5842 191.029
      vertex -40 13.5842 191.029
    endloop
  endfacet
  facet normal 0 0.89101 -0.453984
    outer loop
      vertex -42 13.5842 191.029
      vertex -40 13.3357 190.541
      vertex -42 13.3357 190.541
    endloop
  endfacet
  facet normal 0 -0.453985 0.891009
    outer loop
      vertex -42 16.0286 188.584
      vertex -40 15.5408 188.336
      vertex -40 16.0286 188.584
    endloop
  endfacet
  facet normal 0 -0.453985 0.891009
    outer loop
      vertex -40 15.5408 188.336
      vertex -42 16.0286 188.584
      vertex -42 15.5408 188.336
    endloop
  endfacet
  facet normal 0 -0.987688 -0.156437
    outer loop
      vertex -42 16.75 190
      vertex -40 16.6643 190.541
      vertex -42 16.6643 190.541
    endloop
  endfacet
  facet normal 0 -0.987688 -0.156437
    outer loop
      vertex -40 16.6643 190.541
      vertex -42 16.75 190
      vertex -40 16.75 190
    endloop
  endfacet
  facet normal 0 -0.89101 -0.453984
    outer loop
      vertex -42 16.6643 190.541
      vertex -40 16.4158 191.029
      vertex -42 16.4158 191.029
    endloop
  endfacet
  facet normal 0 -0.89101 -0.453984
    outer loop
      vertex -40 16.4158 191.029
      vertex -42 16.6643 190.541
      vertex -40 16.6643 190.541
    endloop
  endfacet
  facet normal 0 0.707112 0.707102
    outer loop
      vertex -40 13.9714 188.584
      vertex -42 13.5842 188.971
      vertex -40 13.5842 188.971
    endloop
  endfacet
  facet normal 0 0.707112 0.707102
    outer loop
      vertex -42 13.5842 188.971
      vertex -40 13.9714 188.584
      vertex -42 13.9714 188.584
    endloop
  endfacet
  facet normal 0 0.987689 0.156433
    outer loop
      vertex -40 13.3357 189.459
      vertex -42 13.25 190
      vertex -40 13.25 190
    endloop
  endfacet
  facet normal 0 0.987689 0.156433
    outer loop
      vertex -42 13.25 190
      vertex -40 13.3357 189.459
      vertex -42 13.3357 189.459
    endloop
  endfacet
  facet normal -0 0.453985 0.891009
    outer loop
      vertex -42 14.4592 188.336
      vertex -40 13.9714 188.584
      vertex -40 14.4592 188.336
    endloop
  endfacet
  facet normal 0 0.453985 0.891009
    outer loop
      vertex -40 13.9714 188.584
      vertex -42 14.4592 188.336
      vertex -42 13.9714 188.584
    endloop
  endfacet
  facet normal 0 0.156428 -0.987689
    outer loop
      vertex -42 14.4592 191.664
      vertex -40 15 191.75
      vertex -40 14.4592 191.664
    endloop
  endfacet
  facet normal 0 0.156428 -0.987689
    outer loop
      vertex -40 15 191.75
      vertex -42 14.4592 191.664
      vertex -42 15 191.75
    endloop
  endfacet
  facet normal 0 0.454008 -0.890998
    outer loop
      vertex -42 13.9714 191.416
      vertex -40 14.4592 191.664
      vertex -40 13.9714 191.416
    endloop
  endfacet
  facet normal 0 0.454008 -0.890998
    outer loop
      vertex -40 14.4592 191.664
      vertex -42 13.9714 191.416
      vertex -42 14.4592 191.664
    endloop
  endfacet
  facet normal 0 -0.707112 0.707102
    outer loop
      vertex -42 16.0286 188.584
      vertex -40 16.4158 188.971
      vertex -42 16.4158 188.971
    endloop
  endfacet
  facet normal 0 -0.707112 0.707102
    outer loop
      vertex -40 16.4158 188.971
      vertex -42 16.0286 188.584
      vertex -40 16.0286 188.584
    endloop
  endfacet
  facet normal 0 -0.987689 0.156433
    outer loop
      vertex -42 16.6643 189.459
      vertex -40 16.75 190
      vertex -42 16.75 190
    endloop
  endfacet
  facet normal 0 -0.987689 0.156433
    outer loop
      vertex -40 16.75 190
      vertex -42 16.6643 189.459
      vertex -40 16.6643 189.459
    endloop
  endfacet
  facet normal 0 -0.156428 -0.987689
    outer loop
      vertex -42 15 191.75
      vertex -40 15.5408 191.664
      vertex -40 15 191.75
    endloop
  endfacet
  facet normal -0 -0.156428 -0.987689
    outer loop
      vertex -40 15.5408 191.664
      vertex -42 15 191.75
      vertex -42 15.5408 191.664
    endloop
  endfacet
  facet normal 0 -0.707098 -0.707115
    outer loop
      vertex -42 16.0286 191.416
      vertex -40 16.4158 191.029
      vertex -40 16.0286 191.416
    endloop
  endfacet
  facet normal -0 -0.707098 -0.707115
    outer loop
      vertex -40 16.4158 191.029
      vertex -42 16.0286 191.416
      vertex -42 16.4158 191.029
    endloop
  endfacet
  facet normal 0 -0.156428 0.987689
    outer loop
      vertex -42 15.5408 188.336
      vertex -40 15 188.25
      vertex -40 15.5408 188.336
    endloop
  endfacet
  facet normal 0 -0.156428 0.987689
    outer loop
      vertex -40 15 188.25
      vertex -42 15.5408 188.336
      vertex -42 15 188.25
    endloop
  endfacet
  facet normal 0 0.891004 0.453995
    outer loop
      vertex -40 13.5842 188.971
      vertex -42 13.3357 189.459
      vertex -40 13.3357 189.459
    endloop
  endfacet
  facet normal 0 0.891004 0.453995
    outer loop
      vertex -42 13.3357 189.459
      vertex -40 13.5842 188.971
      vertex -42 13.5842 188.971
    endloop
  endfacet
  facet normal 0 0.987688 -0.156437
    outer loop
      vertex -40 13.25 190
      vertex -42 13.3357 190.541
      vertex -40 13.3357 190.541
    endloop
  endfacet
  facet normal 0 0.987688 -0.156437
    outer loop
      vertex -42 13.3357 190.541
      vertex -40 13.25 190
      vertex -42 13.25 190
    endloop
  endfacet
  facet normal 0 0.707098 -0.707115
    outer loop
      vertex -42 13.5842 191.029
      vertex -40 13.9714 191.416
      vertex -40 13.5842 191.029
    endloop
  endfacet
  facet normal 0 0.707098 -0.707115
    outer loop
      vertex -40 13.9714 191.416
      vertex -42 13.5842 191.029
      vertex -42 13.9714 191.416
    endloop
  endfacet
  facet normal 0 -0.454008 -0.890998
    outer loop
      vertex -42 15.5408 191.664
      vertex -40 16.0286 191.416
      vertex -40 15.5408 191.664
    endloop
  endfacet
  facet normal -0 -0.454008 -0.890998
    outer loop
      vertex -40 16.0286 191.416
      vertex -42 15.5408 191.664
      vertex -42 16.0286 191.416
    endloop
  endfacet
  facet normal 1 -0 0
    outer loop
      vertex -4 2 15
      vertex -4 10 0
      vertex -4 10 15
    endloop
  endfacet
  facet normal 1 0 0
    outer loop
      vertex -4 10 0
      vertex -4 2 15
      vertex -4 2 0
    endloop
  endfacet
endsolid OpenSCAD_Model
